<?xml version="1.0" encoding="utf-8"?>
<!-- Generator: Adobe Illustrator 22.1.0, SVG Export Plug-In . SVG Version: 6.00 Build 0)  -->
<svg version="1.1" id="Ebene_1" xmlns="http://www.w3.org/2000/svg" xmlns:xlink="http://www.w3.org/1999/xlink" x="0px" y="0px"
	 viewBox="0 0 286.3 83.1" style="enable-background:new 0 0 286.3 83.1;" xml:space="preserve">
<style type="text/css">
	.st0{fill:none;}
	.st1{fill:#EC6B06;}
	.st2{fill:#9A9999;}
</style>
<title>brand evergy</title>
<desc>Created with Sketch.</desc>
<g id="Styles">
	<g id="icons" transform="translate(-100.000000, -166.000000)">
		<g id="brand-evergy" transform="translate(80.000000, 146.000000)">
			<rect id="Rectangle-2-_x5B_20_x5D_" x="3.2" y="4.1" class="st0" width="320" height="115.3"/>
			<g id="Evergy-Logo" transform="translate(20.000000, 20.000000)">
				<g>
					<path id="rotor" class="st1" d="M282.9,61.1c0,0-41.7,12.6-83.3,17.2c-37.8,4.2-51-10.9-54.8-17.2L282.9,61.1z M141.7,56.1
						l-138.5,0c0,0,41.8-12.7,83.6-17.3C124.7,34.6,137.8,49.7,141.7,56.1z"/>
					<path id="Combined-Shape" class="st2" d="M267.5,46.3c-1.7,6.2-2.9,8.8-9.4,8.8H252l0.9-6.1h1.7c2.1,0,2.7-0.5,2.8-2.7
						l1.1-35.2h7.4l-2.6,28.8h0.6l5.9-28.8h7.4L267.5,46.3z M172.4,11.1h7.4l-2.8,29.4h0.5l5.9-29.4h7.4l-11.3,44h-8.8L172.4,11.1z
						 M231.4,21.3l-1.1,7.8H223l1.4-9.4c0.1-0.6,0.1-0.9,0.1-1c0-0.7-0.4-1.1-1-1.1c-1.1,0-1.4,0.7-1.6,2.1l-5.2,35.3h-7.7l6.5-43.7
						h7.7l-0.3,1.8c1.8-1.4,3.3-2.1,4.7-2.1c2.9,0,4.5,1.8,4.5,5.2C232,17.6,231.7,19.3,231.4,21.3z M156,4.3h14.6l-1.1,7h-5.5
						l-1.5,11.1h5.5l-1.1,7h-5.5l-2.7,18.4h5.4l-1.1,7h-14.5L156,4.3z M198.8,34.4L197,46.8c-0.1,0.5-0.1,0.8-0.1,0.9
						c0,1,0.3,1.4,1.1,1.4c1.2,0,1.4-0.9,1.6-2.2l1.2-8.1h7.9l-1.3,8c-1.1,7-3.1,8.3-10.5,8.3c-5.7,0-8.1-0.9-8.1-5.2
						c0-0.5,0.1-1.6,0.3-3.2l4.1-27.3c1.1-6.9,3-8.4,10.4-8.4c5.7,0,8.2,0.9,8.2,5.2c0,0.5-0.1,1.6-0.3,3.2l-2.3,14.9H198.8z
						 M199.8,28.3h2.7l1.3-9c0.1-0.4,0.1-0.8,0.1-1.1c0-0.7-0.5-1.1-1.1-1.1c-1.3,0-1.5,0.7-1.7,2.2L199.8,28.3z M247,13.2l0.3-1.8
						h7.7l-5.2,36.1c-0.9,6.2-3.4,7.5-9,7.5H231l0.9-6.1h7.8c0.4,0,0.7-0.1,0.8-0.1c1.3,0,1.6-0.7,1.8-1.8l0.6-4.1
						c-1.8,1.4-3.4,2-4.9,2c-3.2,0-4.8-1.8-4.8-5.4c0-1.1,0.2-2.7,0.5-4.9l1.8-13.5c0.9-6.3,2.2-10.2,7.4-10.2
						C244.3,11.1,245.6,11.8,247,13.2z M246.1,19.8c0.1-0.5,0.1-0.9,0.1-0.9c0-0.8-0.4-1.2-1.1-1.2c-1.1,0-1.4,0.8-1.6,2.1
						l-2.3,16.5c-0.1,0.6-0.1,0.9-0.1,0.9c0,0.9,0.3,1.3,1.1,1.3c1.1,0,1.4-0.8,1.6-2.1L246.1,19.8z"/>
				</g>
			</g>
		</g>
	</g>
</g>
</svg>
