<svg width="34" height="47" viewBox="0 0 34 47" fill="none" xmlns="http://www.w3.org/2000/svg">
<mask id="path-1-inside-1_623_9100" fill="white">
<path fill-rule="evenodd" clip-rule="evenodd" d="M4.55846 32.2764H0V44.8945C0 45.7931 0.728485 46.5216 1.62712 46.5216H2.93135C3.82998 46.5216 4.55846 45.7931 4.55846 44.8945V32.2764ZM18.7302 32.2764H5.98252V42.4205C5.98252 42.4205 8.92547 43.9574 14.7529 43.9574C20.2058 43.9574 26.5263 39.023 28.7366 37.2973C28.8884 37.1788 29.0208 37.0754 29.1323 36.9898C30.8659 35.6577 31.3758 34.4281 30.8659 33.7109C30.1482 32.7012 28.3164 32.9936 28.3164 32.9936L23.1154 34.7355C23.1154 34.7355 21.7767 38.0144 19.3421 38.0144H11.2855C11.2855 38.0144 11.4943 35.9651 14.7529 35.9651H18.7302C21.5741 35.9651 21.0966 32.2764 18.7302 32.2764Z"/>
</mask>
<path fill-rule="evenodd" clip-rule="evenodd" d="M4.55846 32.2764H0V44.8945C0 45.7931 0.728485 46.5216 1.62712 46.5216H2.93135C3.82998 46.5216 4.55846 45.7931 4.55846 44.8945V32.2764ZM18.7302 32.2764H5.98252V42.4205C5.98252 42.4205 8.92547 43.9574 14.7529 43.9574C20.2058 43.9574 26.5263 39.023 28.7366 37.2973C28.8884 37.1788 29.0208 37.0754 29.1323 36.9898C30.8659 35.6577 31.3758 34.4281 30.8659 33.7109C30.1482 32.7012 28.3164 32.9936 28.3164 32.9936L23.1154 34.7355C23.1154 34.7355 21.7767 38.0144 19.3421 38.0144H11.2855C11.2855 38.0144 11.4943 35.9651 14.7529 35.9651H18.7302C21.5741 35.9651 21.0966 32.2764 18.7302 32.2764Z" fill="#EC6B06"/>
<path d="M0 32.2764V31.056H-1.22034V32.2764H0ZM4.55846 32.2764H5.7788V31.056H4.55846V32.2764ZM5.98252 32.2764V31.056H4.76218V32.2764H5.98252ZM5.98252 42.4205H4.76218V43.1599L5.41759 43.5022L5.98252 42.4205ZM28.7366 37.2973L29.4876 38.2592L29.4876 38.2592L28.7366 37.2973ZM29.1323 36.9898L28.3887 36.0221L28.3887 36.0221L29.1323 36.9898ZM30.8659 33.7109L29.8713 34.418L29.8713 34.418L30.8659 33.7109ZM28.3164 32.9936L28.124 31.7885L28.0245 31.8044L27.9289 31.8365L28.3164 32.9936ZM23.1154 34.7355L22.7278 33.5784L22.1971 33.7561L21.9856 34.2743L23.1154 34.7355ZM11.2855 38.0144L10.0715 37.8908L9.93457 39.2348H11.2855V38.0144ZM0 33.4967H4.55846V31.056H0V33.4967ZM1.22034 44.8945V32.2764H-1.22034V44.8945H1.22034ZM1.62712 45.3012C1.40246 45.3012 1.22034 45.1191 1.22034 44.8945H-1.22034C-1.22034 46.4671 0.0545103 47.7419 1.62712 47.7419V45.3012ZM2.93135 45.3012H1.62712V47.7419H2.93135V45.3012ZM3.33813 44.8945C3.33813 45.1191 3.156 45.3012 2.93135 45.3012V47.7419C4.50395 47.7419 5.7788 46.4671 5.7788 44.8945H3.33813ZM3.33813 32.2764V44.8945H5.7788V32.2764H3.33813ZM5.98252 33.4967H18.7302V31.056H5.98252V33.4967ZM7.20286 42.4205V32.2764H4.76218V42.4205H7.20286ZM14.7529 42.7371C11.9477 42.7371 9.8592 42.3673 8.49219 42.0086C7.80824 41.8291 7.30373 41.652 6.97945 41.5247C6.81728 41.461 6.70013 41.4098 6.62809 41.3768C6.59208 41.3603 6.56734 41.3484 6.55389 41.3418C6.54717 41.3385 6.54327 41.3366 6.5422 41.336C6.54166 41.3358 6.54183 41.3358 6.5427 41.3363C6.54314 41.3365 6.54376 41.3368 6.54455 41.3372C6.54494 41.3374 6.54538 41.3377 6.54587 41.3379C6.54611 41.338 6.54651 41.3383 6.54663 41.3383C6.54703 41.3385 6.54745 41.3387 5.98252 42.4205C5.41759 43.5022 5.41803 43.5024 5.41848 43.5026C5.41865 43.5027 5.41911 43.5029 5.41944 43.5031C5.42011 43.5035 5.42082 43.5038 5.42157 43.5042C5.42308 43.505 5.42477 43.5059 5.42665 43.5068C5.4304 43.5088 5.43488 43.5111 5.44009 43.5137C5.4505 43.519 5.46384 43.5256 5.48009 43.5336C5.5126 43.5495 5.55678 43.5706 5.61262 43.5962C5.72429 43.6473 5.88259 43.7161 6.08737 43.7965C6.497 43.9574 7.09244 44.1646 7.87266 44.3693C9.43398 44.7791 11.7306 45.1778 14.7529 45.1778V42.7371ZM27.9856 36.3354C26.8822 37.1969 24.81 38.8132 22.3556 40.2148C19.8706 41.6338 17.1548 42.7371 14.7529 42.7371V45.1778C17.8039 45.1778 20.9748 43.8138 23.5659 42.3342C26.1874 40.8372 28.3807 39.1234 29.4876 38.2592L27.9856 36.3354ZM28.3887 36.0221C28.2728 36.1112 28.1362 36.2178 27.9856 36.3354L29.4876 38.2592C29.6406 38.1397 29.7689 38.0396 29.8758 37.9575L28.3887 36.0221ZM29.8713 34.418C29.7726 34.2791 29.911 34.2484 29.7479 34.5761C29.581 34.9115 29.1759 35.4173 28.3887 36.0221L29.8758 37.9575C30.8223 37.2302 31.539 36.4552 31.933 35.6635C32.3308 34.864 32.4692 33.8599 31.8606 33.0038L29.8713 34.418ZM28.3164 32.9936C28.5088 34.1987 28.5084 34.1988 28.5081 34.1988C28.508 34.1988 28.5077 34.1989 28.5074 34.1989C28.507 34.199 28.5066 34.199 28.5063 34.1991C28.5055 34.1992 28.5049 34.1993 28.5044 34.1994C28.5033 34.1996 28.5027 34.1997 28.5025 34.1997C28.502 34.1998 28.5031 34.1996 28.5057 34.1992C28.5109 34.1985 28.522 34.197 28.5383 34.1951C28.5711 34.1913 28.6239 34.1859 28.6913 34.1816C28.8292 34.1728 29.0126 34.1697 29.2042 34.1883C29.6566 34.2321 29.8303 34.3602 29.8713 34.418L31.8606 33.0038C31.1838 32.0519 30.0827 31.8213 29.4398 31.759C29.0838 31.7245 28.7644 31.7313 28.5364 31.7458C28.4208 31.7532 28.3249 31.7628 28.2547 31.771C28.2195 31.7751 28.1906 31.7789 28.1686 31.7819C28.1576 31.7835 28.1484 31.7848 28.1409 31.7859C28.1372 31.7865 28.1339 31.787 28.1311 31.7874C28.1297 31.7877 28.1284 31.7879 28.1272 31.788C28.1266 31.7881 28.1261 31.7882 28.1255 31.7883C28.1253 31.7883 28.1249 31.7884 28.1248 31.7884C28.1244 31.7885 28.124 31.7885 28.3164 32.9936ZM23.5029 35.8927L28.704 34.1508L27.9289 31.8365L22.7278 33.5784L23.5029 35.8927ZM19.3421 39.2348C21.1349 39.2348 22.3932 38.0373 23.1042 37.1252C23.4788 36.6447 23.7592 36.1712 23.9455 35.821C24.0394 35.6445 24.1114 35.4955 24.1612 35.3876C24.1861 35.3336 24.2056 35.2896 24.2196 35.2573C24.2266 35.2411 24.2322 35.2279 24.2365 35.2177C24.2386 35.2127 24.2404 35.2084 24.2419 35.2049C24.2426 35.2031 24.2432 35.2016 24.2438 35.2002C24.244 35.1995 24.2443 35.1989 24.2445 35.1984C24.2447 35.1981 24.2448 35.1977 24.2449 35.1975C24.245 35.1972 24.2452 35.1968 23.1154 34.7355C21.9856 34.2743 21.9857 34.2739 21.9858 34.2736C21.9859 34.2735 21.986 34.2732 21.9861 34.273C21.9862 34.2727 21.9864 34.2723 21.9865 34.2721C21.9867 34.2715 21.9868 34.2711 21.9869 34.271C21.9871 34.2706 21.9869 34.271 21.9864 34.2722C21.9855 34.2744 21.9833 34.2796 21.9799 34.2875C21.9731 34.3032 21.9614 34.3296 21.945 34.3653C21.912 34.4367 21.8604 34.5439 21.7908 34.6747C21.65 34.9394 21.4437 35.2855 21.1792 35.6247C20.6122 36.3522 19.9838 36.7941 19.3421 36.7941V39.2348ZM11.2855 39.2348H19.3421V36.7941H11.2855V39.2348ZM14.7529 34.7448C12.8466 34.7448 11.6226 35.3569 10.8888 36.175C10.5381 36.566 10.3373 36.9634 10.2234 37.2739C10.1665 37.4291 10.1305 37.5643 10.1079 37.6694C10.0966 37.722 10.0885 37.7675 10.0827 37.8046C10.0798 37.8232 10.0775 37.8398 10.0757 37.8542C10.0748 37.8614 10.074 37.868 10.0733 37.8741C10.0729 37.8772 10.0726 37.8801 10.0723 37.8829C10.0722 37.8842 10.072 37.8856 10.0719 37.8869C10.0718 37.8876 10.0717 37.8885 10.0717 37.8889C10.0716 37.8898 10.0715 37.8908 11.2855 38.0144C12.4996 38.1381 12.4995 38.139 12.4994 38.14C12.4994 38.1403 12.4993 38.1412 12.4992 38.1418C12.4991 38.143 12.499 38.1441 12.4988 38.1453C12.4986 38.1475 12.4984 38.1497 12.4981 38.1518C12.4977 38.1559 12.4972 38.1596 12.4968 38.1629C12.4959 38.1696 12.4952 38.1746 12.4946 38.1782C12.4935 38.1853 12.4931 38.1868 12.4938 38.1834C12.4954 38.1763 12.5012 38.1515 12.5147 38.1146C12.5418 38.0408 12.5969 37.9259 12.7057 37.8046C12.891 37.598 13.4006 37.1855 14.7529 37.1855V34.7448ZM18.7302 34.7448H14.7529V37.1855H18.7302V34.7448ZM18.7302 33.4967C18.9815 33.4967 19.1403 33.586 19.2495 33.6993C19.3739 33.8284 19.4542 34.0138 19.4663 34.1996C19.4781 34.3816 19.4232 34.4989 19.3647 34.5625C19.3193 34.6118 19.1667 34.7448 18.7302 34.7448V37.1855C19.7156 37.1855 20.5698 36.8573 21.1608 36.215C21.7387 35.5869 21.9498 34.7821 21.9019 34.0419C21.8082 32.5943 20.6675 31.056 18.7302 31.056V33.4967Z" fill="#EC6B06" mask="url(#path-1-inside-1_623_9100)"/>
<path fill-rule="evenodd" clip-rule="evenodd" d="M27.6631 10.0833C27.4684 10.0833 27.2767 10.0658 27.088 10.0424L26.1118 11.2774C26.0204 11.3886 25.8611 11.4208 25.7343 11.3476L23.6906 10.177C23.5637 10.1038 23.5136 9.95163 23.5637 9.81994L24.1565 8.3625C23.9206 8.06106 23.7259 7.73035 23.5755 7.37331L22.0125 7.15382C21.8739 7.1304 21.7648 7.01042 21.7648 6.86409V4.52282C21.7648 4.37649 21.8739 4.2565 22.0125 4.23309L23.5755 4.01359C23.7259 3.65655 23.9235 3.32584 24.1565 3.02441L23.5637 1.56697C23.5107 1.43527 23.5637 1.28309 23.6906 1.20992L25.7343 0.0392879C25.8641 -0.0338767 26.0233 -0.00168427 26.1118 0.109526L27.088 1.34455C27.2767 1.32113 27.4684 1.30357 27.6631 1.30357C27.8577 1.30357 28.0494 1.32113 28.2382 1.34455L29.2143 0.109526C29.3057 -0.00168427 29.465 -0.0338767 29.5918 0.0392879L31.6356 1.20992C31.7624 1.28309 31.8125 1.43527 31.7624 1.56697L31.1696 3.02441C31.4055 3.32584 31.6002 3.65655 31.7506 4.01359L33.3136 4.23309C33.4523 4.2565 33.5614 4.37649 33.5614 4.52282V6.86409C33.5614 7.01042 33.4523 7.1304 33.3136 7.15674L31.7506 7.37624C31.6002 7.73328 31.4026 8.06399 31.1696 8.36542L31.7624 9.82286C31.8155 9.95456 31.7624 10.1067 31.6356 10.1799L29.5918 11.3505C29.462 11.4237 29.3028 11.3915 29.2143 11.2803L28.2382 10.0424C28.0494 10.0658 27.8577 10.0833 27.6631 10.0833ZM30.5777 9.49211L30.0295 8.10593L30.2932 7.75509C30.4737 7.51494 30.6207 7.25871 30.7307 6.99007L30.8971 6.58385L32.341 6.37535V5.01474L30.8971 4.80623L30.7307 4.40001C30.6182 4.12546 30.4729 3.87117 30.296 3.63872L30.0283 3.28706L30.1916 2.87414L30.5779 1.89805L29.4273 1.22034L28.5251 2.39414L28.099 2.3398C27.9255 2.31766 27.7889 2.30694 27.6631 2.30694C27.5372 2.30694 27.4007 2.31766 27.2271 2.3398L26.8011 2.39414L26.5361 2.04942L25.8989 1.22034L24.7484 1.89797L25.2967 3.28415L25.033 3.63499C24.8525 3.87514 24.7055 4.13137 24.5954 4.40001L24.429 4.80623L24.0018 4.86792L22.9851 5.01452V6.37257L24.429 6.58108L24.5954 6.9873C24.7079 7.26185 24.8532 7.51614 25.0301 7.74859L25.2978 8.10025L25.1345 8.51316L24.7483 9.48926L25.8989 10.167L26.8011 8.99317L27.2271 9.04751C27.4007 9.06965 27.5372 9.08037 27.6631 9.08037C27.7889 9.08037 27.9255 9.06965 28.099 9.04751L28.5256 8.9931L28.7906 9.33859L29.4277 10.1695L30.5777 9.49211ZM27.8665 3.45763C26.6296 3.45763 25.6292 4.45801 25.6292 5.69492C25.6292 6.93182 26.6296 7.9322 27.8665 7.9322C29.1034 7.9322 30.1037 6.93182 30.1037 5.69492C30.1037 4.45801 29.1034 3.45763 27.8665 3.45763ZM26.8488 5.69492C26.8488 6.25764 27.303 6.71186 27.8657 6.71186C28.4285 6.71186 28.8827 6.25764 28.8827 5.69492C28.8827 5.13219 28.4285 4.67797 27.8657 4.67797C27.303 4.67797 26.8488 5.13219 26.8488 5.69492ZM28.9641 20.9982C29.1374 21.1395 29.1875 21.3856 29.0735 21.5817L27.2502 24.7407C27.1362 24.9367 26.8992 25.0142 26.694 24.9367L24.4239 24.0204C23.9544 24.3851 23.4393 24.686 22.8831 24.9185L22.5413 27.3344C22.5048 27.5487 22.3179 27.7174 22.09 27.7174H18.4432C18.2153 27.7174 18.0284 27.5487 17.9919 27.3344L17.65 24.9185C17.0939 24.686 16.5788 24.3806 16.1093 24.0204L13.8392 24.9367C13.634 25.0187 13.397 24.9367 13.283 24.7407L11.4596 21.5817C11.3457 21.3811 11.3958 21.1349 11.569 20.9982L13.4927 19.4893C13.4562 19.1976 13.4289 18.9013 13.4289 18.6004C13.4289 18.2996 13.4562 18.0033 13.4927 17.7115L11.569 16.2027C11.3958 16.0614 11.3457 15.8152 11.4596 15.6192L13.283 12.4602C13.397 12.2642 13.634 12.1867 13.8392 12.2642L16.1093 13.1804C16.5788 12.8157 17.0939 12.5149 17.65 12.2824L17.9919 9.86641C18.0284 9.65216 18.2153 9.4835 18.4432 9.4835H22.09C22.3179 9.4835 22.5048 9.65216 22.5458 9.86641L22.8877 12.2824C23.4438 12.5149 23.9589 12.8203 24.4285 13.1804L26.6986 12.2642C26.9037 12.1821 27.1408 12.2642 27.2547 12.4602L29.0781 15.6192C29.1921 15.8198 29.1419 16.0659 28.9687 16.2027L27.0405 17.7115C27.0769 18.0033 27.1043 18.2996 27.1043 18.6004C27.1043 18.9013 27.0769 19.1976 27.0405 19.4893L28.9641 20.9982ZM24.251 14.4809L26.5656 13.5467L27.7939 15.6747L26.3378 16.8141L25.8291 17.2121L25.9092 17.853C25.9463 18.149 25.9643 18.3831 25.9643 18.6005C25.9643 18.8179 25.9463 19.052 25.9092 19.3481L25.8292 19.988L27.7897 21.5257L26.5609 23.6545L24.85 22.9637L24.2422 22.7184L23.7245 23.1205C23.3332 23.4244 22.9052 23.674 22.4432 23.8671L21.8452 24.1171L21.497 26.5778H19.0354L18.6872 24.1171L18.0892 23.8671C17.637 23.6781 17.206 23.4258 16.8024 23.1163L16.2859 22.7201L13.9713 23.6543L12.7427 21.5257L14.1956 20.3861L14.7031 19.988L14.6231 19.3481C14.5861 19.052 14.5681 18.8179 14.5681 18.6005C14.5681 18.3831 14.5861 18.149 14.6231 17.853L14.7031 17.213L12.7427 15.6753L13.9715 13.5465L15.6823 14.2373L16.2902 14.4826L16.8079 14.0805C17.1992 13.7766 17.6272 13.527 18.0892 13.3339L18.6872 13.0839L19.0354 10.6232H21.5015L21.8497 13.0839L22.4478 13.3339C22.9 13.523 23.3309 13.7752 23.7345 14.0848L24.251 14.4809ZM22.3178 18.6006C22.3178 19.7353 21.4012 20.6519 20.2665 20.6519C19.1318 20.6519 18.2152 19.7353 18.2152 18.6006C18.2152 17.4659 19.1318 16.5493 20.2665 16.5493C21.4012 16.5493 22.3178 17.4659 22.3178 18.6006ZM20.2668 21.7915C18.5027 21.7915 17.0759 20.3647 17.0759 18.6005C17.0759 16.8364 18.5027 15.4096 20.2668 15.4096C22.0309 15.4096 23.4577 16.8364 23.4577 18.6005C23.4577 20.3647 22.0309 21.7915 20.2668 21.7915Z" fill="black"/>
</svg>
