<svg width="33" height="49" viewBox="0 0 33 49" fill="none" xmlns="http://www.w3.org/2000/svg">
<mask id="path-1-inside-1_623_9103" fill="white">
<path fill-rule="evenodd" clip-rule="evenodd" d="M18.7302 34.2451H5.98252V44.3892C5.98252 44.3892 8.92547 45.9262 14.7529 45.9262C20.2058 45.9262 26.5263 40.9917 28.7366 39.2661C28.8884 39.1475 29.0208 39.0441 29.1323 38.9585C30.8659 37.6265 31.3758 36.3969 30.8659 35.6796C30.1482 34.67 28.3164 34.9624 28.3164 34.9624L23.1154 36.7043C23.1154 36.7043 21.7767 39.9832 19.3421 39.9832H11.2855C11.2855 39.9832 11.4943 37.9339 14.7529 37.9339H18.7302C21.5741 37.9339 21.0966 34.2451 18.7302 34.2451ZM4.55846 34.2453H0V46.8634C0 47.762 0.728485 48.4905 1.62712 48.4905H2.93135C3.82998 48.4905 4.55846 47.762 4.55846 46.8634V34.2453Z"/>
</mask>
<path fill-rule="evenodd" clip-rule="evenodd" d="M18.7302 34.2451H5.98252V44.3892C5.98252 44.3892 8.92547 45.9262 14.7529 45.9262C20.2058 45.9262 26.5263 40.9917 28.7366 39.2661C28.8884 39.1475 29.0208 39.0441 29.1323 38.9585C30.8659 37.6265 31.3758 36.3969 30.8659 35.6796C30.1482 34.67 28.3164 34.9624 28.3164 34.9624L23.1154 36.7043C23.1154 36.7043 21.7767 39.9832 19.3421 39.9832H11.2855C11.2855 39.9832 11.4943 37.9339 14.7529 37.9339H18.7302C21.5741 37.9339 21.0966 34.2451 18.7302 34.2451ZM4.55846 34.2453H0V46.8634C0 47.762 0.728485 48.4905 1.62712 48.4905H2.93135C3.82998 48.4905 4.55846 47.762 4.55846 46.8634V34.2453Z" fill="#EC6B06"/>
<path d="M5.98252 34.2451V33.0248H4.76218V34.2451H5.98252ZM5.98252 44.3892H4.76218V45.1286L5.41759 45.4709L5.98252 44.3892ZM28.7366 39.2661L27.9856 38.3041L27.9856 38.3041L28.7366 39.2661ZM29.1323 38.9585L28.3887 37.9908L28.3887 37.9908L29.1323 38.9585ZM30.8659 35.6796L29.8713 36.3867L29.8713 36.3867L30.8659 35.6796ZM28.3164 34.9624L28.124 33.7573L28.0245 33.7732L27.9289 33.8052L28.3164 34.9624ZM23.1154 36.7043L22.7278 35.5471L22.1971 35.7249L21.9856 36.243L23.1154 36.7043ZM11.2855 39.9832L10.0715 39.8595L9.93457 41.2035H11.2855V39.9832ZM0 34.2453V33.025H-1.22034V34.2453H0ZM4.55846 34.2453H5.7788V33.025H4.55846V34.2453ZM5.98252 35.4655H18.7302V33.0248H5.98252V35.4655ZM7.20286 44.3892V34.2451H4.76218V44.3892H7.20286ZM14.7529 44.7058C11.9477 44.7058 9.8592 44.3361 8.49219 43.9773C7.80824 43.7978 7.30373 43.6208 6.97945 43.4934C6.81728 43.4298 6.70013 43.3785 6.6281 43.3455C6.59208 43.3291 6.56734 43.3172 6.55389 43.3106C6.54717 43.3073 6.54327 43.3053 6.5422 43.3048C6.54166 43.3045 6.54183 43.3046 6.5427 43.305C6.54314 43.3053 6.54376 43.3056 6.54455 43.306C6.54494 43.3062 6.54538 43.3064 6.54587 43.3067C6.54611 43.3068 6.54651 43.307 6.54663 43.3071C6.54703 43.3073 6.54745 43.3075 5.98252 44.3892C5.41759 45.4709 5.41803 45.4711 5.41848 45.4714C5.41865 45.4715 5.41911 45.4717 5.41944 45.4719C5.42011 45.4722 5.42082 45.4726 5.42157 45.473C5.42308 45.4738 5.42477 45.4746 5.42665 45.4756C5.4304 45.4775 5.43488 45.4798 5.44008 45.4824C5.4505 45.4877 5.46384 45.4944 5.48009 45.5023C5.5126 45.5183 5.55678 45.5394 5.61262 45.5649C5.72429 45.616 5.88258 45.6848 6.08737 45.7653C6.497 45.9261 7.09244 46.1333 7.87266 46.3381C9.43398 46.7478 11.7306 47.1465 14.7529 47.1465V44.7058ZM27.9856 38.3041C26.8822 39.1656 24.81 40.7819 22.3556 42.1835C19.8706 43.6026 17.1548 44.7058 14.7529 44.7058V47.1465C17.8039 47.1465 20.9748 45.7826 23.5659 44.303C26.1874 42.8059 28.3807 41.0921 29.4876 40.228L27.9856 38.3041ZM28.3887 37.9908C28.2728 38.08 28.1362 38.1866 27.9856 38.3041L29.4876 40.228C29.6406 40.1085 29.7689 40.0083 29.8758 39.9262L28.3887 37.9908ZM29.8713 36.3867C29.7726 36.2478 29.911 36.2172 29.7479 36.5448C29.581 36.8802 29.1759 37.3861 28.3887 37.9908L29.8758 39.9262C30.8223 39.199 31.539 38.424 31.933 37.6322C32.3308 36.8328 32.4692 35.8287 31.8606 34.9726L29.8713 36.3867ZM28.3164 34.9624C28.5088 36.1675 28.5084 36.1675 28.5081 36.1676C28.508 36.1676 28.5077 36.1676 28.5074 36.1677C28.507 36.1677 28.5066 36.1678 28.5063 36.1679C28.5055 36.168 28.5049 36.1681 28.5044 36.1681C28.5033 36.1683 28.5027 36.1684 28.5025 36.1684C28.502 36.1685 28.5031 36.1683 28.5057 36.168C28.5109 36.1673 28.522 36.1658 28.5383 36.1639C28.5711 36.16 28.6239 36.1546 28.6913 36.1503C28.8292 36.1416 29.0126 36.1384 29.2042 36.157C29.6566 36.2009 29.8303 36.329 29.8713 36.3867L31.8606 34.9726C31.1838 34.0206 30.0827 33.7901 29.4398 33.7277C29.0838 33.6932 28.7644 33.7001 28.5364 33.7146C28.4208 33.7219 28.3249 33.7315 28.2547 33.7397C28.2195 33.7438 28.1906 33.7476 28.1686 33.7507C28.1576 33.7522 28.1484 33.7536 28.1409 33.7547C28.1372 33.7553 28.1339 33.7558 28.1311 33.7562C28.1297 33.7564 28.1284 33.7566 28.1272 33.7568C28.1266 33.7569 28.1261 33.757 28.1255 33.7571C28.1253 33.7571 28.1249 33.7572 28.1248 33.7572C28.1244 33.7572 28.124 33.7573 28.3164 34.9624ZM23.5029 37.8615L28.704 36.1195L27.9289 33.8052L22.7278 35.5471L23.5029 37.8615ZM19.3421 41.2035C21.1349 41.2035 22.3932 40.006 23.1042 39.094C23.4788 38.6135 23.7592 38.1399 23.9455 37.7898C24.0394 37.6132 24.1114 37.4642 24.1612 37.3564C24.1861 37.3023 24.2056 37.2583 24.2196 37.226C24.2266 37.2099 24.2322 37.1966 24.2365 37.1865C24.2386 37.1814 24.2404 37.1771 24.2419 37.1736C24.2426 37.1719 24.2432 37.1703 24.2438 37.169C24.244 37.1683 24.2443 37.1677 24.2445 37.1671C24.2447 37.1668 24.2448 37.1664 24.2449 37.1663C24.245 37.1659 24.2452 37.1655 23.1154 36.7043C21.9856 36.243 21.9857 36.2427 21.9858 36.2424C21.9859 36.2423 21.986 36.242 21.9861 36.2418C21.9862 36.2414 21.9864 36.2411 21.9865 36.2408C21.9867 36.2403 21.9868 36.2399 21.9869 36.2397C21.9871 36.2394 21.9869 36.2398 21.9864 36.2409C21.9855 36.2432 21.9833 36.2483 21.9799 36.2562C21.9731 36.2719 21.9614 36.2984 21.945 36.334C21.912 36.4054 21.8604 36.5126 21.7908 36.6434C21.65 36.9081 21.4437 37.2543 21.1792 37.5935C20.6122 38.3209 19.9838 38.7628 19.3421 38.7628V41.2035ZM11.2855 41.2035H19.3421V38.7628H11.2855V41.2035ZM14.7529 36.7135C12.8466 36.7135 11.6226 37.3256 10.8888 38.1437C10.5381 38.5347 10.3373 38.9321 10.2234 39.2426C10.1665 39.3979 10.1305 39.5331 10.1079 39.6381C10.0966 39.6907 10.0885 39.7362 10.0827 39.7734C10.0798 39.792 10.0775 39.8086 10.0757 39.8229C10.0748 39.8301 10.074 39.8368 10.0733 39.8429C10.0729 39.8459 10.0726 39.8488 10.0723 39.8516C10.0722 39.853 10.072 39.8544 10.0719 39.8557C10.0718 39.8563 10.0717 39.8573 10.0717 39.8576C10.0716 39.8586 10.0715 39.8595 11.2855 39.9832C12.4996 40.1069 12.4995 40.1078 12.4994 40.1087C12.4994 40.109 12.4993 40.1099 12.4992 40.1105C12.4991 40.1117 12.499 40.1129 12.4988 40.114C12.4986 40.1163 12.4984 40.1184 12.4981 40.1205C12.4977 40.1246 12.4972 40.1284 12.4968 40.1317C12.4959 40.1383 12.4952 40.1434 12.4946 40.1469C12.4935 40.1541 12.4931 40.1556 12.4938 40.1522C12.4954 40.1451 12.5012 40.1202 12.5147 40.0833C12.5418 40.0096 12.5969 39.8946 12.7057 39.7733C12.891 39.5668 13.4006 39.1542 14.7529 39.1542V36.7135ZM18.7302 36.7135H14.7529V39.1542H18.7302V36.7135ZM18.7302 35.4655C18.9815 35.4655 19.1403 35.5547 19.2495 35.6681C19.3739 35.7972 19.4542 35.9825 19.4663 36.1683C19.4781 36.3503 19.4232 36.4677 19.3647 36.5312C19.3193 36.5806 19.1667 36.7135 18.7302 36.7135V39.1542C19.7156 39.1542 20.5698 38.8261 21.1608 38.1838C21.7387 37.5557 21.9498 36.7509 21.9019 36.0107C21.8082 34.5631 20.6675 33.0248 18.7302 33.0248V35.4655ZM0 35.4657H4.55846V33.025H0V35.4657ZM1.22034 46.8634V34.2453H-1.22034V46.8634H1.22034ZM1.62712 47.2702C1.40246 47.2702 1.22034 47.0881 1.22034 46.8634H-1.22034C-1.22034 48.436 0.0545098 49.7109 1.62712 49.7109V47.2702ZM2.93135 47.2702H1.62712V49.7109H2.93135V47.2702ZM3.33813 46.8634C3.33813 47.0881 3.156 47.2702 2.93135 47.2702V49.7109C4.50395 49.7109 5.7788 48.436 5.7788 46.8634H3.33813ZM3.33813 34.2453V46.8634H5.7788V34.2453H3.33813Z" fill="#EC6B06" mask="url(#path-1-inside-1_623_9103)"/>
<path d="M6.91797 30.0374H31.3247" stroke="black" stroke-width="1.62712" stroke-linecap="round"/>
<path fill-rule="evenodd" clip-rule="evenodd" d="M23.594 1.76571V27.7996H25.2211V1.76571C25.2211 1.31639 24.8569 0.952148 24.4076 0.952148C23.9583 0.952148 23.594 1.31639 23.594 1.76571ZM17.4923 27.7996V5.8335C17.4923 5.38419 17.8566 5.01995 18.3059 5.01995C18.7552 5.01995 19.1194 5.38419 19.1194 5.8335V27.7996H17.4923ZM13.0177 27.7996H11.3906V13.1555C11.3906 12.7062 11.7549 12.342 12.2042 12.342C12.6535 12.342 13.0177 12.7062 13.0177 13.1555V27.7996Z" fill="black"/>
<path fill-rule="evenodd" clip-rule="evenodd" d="M13.832 27.7995V2.57918C13.832 2.12987 14.1963 1.76562 14.6456 1.76562C15.0949 1.76562 15.4591 2.12987 15.4591 2.57918V27.7995H13.832ZM19.9337 27.7995V14.3758C19.9337 13.9265 20.298 13.5622 20.7473 13.5622C21.1966 13.5622 21.5608 13.9265 21.5608 14.3758V27.7995H19.9337ZM26.0354 13.1555V27.7995H27.6625V13.1555C27.6625 12.7061 27.2983 12.3419 26.849 12.3419C26.3997 12.3419 26.0354 12.7061 26.0354 13.1555Z" fill="#EC6B06"/>
</svg>
