<svg width="76" height="100" viewBox="0 0 76 100" fill="none" xmlns="http://www.w3.org/2000/svg">
<path d="M45.4743 63.5472C45.6719 64.2847 45.2343 65.0428 44.4968 65.2404L22.7887 71.0571C22.0511 71.2547 21.2931 70.817 21.0955 70.0795C20.8978 69.342 21.3355 68.584 22.073 68.3863L43.7811 62.5697C44.5186 62.3721 45.2767 62.8097 45.4743 63.5472Z" fill="black"/>
<path d="M30.8764 74.9031C29.48 76.4566 27.4007 77.4196 25.1159 77.4196C21.9547 77.4196 19.1871 75.5762 18.0769 72.8762C17.7865 72.1701 18.1236 71.3622 18.8298 71.0719C19.5359 70.7815 20.3438 71.1186 20.6341 71.8248C21.2967 73.4363 23.0187 74.6546 25.1159 74.6546C27.2131 74.6546 28.935 73.4363 29.5976 71.8248C29.767 71.4129 30.1124 71.1266 30.511 71.0171C30.6477 70.9794 30.7865 70.9638 30.9229 70.9684C31.4493 70.9864 31.9419 71.306 32.1552 71.8247C32.8178 73.4363 34.5398 74.6546 36.637 74.6546C38.7342 74.6546 40.4561 73.4363 41.1187 71.8247C41.2921 71.403 41.6502 71.1129 42.0609 71.0095C42.2771 70.955 42.508 70.9523 42.7342 71.0095C43.1449 71.1129 43.5029 71.403 43.6763 71.8247C44.339 73.4363 46.0609 74.6546 48.1581 74.6546C50.2549 74.6546 51.9766 73.4367 52.6395 71.8256L52.6421 71.8194C52.7877 71.4693 53.0608 71.2106 53.3853 71.0749C53.3925 71.0719 53.3999 71.0689 53.4072 71.066C53.5749 70.9992 53.7481 70.9676 53.9185 70.9676C54.0888 70.9676 54.262 70.9992 54.4297 71.066L54.436 71.0685L54.4535 71.0757C54.7789 71.2123 55.0523 71.4726 55.1971 71.8247C55.8597 73.4363 57.5816 74.6546 59.6788 74.6546C61.776 74.6546 63.4979 73.4363 64.1606 71.8247C64.4509 71.1186 65.2588 70.7815 65.9649 71.0719C66.6711 71.3622 67.0082 72.1701 66.7178 72.8762C65.6076 75.5762 62.84 77.4196 59.6788 77.4196C57.3941 77.4196 55.3149 76.4566 53.9185 74.9033C52.522 76.4566 50.4428 77.4196 48.1581 77.4196C45.8732 77.4196 43.794 76.4566 42.3975 74.9031C41.0011 76.4566 38.9218 77.4196 36.637 77.4196C34.3521 77.4196 32.2729 76.4566 30.8764 74.9031Z" fill="black"/>
<path d="M67.5382 65.2404C68.2757 65.0428 68.7134 64.2847 68.5158 63.5472C68.3182 62.8097 67.5601 62.3721 66.8226 62.5697L45.1145 68.3863C44.377 68.584 43.9393 69.342 44.1369 70.0795C44.3346 70.817 45.0926 71.2547 45.8301 71.0571L67.5382 65.2404Z" fill="black"/>
<path fill-rule="evenodd" clip-rule="evenodd" d="M19.3557 5.53003C20.1192 5.53003 20.7382 6.14899 20.7382 6.91252V19.3549C20.7382 19.467 20.7249 19.5759 20.6997 19.6802C22.3043 19.9088 23.779 20.5405 25.018 21.4696C25.074 21.3778 25.1417 21.2911 25.2211 21.2117L30.8532 15.5796C31.3931 15.0397 32.2685 15.0397 32.8084 15.5796C33.3483 16.1195 33.3483 16.9949 32.8084 17.5348L27.1763 23.1669C27.0969 23.2463 27.0102 23.314 26.9184 23.37C27.8401 24.5991 28.4692 26.0601 28.7023 27.6498H47.0055C47.769 27.6498 48.388 28.2688 48.388 29.0323C48.388 29.7959 47.769 30.4148 47.0055 30.4148H28.7023C28.4711 31.9911 27.8507 33.4408 26.9418 34.6633L38.7022 46.4237C39.2421 46.9636 39.2421 47.8389 38.7022 48.3788C38.1623 48.9187 37.287 48.9187 36.7471 48.3788L24.9867 36.6184C23.7642 37.5274 22.3144 38.1478 20.7382 38.3789V50.6913C20.7382 51.4548 20.1192 52.0738 19.3557 52.0738C18.5922 52.0738 17.9732 51.4548 17.9732 50.6913V38.3789C16.397 38.1478 14.9472 37.5274 13.7247 36.6184L7.08266 43.2605C6.54276 43.8004 5.66742 43.8004 5.12752 43.2605C4.58763 42.7206 4.58763 41.8452 5.12752 41.3053L11.7696 34.6633C10.8533 33.4309 10.2302 31.9675 10.0036 30.3763C9.89926 30.4015 9.79033 30.4148 9.67828 30.4148H5.06999C4.30646 30.4148 3.6875 29.7959 3.6875 29.0323C3.6875 28.2688 4.30646 27.6498 5.06999 27.6498H9.67828C9.79033 27.6498 9.89926 27.6632 10.0036 27.6883C10.2321 26.0837 10.8639 24.609 11.7929 23.3701C11.7012 23.314 11.6145 23.2463 11.5351 23.1669L4.67648 16.3083C4.13658 15.7684 4.13658 14.893 4.67647 14.3531C5.21637 13.8132 6.09171 13.8132 6.63161 14.3531L13.4903 21.2118C13.5697 21.2912 13.6374 21.3778 13.6934 21.4696C14.9324 20.5405 16.4071 19.9088 18.0117 19.6802C17.9865 19.5759 17.9732 19.467 17.9732 19.3549L17.9732 6.91252C17.9732 6.14899 18.5922 5.53003 19.3557 5.53003ZM19.3557 21.8895C15.4108 21.8895 12.2128 25.0874 12.2128 29.0323C12.2128 32.9772 15.4108 36.1752 19.3557 36.1752C23.3006 36.1752 26.4986 32.9772 26.4986 29.0323C26.4986 25.0874 23.3006 21.8895 19.3557 21.8895Z" fill="#EC6B06"/>
</svg>
