<svg width="76" height="100" viewBox="0 0 76 100" fill="none" xmlns="http://www.w3.org/2000/svg">
<path fill-rule="evenodd" clip-rule="evenodd" d="M7.375 39.6313C7.375 38.8677 7.99396 38.2488 8.75749 38.2488H20.2782C21.0418 38.2488 21.6607 38.8677 21.6607 39.6313C21.6607 40.3948 21.0418 41.0138 20.2782 41.0138H8.75749C7.99396 41.0138 7.375 40.3948 7.375 39.6313ZM8.75749 54.8386C7.99396 54.8386 7.375 55.4576 7.375 56.2211C7.375 56.9847 7.99396 57.6036 8.75749 57.6036H20.2782C21.0418 57.6036 21.6607 56.9847 21.6607 56.2211C21.6607 55.4576 21.0418 54.8386 20.2782 54.8386H8.75749ZM8.75749 71.4285C7.99396 71.4285 7.375 72.0475 7.375 72.811C7.375 73.5745 7.99396 74.1935 8.75749 74.1935H20.2782C21.0418 74.1935 21.6607 73.5745 21.6607 72.811C21.6607 72.0475 21.0418 71.4285 20.2782 71.4285H8.75749ZM8.75749 79.7234C7.99396 79.7234 7.375 80.3424 7.375 81.1059C7.375 81.8694 7.99396 82.4884 8.75749 82.4884H20.2782C21.0418 82.4884 21.6607 81.8694 21.6607 81.1059C21.6607 80.3424 21.0418 79.7234 20.2782 79.7234H8.75749ZM7.375 64.5161C7.375 63.7525 7.99396 63.1336 8.75749 63.1336H20.2782C21.0418 63.1336 21.6607 63.7525 21.6607 64.5161C21.6607 65.2796 21.0418 65.8986 20.2782 65.8986H8.75749C7.99396 65.8986 7.375 65.2796 7.375 64.5161ZM8.75749 46.5437C7.99396 46.5437 7.375 47.1627 7.375 47.9262C7.375 48.6897 7.99396 49.3087 8.75749 49.3087H20.2782C21.0418 49.3087 21.6607 48.6897 21.6607 47.9262C21.6607 47.1627 21.0418 46.5437 20.2782 46.5437H8.75749Z" fill="#EC6B06"/>
<path fill-rule="evenodd" clip-rule="evenodd" d="M58.1591 49.2165H27.1914V46.5437H58.1591C61.8495 46.5437 64.8412 49.5353 64.8412 53.2257V90.3225H62.1684V53.2257C62.1684 51.0115 60.3734 49.2165 58.1591 49.2165ZM44.8377 67.6823C45.0623 67.6823 45.2666 67.8223 45.3687 68.0326C45.4913 68.2428 45.4911 68.4993 45.3889 68.7095L39.056 81.8842C38.954 82.1178 38.7497 82.258 38.525 82.258C38.4842 82.258 38.4229 82.258 38.3616 82.2347C38.0756 82.1413 37.8918 81.8375 37.9122 81.5105L38.382 73.2882H34.7047C34.5207 73.2882 34.337 73.1948 34.2143 73.008C34.1123 72.821 34.0713 72.5875 34.1326 72.3772L37.5034 60.6978C37.5851 60.3941 37.8098 60.2073 38.0754 60.2073L43.0194 60.2075C43.2033 60.2075 43.4076 60.3009 43.5097 60.4877C43.6119 60.6746 43.6527 60.9082 43.5914 61.1185L41.712 67.6823H44.8377Z" fill="black"/>
</svg>
