<svg width="35" height="53" viewBox="0 0 35 53" fill="none" xmlns="http://www.w3.org/2000/svg">
<mask id="path-1-inside-1_623_9101" fill="white">
<path fill-rule="evenodd" clip-rule="evenodd" d="M18.7302 38.2881H5.98252V48.4322C5.98252 48.4322 8.92547 49.9692 14.7529 49.9692C20.2058 49.9692 26.5263 45.0347 28.7366 43.309C28.8884 43.1905 29.0208 43.0871 29.1323 43.0015C30.8659 41.6694 31.3758 40.4399 30.8659 39.7226C30.1482 38.7129 28.3164 39.0053 28.3164 39.0053L23.1154 40.7473C23.1154 40.7473 21.7767 44.0262 19.3421 44.0262H11.2855C11.2855 44.0262 11.4943 41.9768 14.7529 41.9768H18.7302C21.5741 41.9768 21.0966 38.2881 18.7302 38.2881ZM4.55846 38.2883H0V50.9064C0 51.805 0.728485 52.5335 1.62712 52.5335H2.93135C3.82998 52.5335 4.55846 51.805 4.55846 50.9064V38.2883Z"/>
</mask>
<path fill-rule="evenodd" clip-rule="evenodd" d="M18.7302 38.2881H5.98252V48.4322C5.98252 48.4322 8.92547 49.9692 14.7529 49.9692C20.2058 49.9692 26.5263 45.0347 28.7366 43.309C28.8884 43.1905 29.0208 43.0871 29.1323 43.0015C30.8659 41.6694 31.3758 40.4399 30.8659 39.7226C30.1482 38.7129 28.3164 39.0053 28.3164 39.0053L23.1154 40.7473C23.1154 40.7473 21.7767 44.0262 19.3421 44.0262H11.2855C11.2855 44.0262 11.4943 41.9768 14.7529 41.9768H18.7302C21.5741 41.9768 21.0966 38.2881 18.7302 38.2881ZM4.55846 38.2883H0V50.9064C0 51.805 0.728485 52.5335 1.62712 52.5335H2.93135C3.82998 52.5335 4.55846 51.805 4.55846 50.9064V38.2883Z" fill="#EC6B06"/>
<path d="M5.98252 38.2881V37.0677H4.76218V38.2881H5.98252ZM5.98252 48.4322H4.76218V49.1716L5.41759 49.5139L5.98252 48.4322ZM28.7366 43.309L27.9856 42.3471L27.9856 42.3471L28.7366 43.309ZM29.1323 43.0015L29.8758 43.9692L29.8758 43.9692L29.1323 43.0015ZM30.8659 39.7226L29.8713 40.4297L29.8713 40.4297L30.8659 39.7226ZM28.3164 39.0053L28.124 37.8003L28.0245 37.8162L27.9289 37.8482L28.3164 39.0053ZM23.1154 40.7473L22.7278 39.5901L22.1971 39.7678L21.9856 40.286L23.1154 40.7473ZM11.2855 44.0262L10.0715 43.9025L9.93457 45.2465H11.2855V44.0262ZM0 38.2883V37.068H-1.22034V38.2883H0ZM4.55846 38.2883H5.7788V37.068H4.55846V38.2883ZM5.98252 39.5084H18.7302V37.0677H5.98252V39.5084ZM7.20286 48.4322V38.2881H4.76218V48.4322H7.20286ZM14.7529 48.7488C11.9477 48.7488 9.8592 48.379 8.49219 48.0203C7.80824 47.8408 7.30373 47.6638 6.97945 47.5364C6.81728 47.4727 6.70013 47.4215 6.62809 47.3885C6.59208 47.372 6.56734 47.3601 6.55389 47.3535C6.54717 47.3503 6.54327 47.3483 6.5422 47.3477C6.54166 47.3475 6.54183 47.3476 6.5427 47.348C6.54314 47.3482 6.54376 47.3485 6.54455 47.349C6.54494 47.3492 6.54538 47.3494 6.54587 47.3496C6.54611 47.3498 6.54651 47.35 6.54663 47.35C6.54703 47.3502 6.54745 47.3505 5.98252 48.4322C5.41759 49.5139 5.41803 49.5141 5.41848 49.5143C5.41865 49.5144 5.41911 49.5147 5.41944 49.5148C5.42011 49.5152 5.42082 49.5156 5.42157 49.5159C5.42308 49.5167 5.42477 49.5176 5.42665 49.5186C5.4304 49.5205 5.43488 49.5228 5.44009 49.5254C5.4505 49.5307 5.46384 49.5374 5.48009 49.5453C5.5126 49.5612 5.55678 49.5824 5.61262 49.6079C5.72429 49.659 5.88259 49.7278 6.08737 49.8082C6.497 49.9691 7.09244 50.1763 7.87266 50.381C9.43398 50.7908 11.7306 51.1895 14.7529 51.1895V48.7488ZM27.9856 42.3471C26.8822 43.2086 24.81 44.8249 22.3556 46.2265C19.8706 47.6455 17.1548 48.7488 14.7529 48.7488V51.1895C17.8039 51.1895 20.9748 49.8255 23.5659 48.3459C26.1874 46.8489 28.3807 45.1351 29.4876 44.2709L27.9856 42.3471ZM28.3887 42.0338C28.2728 42.1229 28.1362 42.2296 27.9856 42.3471L29.4876 44.2709C29.6406 44.1514 29.7689 44.0513 29.8758 43.9692L28.3887 42.0338ZM29.8713 40.4297C29.7726 40.2908 29.911 40.2601 29.7479 40.5878C29.581 40.9232 29.1759 41.429 28.3887 42.0338L29.8758 43.9692C30.8223 43.2419 31.539 42.467 31.933 41.6752C32.3308 40.8757 32.4692 39.8717 31.8606 39.0155L29.8713 40.4297ZM28.3164 39.0053C28.5088 40.2104 28.5084 40.2105 28.5081 40.2105C28.508 40.2106 28.5077 40.2106 28.5074 40.2106C28.507 40.2107 28.5066 40.2108 28.5063 40.2108C28.5055 40.2109 28.5049 40.211 28.5044 40.2111C28.5033 40.2113 28.5027 40.2114 28.5025 40.2114C28.502 40.2115 28.5031 40.2113 28.5057 40.211C28.5109 40.2102 28.522 40.2087 28.5383 40.2068C28.5711 40.203 28.6239 40.1976 28.6913 40.1933C28.8292 40.1845 29.0126 40.1814 29.2042 40.2C29.6566 40.2439 29.8303 40.3719 29.8713 40.4297L31.8606 39.0155C31.1838 38.0636 30.0827 37.8331 29.4398 37.7707C29.0838 37.7362 28.7644 37.743 28.5364 37.7576C28.4208 37.7649 28.3249 37.7745 28.2547 37.7827C28.2195 37.7868 28.1906 37.7906 28.1686 37.7937C28.1576 37.7952 28.1484 37.7965 28.1409 37.7977C28.1372 37.7982 28.1339 37.7987 28.1311 37.7992C28.1297 37.7994 28.1284 37.7996 28.1272 37.7998C28.1266 37.7999 28.1261 37.7999 28.1255 37.8C28.1253 37.8001 28.1249 37.8001 28.1248 37.8001C28.1244 37.8002 28.124 37.8003 28.3164 39.0053ZM23.5029 41.9044L28.704 40.1625L27.9289 37.8482L22.7278 39.5901L23.5029 41.9044ZM19.3421 45.2465C21.1349 45.2465 22.3932 44.049 23.1042 43.137C23.4788 42.6564 23.7592 42.1829 23.9455 41.8328C24.0394 41.6562 24.1114 41.5072 24.1612 41.3993C24.1861 41.3453 24.2056 41.3013 24.2196 41.269C24.2266 41.2528 24.2322 41.2396 24.2365 41.2294C24.2386 41.2244 24.2404 41.2201 24.2419 41.2166C24.2426 41.2148 24.2432 41.2133 24.2438 41.2119C24.244 41.2113 24.2443 41.2106 24.2445 41.2101C24.2447 41.2098 24.2448 41.2094 24.2449 41.2093C24.245 41.2089 24.2452 41.2085 23.1154 40.7473C21.9856 40.286 21.9857 40.2857 21.9858 40.2853C21.9859 40.2852 21.986 40.2849 21.9861 40.2847C21.9862 40.2844 21.9864 40.284 21.9865 40.2838C21.9867 40.2832 21.9868 40.2829 21.9869 40.2827C21.9871 40.2823 21.9869 40.2828 21.9864 40.2839C21.9855 40.2861 21.9833 40.2913 21.9799 40.2992C21.9731 40.3149 21.9614 40.3414 21.945 40.377C21.912 40.4484 21.8604 40.5556 21.7908 40.6864C21.65 40.9511 21.4437 41.2973 21.1792 41.6364C20.6122 42.3639 19.9838 42.8058 19.3421 42.8058V45.2465ZM11.2855 45.2465H19.3421V42.8058H11.2855V45.2465ZM14.7529 40.7565C12.8466 40.7565 11.6226 41.3686 10.8888 42.1867C10.5381 42.5777 10.3373 42.9751 10.2234 43.2856C10.1665 43.4408 10.1305 43.5761 10.1079 43.6811C10.0966 43.7337 10.0885 43.7792 10.0827 43.8164C10.0798 43.835 10.0775 43.8515 10.0757 43.8659C10.0748 43.8731 10.074 43.8798 10.0733 43.8859C10.0729 43.8889 10.0726 43.8918 10.0723 43.8946C10.0722 43.896 10.072 43.8973 10.0719 43.8986C10.0718 43.8993 10.0717 43.9003 10.0717 43.9006C10.0716 43.9015 10.0715 43.9025 11.2855 44.0262C12.4996 44.1498 12.4995 44.1508 12.4994 44.1517C12.4994 44.152 12.4993 44.1529 12.4992 44.1535C12.4991 44.1547 12.499 44.1558 12.4988 44.157C12.4986 44.1592 12.4984 44.1614 12.4981 44.1635C12.4977 44.1676 12.4972 44.1713 12.4968 44.1746C12.4959 44.1813 12.4952 44.1863 12.4946 44.1899C12.4935 44.1971 12.4931 44.1985 12.4938 44.1951C12.4954 44.1881 12.5012 44.1632 12.5147 44.1263C12.5418 44.0525 12.5969 43.9376 12.7057 43.8163C12.891 43.6097 13.4006 43.1972 14.7529 43.1972V40.7565ZM18.7302 40.7565H14.7529V43.1972H18.7302V40.7565ZM18.7302 39.5084C18.9815 39.5084 19.1403 39.5977 19.2495 39.7111C19.3739 39.8401 19.4542 40.0255 19.4663 40.2113C19.4781 40.3933 19.4232 40.5106 19.3647 40.5742C19.3193 40.6235 19.1667 40.7565 18.7302 40.7565V43.1972C19.7156 43.1972 20.5698 42.869 21.1608 42.2268C21.7387 41.5987 21.9498 40.7938 21.9019 40.0537C21.8082 38.6061 20.6675 37.0677 18.7302 37.0677V39.5084ZM0 39.5087H4.55846V37.068H0V39.5087ZM1.22034 50.9064V38.2883H-1.22034V50.9064H1.22034ZM1.62712 51.3132C1.40246 51.3132 1.22034 51.1311 1.22034 50.9064H-1.22034C-1.22034 52.479 0.0545098 53.7539 1.62712 53.7539V51.3132ZM2.93135 51.3132H1.62712V53.7539H2.93135V51.3132ZM3.33813 50.9064C3.33813 51.1311 3.156 51.3132 2.93135 51.3132V53.7539C4.50395 53.7539 5.7788 52.479 5.7788 50.9064H3.33813ZM3.33813 38.2883V50.9064H5.7788V38.2883H3.33813Z" fill="#EC6B06" mask="url(#path-1-inside-1_623_9101)"/>
<path fill-rule="evenodd" clip-rule="evenodd" d="M23.7747 26.9477C22.4431 26.9477 21.1701 26.6966 20.0006 26.2392L15.2671 34.4378C14.8744 35.118 14.0047 35.351 13.3246 34.9583C12.6444 34.5656 12.4113 33.6959 12.804 33.0157L17.5194 24.8484C15.0217 22.9556 13.4083 19.9569 13.4083 16.5813C13.4083 10.8561 18.0495 6.21484 23.7747 6.21484C29.4999 6.21484 34.1411 10.8561 34.1411 16.5813C34.1411 22.3065 29.4999 26.9477 23.7747 26.9477ZM15.1077 16.5817C15.1077 21.3683 18.9881 25.2487 23.7747 25.2487C28.5614 25.2487 32.4417 21.3683 32.4417 16.5817C32.4417 11.795 28.5614 7.91466 23.7747 7.91466C18.9881 7.91466 15.1077 11.795 15.1077 16.5817Z" fill="black"/>
<path d="M29.1158 13.1848C28.8451 12.9183 28.4086 12.9253 28.1466 13.2004L22.3222 19.3164C22.1944 19.4506 21.9826 19.4577 21.8461 19.3323L19.7271 17.3855C19.4608 17.1408 19.0494 17.1475 18.7912 17.4008L18.6924 17.4977C18.4163 17.7686 18.4215 18.215 18.704 18.4793L21.6021 21.1913C21.8737 21.4454 22.2991 21.4341 22.5568 21.1658L29.2202 14.2299C29.4781 13.9615 29.4721 13.5356 29.2069 13.2745L29.1158 13.1848Z" fill="#EC6B06"/>
</svg>
