<svg width="76" height="100" viewBox="0 0 76 100" fill="none" xmlns="http://www.w3.org/2000/svg">
<path d="M30.9234 53.0053C31.4633 53.5452 31.4633 54.4205 30.9234 54.9604L22.5633 63.3204L22.5633 81.5667H19.7984L19.7984 66.0854L15.0319 70.8518C14.492 71.3917 13.6167 71.3917 13.0768 70.8518C12.5369 70.3119 12.5369 69.4366 13.0768 68.8967L28.9682 53.0053C29.5081 52.4654 30.3835 52.4654 30.9234 53.0053Z" fill="black"/>
<path d="M65.9464 53.0053C66.4863 53.5452 66.4863 54.4205 65.9464 54.9604L57.5864 63.3204V81.5667H54.8214V66.0854L50.055 70.8518C49.5151 71.3917 48.6397 71.3917 48.0998 70.8518C47.5599 70.3119 47.5599 69.4366 48.0998 68.8967L63.9913 53.0053C64.5312 52.4654 65.4065 52.4654 65.9464 53.0053Z" fill="black"/>
<path d="M50.076 81.5668C50.0284 81.5227 49.978 81.4805 49.9247 81.4402C46.7047 79.0058 42.8083 77.6022 38.753 77.436C38.9088 74.3202 39.5709 72.2358 40.3216 70.7373C40.952 71.0882 41.6322 71.2111 42.4718 71.2111C43.5005 71.2111 44.5359 70.9208 45.2073 70.274C46.817 68.7225 47.0037 65.6861 47.0037 63.5369C47.0037 63.3142 46.8162 63.1336 46.5851 63.1336C44.3552 63.1336 41.2036 63.3134 39.5932 64.8633C38.598 65.8221 38.5 67.4174 38.7185 68.4923C38.752 68.656 38.8858 68.7826 39.0566 68.8116C39.2248 68.8423 39.3982 68.7656 39.4877 68.6229C40.4866 67.0272 41.6123 66.2842 42.2193 65.8836L42.2232 65.881L42.2978 65.8327C42.3882 65.7746 42.4592 65.7263 42.5037 65.6884C42.6854 65.5142 42.9515 65.5142 43.1148 65.6707C43.278 65.828 43.278 66.0835 43.1148 66.2408C43.0162 66.3357 42.7801 66.4914 42.698 66.5455L42.6954 66.5473C42.2667 66.8294 41.5251 67.3287 40.7709 68.2706C39.7287 69.4506 38.6254 71.3723 38.1029 74.6369C37.3861 72.0299 35.8084 69.4944 32.5991 68.0411C32.5942 68.0387 32.5874 68.0395 32.5816 68.0371C32.5723 68.033 32.5635 68.028 32.5546 68.023C32.5476 68.0189 32.5405 68.0149 32.5331 68.0113C32.2384 67.8774 32.2099 67.6395 32.2986 67.4589C32.3414 67.371 32.4233 67.3024 32.528 67.2661C32.647 67.2258 32.7776 67.2299 32.888 67.2807C34.1906 67.8701 35.3039 68.6839 36.1995 69.6992C36.3101 69.8242 36.4875 69.8717 36.6491 69.821C36.8115 69.7694 36.9244 69.6299 36.9362 69.4662C37.0266 68.2267 36.6784 67.1315 35.9811 66.4597C34.3707 64.9089 31.2189 64.729 28.9881 64.729C28.7563 64.729 28.5698 64.9085 28.5705 65.1311C28.5705 67.2805 28.7563 70.3166 30.3669 71.8682C30.9921 72.4714 31.9858 72.811 33.11 72.811C33.1644 72.811 33.2189 72.8102 33.2741 72.8085C34.3806 72.7764 35.1332 72.6658 35.7133 72.1198C36.8493 73.8163 37.3377 75.6541 37.4952 77.4243C33.318 77.5174 29.2914 78.9241 25.9776 81.4211C25.9166 81.4671 25.8592 81.5158 25.8055 81.5668H50.076Z" fill="black"/>
<path fill-rule="evenodd" clip-rule="evenodd" d="M38.248 5.53003C39.0115 5.53003 39.6305 6.14899 39.6305 6.91252V19.3549C39.6305 19.467 39.6171 19.5759 39.592 19.6802C41.2094 19.9106 42.6949 20.5506 43.9399 21.4919C44.0054 21.3573 44.0941 21.231 44.2059 21.1192L47.9626 17.3626C48.5025 16.8227 49.3778 16.8227 49.9177 17.3626C50.4576 17.9025 50.4576 18.7778 49.9177 19.3177L46.1611 23.0743C46.0492 23.1862 45.923 23.2748 45.7883 23.3403C46.7222 24.5755 47.3595 26.0473 47.5945 27.6498H58.9853C59.7488 27.6498 60.3678 28.2688 60.3678 29.0323C60.3678 29.7959 59.7488 30.4148 58.9853 30.4148H47.5945C47.3634 31.9911 46.743 33.4408 45.8341 34.6633L50.1019 38.9311C50.6418 39.471 50.6418 40.3464 50.1019 40.8863C49.562 41.4262 48.6867 41.4262 48.1468 40.8863L43.879 36.6184C42.6565 37.5274 41.2067 38.1478 39.6305 38.3789V50.6913C39.6305 51.4548 39.0115 52.0738 38.248 52.0738C37.4844 52.0738 36.8655 51.4548 36.8655 50.6913V38.3789C35.4891 38.1771 34.2091 37.6784 33.0927 36.9501C33.0771 36.9673 33.0609 36.9843 33.0443 37.001L24.0182 46.0271C23.4783 46.567 22.6029 46.567 22.063 46.0271C21.5231 45.4872 21.5231 44.6119 22.063 44.072L31.0197 35.1153C29.9078 33.7954 29.1508 32.1667 28.8958 30.3763C28.7915 30.4015 28.6826 30.4148 28.5705 30.4148H14.2848C13.5213 30.4148 12.9023 29.7959 12.9023 29.0323C12.9023 28.2688 13.5213 27.6498 14.2848 27.6498H28.5705C28.6826 27.6498 28.7915 27.6632 28.8958 27.6883C29.1062 26.2112 29.6583 24.8442 30.4694 23.6698L24.9398 18.1402C24.3999 17.6003 24.3999 16.7249 24.9398 16.185C25.4797 15.6451 26.355 15.6451 26.8949 16.185L32.3567 21.6468C33.6412 20.6209 35.1993 19.923 36.904 19.6802C36.8788 19.5759 36.8655 19.467 36.8655 19.3549V6.91252C36.8655 6.14899 37.4844 5.53003 38.248 5.53003ZM38.248 21.8895C34.3031 21.8895 31.1051 25.0874 31.1051 29.0323C31.1051 32.9772 34.3031 36.1752 38.248 36.1752C42.1929 36.1752 45.3908 32.9772 45.3908 29.0323C45.3908 25.0874 42.1929 21.8895 38.248 21.8895Z" fill="#EC6B06"/>
</svg>
