<svg width="76" height="100" viewBox="0 0 76 100" fill="none" xmlns="http://www.w3.org/2000/svg">
<path fill-rule="evenodd" clip-rule="evenodd" d="M21.659 14.5162C21.659 11.0803 24.4443 8.29501 27.8802 8.29501C31.3161 8.29501 34.1014 11.0803 34.1014 14.5162C34.1014 17.9521 31.3161 20.7374 27.8802 20.7374H4.37788C3.61435 20.7374 2.99539 21.3564 2.99539 22.1199C2.99539 22.8834 3.61435 23.5024 4.37788 23.5024H27.8802C32.8431 23.5024 36.8664 19.4791 36.8664 14.5162C36.8664 9.55328 32.8431 5.53003 27.8802 5.53003C22.9173 5.53003 18.894 9.55328 18.894 14.5162C18.894 15.2797 19.513 15.8987 20.2765 15.8987C21.04 15.8987 21.659 15.2797 21.659 14.5162ZM1.38249 26.2674C0.618961 26.2674 0 26.8863 0 27.6498C0 28.4134 0.618962 29.0323 1.38249 29.0323H21.1982C21.9617 29.0323 22.5806 28.4134 22.5806 27.6498C22.5806 26.8863 21.9617 26.2674 21.1982 26.2674H1.38249Z" fill="#EC6B06"/>
<path fill-rule="evenodd" clip-rule="evenodd" d="M46.8673 7.37166C46.8363 6.85488 46.4082 6.45166 45.8904 6.45166C45.3727 6.45166 44.9446 6.85488 44.9136 7.37167L43.6634 28.2074L26.2442 39.7079C25.8122 39.9932 25.6771 40.5655 25.9359 41.0139C26.1948 41.4622 26.758 41.6314 27.2211 41.3999L45.8904 32.0647L64.5597 41.3999C65.0228 41.6314 65.5861 41.4623 65.8449 41.0139C66.1038 40.5656 65.9686 39.9932 65.5366 39.7079L48.1174 28.2074L46.8673 7.37166ZM47.4637 37.3272C47.4637 36.5637 46.8447 35.9447 46.0812 35.9447C45.3177 35.9447 44.6987 36.5637 44.6987 37.3272L44.6987 82.0277H47.4637L47.4637 37.3272Z" fill="black"/>
</svg>
