<svg width="32" height="53" viewBox="0 0 32 53" fill="none" xmlns="http://www.w3.org/2000/svg">
<rect x="6.57918" y="1.62899" width="24.5841" height="33.1312" rx="0.813559" fill="white" stroke="black" stroke-width="1.62712"/>
<path fill-rule="evenodd" clip-rule="evenodd" d="M10.2388 8.95117C10.0142 8.95117 9.83203 9.13329 9.83203 9.35795V9.76473C9.83203 9.98939 10.0142 10.1715 10.2388 10.1715H27.6591C27.8838 10.1715 28.0659 9.98939 28.0659 9.76473V9.35795C28.0659 9.13329 27.8838 8.95117 27.6591 8.95117H10.2388ZM10.2388 13.3681C10.0142 13.3681 9.83203 13.5503 9.83203 13.7749V14.1817C9.83203 14.4064 10.0142 14.5885 10.2388 14.5885H27.6591C27.8838 14.5885 28.0659 14.4064 28.0659 14.1817V13.7749C28.0659 13.5503 27.8838 13.3681 27.6591 13.3681H10.2388ZM9.83203 18.1919C9.83203 17.9672 10.0142 17.7851 10.2388 17.7851H27.6591C27.8838 17.7851 28.0659 17.9672 28.0659 18.1919V18.5987C28.0659 18.8233 27.8838 19.0055 27.6591 19.0055H10.2388C10.0142 19.0055 9.83203 18.8233 9.83203 18.5987V18.1919ZM10.2388 22.2021C10.0142 22.2021 9.83203 22.3842 9.83203 22.6089V23.0157C9.83203 23.2403 10.0142 23.4224 10.2388 23.4224H14.7104C14.9351 23.4224 15.1172 23.2403 15.1172 23.0157V22.6089C15.1172 22.3842 14.9351 22.2021 14.7104 22.2021H10.2388Z" fill="black"/>
<path d="M27.6193 25.2179C27.4134 25.0132 27.0793 25.0186 26.8801 25.2298L23.0091 29.3345C22.8558 29.497 22.6002 29.5055 22.4365 29.3536L21.1362 28.1472C20.9318 27.9576 20.6143 27.9628 20.4162 28.159V28.159C20.2074 28.366 20.2114 28.7047 20.4251 28.9067L22.1429 30.53C22.4687 30.8379 22.9822 30.8242 23.2911 30.4994L27.6293 25.9394C27.8227 25.7362 27.8182 25.4157 27.6193 25.2179V25.2179Z" fill="#EC6B06"/>
<mask id="path-4-inside-1_623_9099" fill="white">
<path fill-rule="evenodd" clip-rule="evenodd" d="M4.55846 38.7559H0V51.3739C0 52.2726 0.728485 53.0011 1.62712 53.0011H2.93135C3.82998 53.0011 4.55846 52.2726 4.55846 51.3739V38.7559ZM18.7302 38.7559H5.98252V48.8999C5.98252 48.8999 8.92547 50.4369 14.7529 50.4369C20.2058 50.4369 26.5263 45.5024 28.7366 43.7768C28.8884 43.6583 29.0208 43.5549 29.1323 43.4693C30.8659 42.1372 31.3758 40.9076 30.8659 40.1904C30.1482 39.1807 28.3164 39.4731 28.3164 39.4731L23.1154 41.215C23.1154 41.215 21.7767 44.4939 19.3421 44.4939H11.2855C11.2855 44.4939 11.4943 42.4446 14.7529 42.4446H18.7302C21.5741 42.4446 21.0966 38.7559 18.7302 38.7559Z"/>
</mask>
<path fill-rule="evenodd" clip-rule="evenodd" d="M4.55846 38.7559H0V51.3739C0 52.2726 0.728485 53.0011 1.62712 53.0011H2.93135C3.82998 53.0011 4.55846 52.2726 4.55846 51.3739V38.7559ZM18.7302 38.7559H5.98252V48.8999C5.98252 48.8999 8.92547 50.4369 14.7529 50.4369C20.2058 50.4369 26.5263 45.5024 28.7366 43.7768C28.8884 43.6583 29.0208 43.5549 29.1323 43.4693C30.8659 42.1372 31.3758 40.9076 30.8659 40.1904C30.1482 39.1807 28.3164 39.4731 28.3164 39.4731L23.1154 41.215C23.1154 41.215 21.7767 44.4939 19.3421 44.4939H11.2855C11.2855 44.4939 11.4943 42.4446 14.7529 42.4446H18.7302C21.5741 42.4446 21.0966 38.7559 18.7302 38.7559Z" fill="#EC6B06"/>
<path d="M0 38.7559V37.5355H-1.22034V38.7559H0ZM4.55846 38.7559H5.7788V37.5355H4.55846V38.7559ZM5.98252 38.7559V37.5355H4.76218V38.7559H5.98252ZM5.98252 48.8999H4.76218V49.6394L5.41759 49.9816L5.98252 48.8999ZM28.7366 43.7768L29.4876 44.7387L29.4876 44.7387L28.7366 43.7768ZM29.1323 43.4693L28.3887 42.5016L28.3887 42.5016L29.1323 43.4693ZM30.8659 40.1904L29.8713 40.8975L29.8713 40.8975L30.8659 40.1904ZM28.3164 39.4731L28.124 38.268L28.0245 38.2839L27.9289 38.316L28.3164 39.4731ZM23.1154 41.215L22.7278 40.0579L22.1971 40.2356L21.9856 40.7538L23.1154 41.215ZM11.2855 44.4939L10.0715 44.3702L9.93457 45.7143H11.2855V44.4939ZM0 39.9762H4.55846V37.5355H0V39.9762ZM1.22034 51.3739V38.7559H-1.22034V51.3739H1.22034ZM1.62712 51.7807C1.40246 51.7807 1.22034 51.5986 1.22034 51.3739H-1.22034C-1.22034 52.9465 0.0545098 54.2214 1.62712 54.2214V51.7807ZM2.93135 51.7807H1.62712V54.2214H2.93135V51.7807ZM3.33813 51.3739C3.33813 51.5986 3.156 51.7807 2.93135 51.7807V54.2214C4.50395 54.2214 5.7788 52.9466 5.7788 51.3739H3.33813ZM3.33813 38.7559V51.3739H5.7788V38.7559H3.33813ZM5.98252 39.9762H18.7302V37.5355H5.98252V39.9762ZM7.20286 48.8999V38.7559H4.76218V48.8999H7.20286ZM14.7529 49.2166C11.9477 49.2166 9.8592 48.8468 8.49219 48.4881C7.80824 48.3086 7.30373 48.1315 6.97945 48.0042C6.81728 47.9405 6.70013 47.8892 6.62809 47.8563C6.59208 47.8398 6.56734 47.8279 6.55389 47.8213C6.54717 47.818 6.54327 47.8161 6.5422 47.8155C6.54166 47.8152 6.54183 47.8153 6.5427 47.8158C6.54314 47.816 6.54376 47.8163 6.54455 47.8167C6.54494 47.8169 6.54538 47.8172 6.54587 47.8174C6.54611 47.8175 6.54651 47.8177 6.54663 47.8178C6.54703 47.818 6.54745 47.8182 5.98252 48.8999C5.41759 49.9816 5.41803 49.9819 5.41848 49.9821C5.41865 49.9822 5.41911 49.9824 5.41944 49.9826C5.42011 49.983 5.42082 49.9833 5.42157 49.9837C5.42308 49.9845 5.42477 49.9854 5.42665 49.9863C5.4304 49.9883 5.43488 49.9906 5.44009 49.9932C5.4505 49.9985 5.46384 50.0051 5.48009 50.0131C5.5126 50.029 5.55678 50.0501 5.61262 50.0757C5.72429 50.1268 5.88259 50.1956 6.08737 50.276C6.497 50.4368 7.09244 50.644 7.87266 50.8488C9.43398 51.2585 11.7306 51.6573 14.7529 51.6573V49.2166ZM27.9856 42.8149C26.8822 43.6764 24.81 45.2926 22.3556 46.6943C19.8706 48.1133 17.1548 49.2166 14.7529 49.2166V51.6573C17.8039 51.6573 20.9748 50.2933 23.5659 48.8137C26.1874 47.3167 28.3807 45.6029 29.4876 44.7387L27.9856 42.8149ZM28.3887 42.5016C28.2728 42.5907 28.1362 42.6973 27.9856 42.8149L29.4876 44.7387C29.6406 44.6192 29.7689 44.5191 29.8758 44.437L28.3887 42.5016ZM29.8713 40.8975C29.7726 40.7586 29.911 40.7279 29.7479 41.0556C29.581 41.3909 29.1759 41.8968 28.3887 42.5016L29.8758 44.437C30.8223 43.7097 31.539 42.9347 31.933 42.143C32.3308 41.3435 32.4692 40.3394 31.8606 39.4833L29.8713 40.8975ZM28.3164 39.4731C28.5088 40.6782 28.5084 40.6783 28.5081 40.6783C28.508 40.6783 28.5077 40.6784 28.5074 40.6784C28.507 40.6785 28.5066 40.6785 28.5063 40.6786C28.5055 40.6787 28.5049 40.6788 28.5044 40.6789C28.5033 40.6791 28.5027 40.6791 28.5025 40.6792C28.502 40.6793 28.5031 40.6791 28.5057 40.6787C28.5109 40.678 28.522 40.6765 28.5383 40.6746C28.5711 40.6708 28.6239 40.6654 28.6913 40.6611C28.8292 40.6523 29.0126 40.6492 29.2042 40.6678C29.6566 40.7116 29.8303 40.8397 29.8713 40.8975L31.8606 39.4833C31.1838 38.5314 30.0827 38.3008 29.4398 38.2385C29.0838 38.204 28.7644 38.2108 28.5364 38.2253C28.4208 38.2327 28.3249 38.2422 28.2547 38.2505C28.2195 38.2546 28.1906 38.2584 28.1686 38.2614C28.1576 38.263 28.1484 38.2643 28.1409 38.2654C28.1372 38.266 28.1339 38.2665 28.1311 38.2669C28.1297 38.2671 28.1284 38.2673 28.1272 38.2675C28.1266 38.2676 28.1261 38.2677 28.1255 38.2678C28.1253 38.2678 28.1249 38.2679 28.1248 38.2679C28.1244 38.268 28.124 38.268 28.3164 39.4731ZM23.5029 42.3722L28.704 40.6303L27.9289 38.316L22.7278 40.0579L23.5029 42.3722ZM19.3421 45.7143C21.1349 45.7143 22.3932 44.5167 23.1042 43.6047C23.4788 43.1242 23.7592 42.6507 23.9455 42.3005C24.0394 42.124 24.1114 41.975 24.1612 41.8671C24.1861 41.8131 24.2056 41.7691 24.2196 41.7368C24.2266 41.7206 24.2322 41.7074 24.2365 41.6972C24.2386 41.6921 24.2404 41.6878 24.2419 41.6844C24.2426 41.6826 24.2432 41.6811 24.2438 41.6797C24.244 41.679 24.2443 41.6784 24.2445 41.6778C24.2447 41.6776 24.2448 41.6772 24.2449 41.677C24.245 41.6767 24.2452 41.6763 23.1154 41.215C21.9856 40.7538 21.9857 40.7534 21.9858 40.7531C21.9859 40.753 21.986 40.7527 21.9861 40.7525C21.9862 40.7521 21.9864 40.7518 21.9865 40.7515C21.9867 40.751 21.9868 40.7506 21.9869 40.7505C21.9871 40.7501 21.9869 40.7505 21.9864 40.7517C21.9855 40.7539 21.9833 40.7591 21.9799 40.7669C21.9731 40.7827 21.9614 40.8091 21.945 40.8447C21.912 40.9162 21.8604 41.0233 21.7908 41.1542C21.65 41.4189 21.4437 41.765 21.1792 42.1042C20.6122 42.8317 19.9838 43.2736 19.3421 43.2736V45.7143ZM11.2855 45.7143H19.3421V43.2736H11.2855V45.7143ZM14.7529 41.2243C12.8466 41.2243 11.6226 41.8364 10.8888 42.6545C10.5381 43.0455 10.3373 43.4429 10.2234 43.7534C10.1665 43.9086 10.1305 44.0438 10.1079 44.1488C10.0966 44.2015 10.0885 44.247 10.0827 44.2841C10.0798 44.3027 10.0775 44.3193 10.0757 44.3337C10.0748 44.3409 10.074 44.3475 10.0733 44.3536C10.0729 44.3567 10.0726 44.3596 10.0723 44.3624C10.0722 44.3637 10.072 44.3651 10.0719 44.3664C10.0718 44.3671 10.0717 44.368 10.0717 44.3684C10.0716 44.3693 10.0715 44.3702 11.2855 44.4939C12.4996 44.6176 12.4995 44.6185 12.4994 44.6195C12.4994 44.6198 12.4993 44.6207 12.4992 44.6213C12.4991 44.6224 12.499 44.6236 12.4988 44.6247C12.4986 44.627 12.4984 44.6292 12.4981 44.6313C12.4977 44.6354 12.4972 44.6391 12.4968 44.6424C12.4959 44.649 12.4952 44.6541 12.4946 44.6577C12.4935 44.6648 12.4931 44.6663 12.4938 44.6629C12.4954 44.6558 12.5012 44.6309 12.5147 44.5941C12.5418 44.5203 12.5969 44.4054 12.7057 44.2841C12.891 44.0775 13.4006 43.665 14.7529 43.665V41.2243ZM18.7302 41.2243H14.7529V43.665H18.7302V41.2243ZM18.7302 39.9762C18.9815 39.9762 19.1403 40.0655 19.2495 40.1788C19.3739 40.3079 19.4542 40.4933 19.4663 40.679C19.4781 40.8611 19.4232 40.9784 19.3647 41.042C19.3193 41.0913 19.1667 41.2243 18.7302 41.2243V43.665C19.7156 43.665 20.5698 43.3368 21.1608 42.6945C21.7387 42.0664 21.9498 41.2616 21.9019 40.5214C21.8082 39.0738 20.6675 37.5355 18.7302 37.5355V39.9762Z" fill="#EC6B06" mask="url(#path-4-inside-1_623_9099)"/>
</svg>
