<svg width="33" height="53" viewBox="0 0 33 53" fill="none" xmlns="http://www.w3.org/2000/svg">
<mask id="path-1-inside-1_623_9102" fill="white">
<path fill-rule="evenodd" clip-rule="evenodd" d="M4.55846 38.708H0V51.3261C0 52.2247 0.728485 52.9532 1.62712 52.9532H2.93135C3.82998 52.9532 4.55846 52.2247 4.55846 51.3261V38.708ZM18.7302 38.708H5.98252V48.8521C5.98252 48.8521 8.92547 50.3891 14.7529 50.3891C20.2058 50.3891 26.5263 45.4546 28.7366 43.7289C28.8884 43.6104 29.0208 43.507 29.1323 43.4214C30.8659 42.0894 31.3758 40.8598 30.8659 40.1425C30.1482 39.1329 28.3164 39.4253 28.3164 39.4253L23.1154 41.1672C23.1154 41.1672 21.7767 44.4461 19.3421 44.4461H11.2855C11.2855 44.4461 11.4943 42.3968 14.7529 42.3968H18.7302C21.5741 42.3968 21.0966 38.708 18.7302 38.708Z"/>
</mask>
<path fill-rule="evenodd" clip-rule="evenodd" d="M4.55846 38.708H0V51.3261C0 52.2247 0.728485 52.9532 1.62712 52.9532H2.93135C3.82998 52.9532 4.55846 52.2247 4.55846 51.3261V38.708ZM18.7302 38.708H5.98252V48.8521C5.98252 48.8521 8.92547 50.3891 14.7529 50.3891C20.2058 50.3891 26.5263 45.4546 28.7366 43.7289C28.8884 43.6104 29.0208 43.507 29.1323 43.4214C30.8659 42.0894 31.3758 40.8598 30.8659 40.1425C30.1482 39.1329 28.3164 39.4253 28.3164 39.4253L23.1154 41.1672C23.1154 41.1672 21.7767 44.4461 19.3421 44.4461H11.2855C11.2855 44.4461 11.4943 42.3968 14.7529 42.3968H18.7302C21.5741 42.3968 21.0966 38.708 18.7302 38.708Z" fill="#EC6B06"/>
<path d="M0 38.708V37.4877H-1.22034V38.708H0ZM4.55846 38.708H5.7788V37.4877H4.55846V38.708ZM5.98252 38.708V37.4877H4.76218V38.708H5.98252ZM5.98252 48.8521H4.76218V49.5915L5.41759 49.9338L5.98252 48.8521ZM28.7366 43.7289L29.4876 44.6908L29.4876 44.6908L28.7366 43.7289ZM29.1323 43.4214L28.3887 42.4537L28.3887 42.4537L29.1323 43.4214ZM30.8659 40.1425L29.8713 40.8496L29.8713 40.8496L30.8659 40.1425ZM28.3164 39.4253L28.124 38.2202L28.0245 38.2361L27.9289 38.2681L28.3164 39.4253ZM23.1154 41.1672L22.7278 40.01L22.1971 40.1878L21.9856 40.7059L23.1154 41.1672ZM11.2855 44.4461L10.0715 44.3224L9.93457 45.6664H11.2855V44.4461ZM0 39.9283H4.55846V37.4877H0V39.9283ZM1.22034 51.3261V38.708H-1.22034V51.3261H1.22034ZM1.62712 51.7329C1.40246 51.7329 1.22034 51.5507 1.22034 51.3261H-1.22034C-1.22034 52.8987 0.0545098 54.1735 1.62712 54.1735V51.7329ZM2.93135 51.7329H1.62712V54.1735H2.93135V51.7329ZM3.33813 51.3261C3.33813 51.5507 3.156 51.7329 2.93135 51.7329V54.1735C4.50395 54.1735 5.7788 52.8987 5.7788 51.3261H3.33813ZM3.33813 38.708V51.3261H5.7788V38.708H3.33813ZM5.98252 39.9283H18.7302V37.4877H5.98252V39.9283ZM7.20286 48.8521V38.708H4.76218V48.8521H7.20286ZM14.7529 49.1687C11.9477 49.1687 9.8592 48.799 8.49219 48.4402C7.80824 48.2607 7.30373 48.0837 6.97945 47.9563C6.81728 47.8927 6.70013 47.8414 6.62809 47.8084C6.59208 47.792 6.56734 47.7801 6.55389 47.7735C6.54717 47.7702 6.54327 47.7682 6.5422 47.7677C6.54166 47.7674 6.54183 47.7675 6.5427 47.7679C6.54314 47.7682 6.54376 47.7685 6.54455 47.7689C6.54494 47.7691 6.54538 47.7693 6.54587 47.7696C6.54611 47.7697 6.54651 47.7699 6.54663 47.77C6.54703 47.7702 6.54745 47.7704 5.98252 48.8521C5.41759 49.9338 5.41803 49.934 5.41848 49.9343C5.41865 49.9343 5.41911 49.9346 5.41944 49.9348C5.42011 49.9351 5.42082 49.9355 5.42157 49.9359C5.42308 49.9366 5.42477 49.9375 5.42665 49.9385C5.4304 49.9404 5.43488 49.9427 5.44009 49.9453C5.4505 49.9506 5.46384 49.9573 5.48009 49.9652C5.5126 49.9812 5.55678 50.0023 5.61262 50.0278C5.72429 50.0789 5.88259 50.1477 6.08737 50.2281C6.497 50.389 7.09244 50.5962 7.87266 50.801C9.43398 51.2107 11.7306 51.6094 14.7529 51.6094V49.1687ZM27.9856 42.767C26.8822 43.6285 24.81 45.2448 22.3556 46.6464C19.8706 48.0654 17.1548 49.1687 14.7529 49.1687V51.6094C17.8039 51.6094 20.9748 50.2455 23.5659 48.7659C26.1874 47.2688 28.3807 45.555 29.4876 44.6908L27.9856 42.767ZM28.3887 42.4537C28.2728 42.5428 28.1362 42.6495 27.9856 42.767L29.4876 44.6908C29.6406 44.5714 29.7689 44.4712 29.8758 44.3891L28.3887 42.4537ZM29.8713 40.8496C29.7726 40.7107 29.911 40.6801 29.7479 41.0077C29.581 41.3431 29.1759 41.8489 28.3887 42.4537L29.8758 44.3891C30.8223 43.6618 31.539 42.8869 31.933 42.0951C32.3308 41.2957 32.4692 40.2916 31.8606 39.4354L29.8713 40.8496ZM28.3164 39.4253C28.5088 40.6303 28.5084 40.6304 28.5081 40.6305C28.508 40.6305 28.5077 40.6305 28.5074 40.6306C28.507 40.6306 28.5066 40.6307 28.5063 40.6307C28.5055 40.6309 28.5049 40.631 28.5044 40.631C28.5033 40.6312 28.5027 40.6313 28.5025 40.6313C28.502 40.6314 28.5031 40.6312 28.5057 40.6309C28.5109 40.6301 28.522 40.6287 28.5383 40.6267C28.5711 40.6229 28.6239 40.6175 28.6913 40.6132C28.8292 40.6045 29.0126 40.6013 29.2042 40.6199C29.6566 40.6638 29.8303 40.7919 29.8713 40.8496L31.8606 39.4354C31.1838 38.4835 30.0827 38.253 29.4398 38.1906C29.0838 38.1561 28.7644 38.163 28.5364 38.1775C28.4208 38.1848 28.3249 38.1944 28.2547 38.2026C28.2195 38.2067 28.1906 38.2105 28.1686 38.2136C28.1576 38.2151 28.1484 38.2165 28.1409 38.2176C28.1372 38.2181 28.1339 38.2186 28.1311 38.2191C28.1297 38.2193 28.1284 38.2195 28.1272 38.2197C28.1266 38.2198 28.1261 38.2199 28.1255 38.2199C28.1253 38.22 28.1249 38.22 28.1248 38.2201C28.1244 38.2201 28.124 38.2202 28.3164 39.4253ZM23.5029 42.3243L28.704 40.5824L27.9289 38.2681L22.7278 40.01L23.5029 42.3243ZM19.3421 45.6664C21.1349 45.6664 22.3932 44.4689 23.1042 43.5569C23.4788 43.0764 23.7592 42.6028 23.9455 42.2527C24.0394 42.0761 24.1114 41.9271 24.1612 41.8192C24.1861 41.7652 24.2056 41.7212 24.2196 41.6889C24.2266 41.6728 24.2322 41.6595 24.2365 41.6494C24.2386 41.6443 24.2404 41.64 24.2419 41.6365C24.2426 41.6348 24.2432 41.6332 24.2438 41.6319C24.244 41.6312 24.2443 41.6306 24.2445 41.63C24.2447 41.6297 24.2448 41.6293 24.2449 41.6292C24.245 41.6288 24.2452 41.6284 23.1154 41.1672C21.9856 40.7059 21.9857 40.7056 21.9858 40.7053C21.9859 40.7052 21.986 40.7049 21.9861 40.7047C21.9862 40.7043 21.9864 40.704 21.9865 40.7037C21.9867 40.7031 21.9868 40.7028 21.9869 40.7026C21.9871 40.7023 21.9869 40.7027 21.9864 40.7038C21.9855 40.7061 21.9833 40.7112 21.9799 40.7191C21.9731 40.7348 21.9614 40.7613 21.945 40.7969C21.912 40.8683 21.8604 40.9755 21.7908 41.1063C21.65 41.371 21.4437 41.7172 21.1792 42.0564C20.6122 42.7838 19.9838 43.2257 19.3421 43.2257V45.6664ZM11.2855 45.6664H19.3421V43.2257H11.2855V45.6664ZM14.7529 41.1764C12.8466 41.1764 11.6226 41.7885 10.8888 42.6066C10.5381 42.9976 10.3373 43.395 10.2234 43.7055C10.1665 43.8608 10.1305 43.996 10.1079 44.101C10.0966 44.1536 10.0885 44.1991 10.0827 44.2363C10.0798 44.2549 10.0775 44.2714 10.0757 44.2858C10.0748 44.293 10.074 44.2997 10.0733 44.3058C10.0729 44.3088 10.0726 44.3117 10.0723 44.3145C10.0722 44.3159 10.072 44.3172 10.0719 44.3186C10.0718 44.3192 10.0717 44.3202 10.0717 44.3205C10.0716 44.3215 10.0715 44.3224 11.2855 44.4461C12.4996 44.5698 12.4995 44.5707 12.4994 44.5716C12.4994 44.5719 12.4993 44.5728 12.4992 44.5734C12.4991 44.5746 12.499 44.5758 12.4988 44.5769C12.4986 44.5792 12.4984 44.5813 12.4981 44.5834C12.4977 44.5875 12.4972 44.5912 12.4968 44.5946C12.4959 44.6012 12.4952 44.6062 12.4946 44.6098C12.4935 44.617 12.4931 44.6184 12.4938 44.615C12.4954 44.608 12.5012 44.5831 12.5147 44.5462C12.5418 44.4725 12.5969 44.3575 12.7057 44.2362C12.891 44.0297 13.4006 43.6171 14.7529 43.6171V41.1764ZM18.7302 41.1764H14.7529V43.6171H18.7302V41.1764ZM18.7302 39.9283C18.9815 39.9283 19.1403 40.0176 19.2495 40.131C19.3739 40.26 19.4542 40.4454 19.4663 40.6312C19.4781 40.8132 19.4232 40.9306 19.3647 40.9941C19.3193 41.0435 19.1667 41.1764 18.7302 41.1764V43.6171C19.7156 43.6171 20.5698 43.289 21.1608 42.6467C21.7387 42.0186 21.9498 41.2138 21.9019 40.4736C21.8082 39.026 20.6675 37.4877 18.7302 37.4877V39.9283Z" fill="#EC6B06" mask="url(#path-1-inside-1_623_9102)"/>
<rect x="6.91512" y="1.34676" width="24.5841" height="33.1312" rx="0.813559" fill="white" stroke="black" stroke-width="1.62712"/>
<path fill-rule="evenodd" clip-rule="evenodd" d="M28.111 7.19695C27.9052 6.99227 27.571 6.99765 27.3718 7.20885L23.5008 11.3136C23.3476 11.4761 23.092 11.4846 22.9282 11.3327L21.6279 10.1263C21.4236 9.93671 21.106 9.94191 20.908 10.1381C20.6991 10.3451 20.7031 10.6838 20.9168 10.8858L22.6347 12.5091C22.9605 12.8169 23.4739 12.8033 23.7829 12.4785L28.1211 7.91852C28.3144 7.71526 28.31 7.39475 28.111 7.19695ZM28.111 15.7393C27.9052 15.5346 27.571 15.54 27.3718 15.7512L23.5008 19.856C23.3476 20.0185 23.092 20.027 22.9282 19.8751L21.6279 18.6687C21.4236 18.4791 21.106 18.4843 20.908 18.6805C20.6991 18.8874 20.7031 19.2262 20.9168 19.4282L22.6347 21.0515C22.9605 21.3593 23.4739 21.3457 23.7829 21.0209L28.1211 16.4609C28.3144 16.2576 28.31 15.9371 28.111 15.7393ZM27.3718 24.2936C27.571 24.0824 27.9052 24.077 28.111 24.2817C28.31 24.4795 28.3144 24.8 28.1211 25.0033L23.7829 29.5633C23.4739 29.888 22.9605 29.9017 22.6347 29.5938L20.9168 27.9705C20.7031 27.7686 20.6991 27.4298 20.908 27.2229C21.106 27.0267 21.4236 27.0215 21.6279 27.2111L22.9282 28.4175C23.092 28.5694 23.3476 28.5608 23.5008 28.3983L27.3718 24.2936Z" fill="#EC6B06"/>
<path fill-rule="evenodd" clip-rule="evenodd" d="M10.5761 6.43146C10.5761 6.09447 10.8493 5.82129 11.1862 5.82129H17.6947C18.0317 5.82129 18.3049 6.09447 18.3049 6.43146C18.3049 6.76845 18.0317 7.04163 17.6947 7.04163H11.1862C10.8493 7.04163 10.5761 6.76845 10.5761 6.43146ZM10.5742 14.9743C10.5742 14.6373 10.8474 14.3641 11.1844 14.3641H17.6929C18.0299 14.3641 18.303 14.6373 18.303 14.9743C18.303 15.3112 18.0298 15.5844 17.6929 15.5844H11.1844C10.8474 15.5844 10.5742 15.3112 10.5742 14.9743ZM10.5742 17.8217C10.5742 17.4847 10.8474 17.2115 11.1844 17.2115H17.6929C18.0299 17.2115 18.303 17.4847 18.303 17.8217C18.303 18.1587 18.0298 18.4319 17.6929 18.4319H11.1844C10.8474 18.4319 10.5742 18.1587 10.5742 17.8217ZM11.1844 20.059C10.8474 20.059 10.5742 20.3322 10.5742 20.6692C10.5742 21.0062 10.8474 21.2793 11.1844 21.2793H17.6929C18.0298 21.2793 18.303 21.0062 18.303 20.6692C18.303 20.3322 18.0299 20.059 17.6929 20.059H11.1844ZM11.1844 22.9059C10.8474 22.9059 10.5742 23.1791 10.5742 23.516C10.5742 23.853 10.8474 24.1262 11.1844 24.1262H17.6929C18.0298 24.1262 18.303 23.853 18.303 23.516C18.303 23.1791 18.0299 22.9059 17.6929 22.9059H11.1844ZM11.1844 25.7533C10.8474 25.7533 10.5742 26.0265 10.5742 26.3635C10.5742 26.7005 10.8474 26.9737 11.1844 26.9737H17.6929C18.0298 26.9737 18.303 26.7005 18.303 26.3635C18.303 26.0265 18.0299 25.7533 17.6929 25.7533H11.1844ZM10.5742 29.211C10.5742 28.874 10.8474 28.6008 11.1844 28.6008H17.6929C18.0299 28.6008 18.303 28.874 18.303 29.211C18.303 29.5479 18.0298 29.8211 17.6929 29.8211H11.1844C10.8474 29.8211 10.5742 29.5479 10.5742 29.211ZM10.5761 9.27892C10.5761 8.94193 10.8493 8.66875 11.1862 8.66875H17.6947C18.0317 8.66875 18.3049 8.94193 18.3049 9.27892C18.3049 9.6159 18.0317 9.88909 17.6947 9.88909H11.1862C10.8493 9.88909 10.5761 9.6159 10.5761 9.27892ZM11.1862 11.5162C10.8493 11.5162 10.5761 11.7894 10.5761 12.1264C10.5761 12.4634 10.8493 12.7365 11.1862 12.7365H17.6947C18.0317 12.7365 18.3049 12.4634 18.3049 12.1264C18.3049 11.7894 18.0317 11.5162 17.6947 11.5162H11.1862Z" fill="black"/>
</svg>
