<svg width="76" height="100" viewBox="0 0 76 100" fill="none" xmlns="http://www.w3.org/2000/svg">
<path d="M43.2865 63.4656C43.9458 63.9249 44.8577 63.7652 45.2675 63.0741C46.7949 60.4989 47.724 57.606 47.9773 54.61C48.2715 51.1298 47.6435 47.6335 46.1565 44.4732C44.6694 41.3129 42.3759 38.6003 39.5068 36.6085C37.037 34.8939 34.2158 33.7657 31.258 33.3009C30.4642 33.1761 29.7599 33.7769 29.6936 34.5777C29.6272 35.3785 30.2243 36.0751 31.0165 36.2098C33.4646 36.626 35.7978 37.5759 37.8474 38.9988C40.2965 40.6989 42.2543 43.0144 43.5236 45.712C44.793 48.4097 45.329 51.3941 45.0778 54.3649C44.8676 56.8511 44.1122 59.2543 42.8723 61.4059C42.4711 62.1021 42.6272 63.0062 43.2865 63.4656Z" fill="black"/>
<path d="M14.7267 40.3444C14.1402 39.7952 13.2148 39.8223 12.71 40.4474C10.169 43.5934 8.6406 47.4504 8.3483 51.5069C8.05599 55.5634 9.01567 59.5997 11.0793 63.0775C11.4893 63.7685 12.4013 63.9281 13.0604 63.4686C13.7196 63.0091 13.8755 62.105 13.4742 61.4089C11.787 58.4823 11.0062 55.1075 11.2506 51.7161C11.4949 48.3247 12.7515 45.0966 14.8409 42.4422C15.3379 41.8108 15.3132 40.8937 14.7267 40.3444Z" fill="black"/>
<path fill-rule="evenodd" clip-rule="evenodd" d="M36.6617 55.0433C37.2638 55.9896 37.8162 56.858 38.5418 56.3717C41.1851 54.6036 39.9426 47.2848 35.8497 47.7671C34.1685 47.9524 32.6705 49.0157 31.3914 50.252C31.2331 50.0418 31.0626 49.8565 30.8677 49.6834C30.9444 49.45 31.0097 49.2079 31.0749 48.9658C31.2792 48.208 31.4833 47.4508 32.0372 46.9635C32.5502 46.5188 33.4708 46.4714 34.3357 46.4268C35.4426 46.3697 36.4581 46.3174 36.4102 45.4428C36.2154 42.2408 29.345 39.6816 27.7128 43.5141C27.0426 45.0964 27.2012 46.9385 27.6152 48.6817C27.3594 48.7189 27.1156 48.7683 26.8721 48.8548C26.7092 48.665 26.5322 48.4813 26.3552 48.2977C25.8173 47.7396 25.2798 47.1819 25.1423 46.4564C25.0194 45.7845 25.4395 44.9534 25.8343 44.1724C26.3402 43.1717 26.8045 42.2533 26.0314 41.8575C23.2055 40.4236 17.5778 45.1711 20.0384 48.5337C21.0371 49.906 22.6939 50.6974 24.3748 51.2042C24.2772 51.4516 24.192 51.6988 24.1433 51.9585C23.9057 52.0067 23.666 52.0696 23.4262 52.1325C22.6823 52.3277 21.938 52.5231 21.2563 52.28C20.6209 52.0524 20.1212 51.2687 19.6515 50.5322C19.05 49.5887 18.4977 48.7226 17.7726 49.2016C15.1173 50.9697 16.3719 58.2883 20.4648 57.8062C22.1459 57.6209 23.644 56.5576 24.9231 55.3213C25.0813 55.5315 25.2519 55.7169 25.4468 55.8899C25.3701 56.1234 25.3048 56.3655 25.2396 56.6075C25.0353 57.3653 24.8312 58.1225 24.2772 58.6098C23.7643 59.0545 22.8436 59.102 21.9788 59.1465C20.8719 59.2036 19.8564 59.2559 19.9042 60.1305C20.0991 63.3325 26.9694 65.8917 28.6017 62.0592C29.2718 60.4769 29.1133 58.6348 28.6992 56.8916C28.9551 56.8544 29.1988 56.8051 29.4424 56.7185C29.6052 56.9083 29.7823 57.092 29.9593 57.2756C30.4972 57.8337 31.0346 58.3914 31.1722 59.1169C31.2951 59.7888 30.8749 60.6199 30.4801 61.4009C29.9743 62.4016 29.51 63.3201 30.2831 63.7158C33.1089 65.1497 38.7367 60.4022 36.2761 57.0396C35.2774 55.6673 33.6206 54.8759 31.9397 54.3691C32.0372 54.1217 32.1225 53.8745 32.1712 53.6148C32.4087 53.5666 32.6485 53.5037 32.8882 53.4408C33.6321 53.2456 34.3765 53.0502 35.0582 53.2934C35.6931 53.5207 36.1925 54.3057 36.6617 55.0433ZM28.1516 49.9924C29.6742 49.9924 30.9044 51.241 30.9044 52.7863C30.9044 54.3317 29.6742 55.5803 28.1516 55.5803C26.6289 55.5803 25.3987 54.3317 25.3987 52.7863C25.3987 51.2409 26.629 49.9924 28.1516 49.9924Z" fill="black"/>
<path d="M15.5305 66.3354C14.9792 66.9199 15.0029 67.8454 15.6262 68.3525C19.1665 71.2334 23.605 72.8176 28.1989 72.811C32.7927 72.8044 37.2266 71.2073 40.7587 68.3163C41.3805 67.8073 41.4015 66.8818 40.8485 66.2989C40.2955 65.716 39.3781 65.6973 38.75 66.1984C35.7627 68.5816 32.0445 69.8957 28.1947 69.9012C24.3449 69.9068 20.6229 68.6034 17.6287 66.2289C16.9991 65.7296 16.0819 65.7509 15.5305 66.3354Z" fill="#EC6B06"/>
<path d="M38.6519 66.3071C38.0992 66.8903 38.1209 67.8158 38.743 68.3244C42.2769 71.2131 46.7118 72.8074 51.3057 72.811C55.8996 72.8147 60.337 71.2275 63.8755 68.3444C64.4985 67.8369 64.5216 66.9114 63.9699 66.3273C63.4182 65.7431 62.5009 65.7224 61.8716 66.2221C58.8789 68.5985 55.1578 69.9043 51.308 69.9012C47.4582 69.8982 43.7392 68.5865 40.7503 66.2052C40.1219 65.7046 39.2045 65.7238 38.6519 66.3071Z" fill="#EC6B06"/>
<path d="M22.5804 35.0242C22.5804 36.6784 21.2391 38.0201 19.5854 38.0201C17.9308 38.0201 16.5896 36.6783 16.5896 35.0242C16.5896 33.3702 19.5854 25.8064 19.5854 25.8064C19.5854 25.8064 22.5804 33.3699 22.5804 35.0242Z" fill="#EC6B06"/>
<path d="M28.5712 25.8076C28.5712 27.4618 27.2298 28.8035 25.5762 28.8035C23.9215 28.8035 22.5804 27.4617 22.5804 25.8076C22.5804 24.1536 25.5762 16.5898 25.5762 16.5898C25.5762 16.5898 28.5712 24.1534 28.5712 25.8076Z" fill="#EC6B06"/>
</svg>
