<svg width="33" height="53" viewBox="0 0 33 53" fill="none" xmlns="http://www.w3.org/2000/svg">
<mask id="path-1-inside-1_623_9104" fill="white">
<path fill-rule="evenodd" clip-rule="evenodd" d="M4.55846 38.665H0V51.2831C0 52.1818 0.728485 52.9102 1.62712 52.9102H2.93135C3.82998 52.9102 4.55846 52.1818 4.55846 51.2831V38.665ZM18.7302 38.665H5.98252V48.8091C5.98252 48.8091 8.92547 50.3461 14.7529 50.3461C20.2058 50.3461 26.5263 45.4116 28.7366 43.686C28.8884 43.5674 29.0208 43.4641 29.1323 43.3785C30.8659 42.0464 31.3758 40.8168 30.8659 40.0996C30.1482 39.0899 28.3164 39.3823 28.3164 39.3823L23.1154 41.1242C23.1154 41.1242 21.7767 44.4031 19.3421 44.4031H11.2855C11.2855 44.4031 11.4943 42.3538 14.7529 42.3538H18.7302C21.5741 42.3538 21.0966 38.665 18.7302 38.665Z"/>
</mask>
<path fill-rule="evenodd" clip-rule="evenodd" d="M4.55846 38.665H0V51.2831C0 52.1818 0.728485 52.9102 1.62712 52.9102H2.93135C3.82998 52.9102 4.55846 52.1818 4.55846 51.2831V38.665ZM18.7302 38.665H5.98252V48.8091C5.98252 48.8091 8.92547 50.3461 14.7529 50.3461C20.2058 50.3461 26.5263 45.4116 28.7366 43.686C28.8884 43.5674 29.0208 43.4641 29.1323 43.3785C30.8659 42.0464 31.3758 40.8168 30.8659 40.0996C30.1482 39.0899 28.3164 39.3823 28.3164 39.3823L23.1154 41.1242C23.1154 41.1242 21.7767 44.4031 19.3421 44.4031H11.2855C11.2855 44.4031 11.4943 42.3538 14.7529 42.3538H18.7302C21.5741 42.3538 21.0966 38.665 18.7302 38.665Z" fill="#EC6B06"/>
<path d="M0 38.665V37.4447H-1.22034V38.665H0ZM4.55846 38.665H5.7788V37.4447H4.55846V38.665ZM5.98252 38.665V37.4447H4.76218V38.665H5.98252ZM5.98252 48.8091H4.76218V49.5485L5.41759 49.8908L5.98252 48.8091ZM28.7366 43.686L29.4876 44.6479L29.4876 44.6479L28.7366 43.686ZM29.1323 43.3785L28.3887 42.4108L28.3887 42.4108L29.1323 43.3785ZM30.8659 40.0996L29.8713 40.8066L29.8713 40.8066L30.8659 40.0996ZM28.3164 39.3823L28.124 38.1772L28.0245 38.1931L27.9289 38.2251L28.3164 39.3823ZM23.1154 41.1242L22.7278 39.967L22.1971 40.1448L21.9856 40.663L23.1154 41.1242ZM11.2855 44.4031L10.0715 44.2794L9.93457 45.6234H11.2855V44.4031ZM0 39.8854H4.55846V37.4447H0V39.8854ZM1.22034 51.2831V38.665H-1.22034V51.2831H1.22034ZM1.62712 51.6899C1.40246 51.6899 1.22034 51.5078 1.22034 51.2831H-1.22034C-1.22034 52.8557 0.0545098 54.1306 1.62712 54.1306V51.6899ZM2.93135 51.6899H1.62712V54.1306H2.93135V51.6899ZM3.33813 51.2831C3.33813 51.5078 3.156 51.6899 2.93135 51.6899V54.1306C4.50395 54.1306 5.7788 52.8557 5.7788 51.2831H3.33813ZM3.33813 38.665V51.2831H5.7788V38.665H3.33813ZM5.98252 39.8854H18.7302V37.4447H5.98252V39.8854ZM7.20286 48.8091V38.665H4.76218V48.8091H7.20286ZM14.7529 49.1258C11.9477 49.1258 9.8592 48.756 8.49219 48.3972C7.80824 48.2178 7.30373 48.0407 6.97945 47.9134C6.81728 47.8497 6.70013 47.7984 6.62809 47.7655C6.59208 47.749 6.56734 47.7371 6.55389 47.7305C6.54717 47.7272 6.54327 47.7252 6.5422 47.7247C6.54166 47.7244 6.54183 47.7245 6.5427 47.725C6.54314 47.7252 6.54376 47.7255 6.54455 47.7259C6.54494 47.7261 6.54538 47.7263 6.54587 47.7266C6.54611 47.7267 6.54651 47.7269 6.54663 47.727C6.54703 47.7272 6.54745 47.7274 5.98252 48.8091C5.41759 49.8908 5.41803 49.8911 5.41848 49.8913C5.41865 49.8914 5.41911 49.8916 5.41944 49.8918C5.42011 49.8921 5.42082 49.8925 5.42157 49.8929C5.42308 49.8937 5.42477 49.8946 5.42665 49.8955C5.4304 49.8974 5.43488 49.8997 5.44009 49.9024C5.4505 49.9076 5.46384 49.9143 5.48009 49.9223C5.5126 49.9382 5.55678 49.9593 5.61262 49.9849C5.72429 50.036 5.88259 50.1048 6.08737 50.1852C6.497 50.346 7.09244 50.5532 7.87266 50.758C9.43398 51.1677 11.7306 51.5664 14.7529 51.5664V49.1258ZM27.9856 42.7241C26.8822 43.5855 24.81 45.2018 22.3556 46.6034C19.8706 48.0225 17.1548 49.1258 14.7529 49.1258V51.5664C17.8039 51.5664 20.9748 50.2025 23.5659 48.7229C26.1874 47.2258 28.3807 45.5121 29.4876 44.6479L27.9856 42.7241ZM28.3887 42.4108C28.2728 42.4999 28.1362 42.6065 27.9856 42.7241L29.4876 44.6479C29.6406 44.5284 29.7689 44.4283 29.8758 44.3461L28.3887 42.4108ZM29.8713 40.8066C29.7726 40.6678 29.911 40.6371 29.7479 40.9648C29.581 41.3001 29.1759 41.806 28.3887 42.4108L29.8758 44.3461C30.8223 43.6189 31.539 42.8439 31.933 42.0521C32.3308 41.2527 32.4692 40.2486 31.8606 39.3925L29.8713 40.8066ZM28.3164 39.3823C28.5088 40.5874 28.5084 40.5874 28.5081 40.5875C28.508 40.5875 28.5077 40.5876 28.5074 40.5876C28.507 40.5877 28.5066 40.5877 28.5063 40.5878C28.5055 40.5879 28.5049 40.588 28.5044 40.5881C28.5033 40.5882 28.5027 40.5883 28.5025 40.5884C28.502 40.5884 28.5031 40.5883 28.5057 40.5879C28.5109 40.5872 28.522 40.5857 28.5383 40.5838C28.5711 40.5799 28.6239 40.5746 28.6913 40.5703C28.8292 40.5615 29.0126 40.5584 29.2042 40.5769C29.6566 40.6208 29.8303 40.7489 29.8713 40.8066L31.8606 39.3925C31.1838 38.4406 30.0827 38.21 29.4398 38.1477C29.0838 38.1131 28.7644 38.12 28.5364 38.1345C28.4208 38.1419 28.3249 38.1514 28.2547 38.1596C28.2195 38.1637 28.1906 38.1676 28.1686 38.1706C28.1576 38.1721 28.1484 38.1735 28.1409 38.1746C28.1372 38.1752 28.1339 38.1757 28.1311 38.1761C28.1297 38.1763 28.1284 38.1765 28.1272 38.1767C28.1266 38.1768 28.1261 38.1769 28.1255 38.177C28.1253 38.177 28.1249 38.1771 28.1248 38.1771C28.1244 38.1772 28.124 38.1772 28.3164 39.3823ZM23.5029 42.2814L28.704 40.5395L27.9289 38.2251L22.7278 39.967L23.5029 42.2814ZM19.3421 45.6234C21.1349 45.6234 22.3932 44.4259 23.1042 43.5139C23.4788 43.0334 23.7592 42.5598 23.9455 42.2097C24.0394 42.0332 24.1114 41.8842 24.1612 41.7763C24.1861 41.7222 24.2056 41.6782 24.2196 41.6459C24.2266 41.6298 24.2322 41.6165 24.2365 41.6064C24.2386 41.6013 24.2404 41.597 24.2419 41.5935C24.2426 41.5918 24.2432 41.5902 24.2438 41.5889C24.244 41.5882 24.2443 41.5876 24.2445 41.587C24.2447 41.5867 24.2448 41.5863 24.2449 41.5862C24.245 41.5858 24.2452 41.5855 23.1154 41.1242C21.9856 40.663 21.9857 40.6626 21.9858 40.6623C21.9859 40.6622 21.986 40.6619 21.9861 40.6617C21.9862 40.6613 21.9864 40.661 21.9865 40.6607C21.9867 40.6602 21.9868 40.6598 21.9869 40.6596C21.9871 40.6593 21.9869 40.6597 21.9864 40.6608C21.9855 40.6631 21.9833 40.6683 21.9799 40.6761C21.9731 40.6919 21.9614 40.7183 21.945 40.7539C21.912 40.8254 21.8604 40.9325 21.7908 41.0634C21.65 41.328 21.4437 41.6742 21.1792 42.0134C20.6122 42.7408 19.9838 43.1828 19.3421 43.1828V45.6234ZM11.2855 45.6234H19.3421V43.1828H11.2855V45.6234ZM14.7529 41.1335C12.8466 41.1335 11.6226 41.7455 10.8888 42.5636C10.5381 42.9547 10.3373 43.3521 10.2234 43.6626C10.1665 43.8178 10.1305 43.953 10.1079 44.058C10.0966 44.1107 10.0885 44.1562 10.0827 44.1933C10.0798 44.2119 10.0775 44.2285 10.0757 44.2429C10.0748 44.2501 10.074 44.2567 10.0733 44.2628C10.0729 44.2659 10.0726 44.2688 10.0723 44.2715C10.0722 44.2729 10.072 44.2743 10.0719 44.2756C10.0718 44.2762 10.0717 44.2772 10.0717 44.2775C10.0716 44.2785 10.0715 44.2794 11.2855 44.4031C12.4996 44.5268 12.4995 44.5277 12.4994 44.5286C12.4994 44.5289 12.4993 44.5298 12.4992 44.5304C12.4991 44.5316 12.499 44.5328 12.4988 44.5339C12.4986 44.5362 12.4984 44.5384 12.4981 44.5404C12.4977 44.5446 12.4972 44.5483 12.4968 44.5516C12.4959 44.5582 12.4952 44.5633 12.4946 44.5669C12.4935 44.574 12.4931 44.5755 12.4938 44.5721C12.4954 44.565 12.5012 44.5401 12.5147 44.5032C12.5418 44.4295 12.5969 44.3146 12.7057 44.1933C12.891 43.9867 13.4006 43.5741 14.7529 43.5741V41.1335ZM18.7302 41.1335H14.7529V43.5741H18.7302V41.1335ZM18.7302 39.8854C18.9815 39.8854 19.1403 39.9747 19.2495 40.088C19.3739 40.2171 19.4542 40.4025 19.4663 40.5882C19.4781 40.7702 19.4232 40.8876 19.3647 40.9511C19.3193 41.0005 19.1667 41.1335 18.7302 41.1335V43.5741C19.7156 43.5741 20.5698 43.246 21.1608 42.6037C21.7387 41.9756 21.9498 41.1708 21.9019 40.4306C21.8082 38.983 20.6675 37.4447 18.7302 37.4447V39.8854Z" fill="#EC6B06" mask="url(#path-1-inside-1_623_9104)"/>
<rect x="6.91512" y="1.30379" width="24.5841" height="33.1312" rx="0.813559" fill="white" stroke="black" stroke-width="1.62712"/>
<path d="M10.168 26.1172L15.8629 21.6426L21.3544 24.5249L27.4561 21.6426" stroke="black" stroke-width="1.22034" stroke-linecap="round" stroke-linejoin="round"/>
<path d="M10.168 26.0714L15.5347 16.7614L20.9014 17.575L27.6595 10.2529" stroke="#EC6B06" stroke-width="1.22034" stroke-linecap="round" stroke-linejoin="round"/>
</svg>
