<svg width="76" height="100" viewBox="0 0 76 100" fill="none" xmlns="http://www.w3.org/2000/svg">
<path fill-rule="evenodd" clip-rule="evenodd" d="M46.1499 53.0053C46.6898 53.5452 46.6898 54.4205 46.1499 54.9604L37.7899 63.3204L37.7899 81.5667H35.0249V66.0854L30.2585 70.8518C29.7186 71.3917 28.8433 71.3917 28.3034 70.8518C27.7635 70.3119 27.7635 69.4366 28.3034 68.8967L44.1948 53.0053C44.7347 52.4654 45.61 52.4654 46.1499 53.0053ZM66.41 53.0053C66.9499 53.5452 66.9499 54.4205 66.41 54.9604L58.05 63.3204L58.05 81.5667H55.285L55.285 66.0854L50.5186 70.8518C49.9787 71.3917 49.1033 71.3917 48.5634 70.8518C48.0235 70.3119 48.0235 69.4366 48.5634 68.8967L64.4549 53.0053C64.9948 52.4654 65.8701 52.4654 66.41 53.0053Z" fill="black"/>
<path fill-rule="evenodd" clip-rule="evenodd" d="M19.3557 5.53003C20.1192 5.53003 20.7382 6.14899 20.7382 6.91252L20.7382 19.3549C20.7382 19.467 20.7249 19.5759 20.6997 19.6802C22.3043 19.9087 23.779 20.5405 25.018 21.4696C25.074 21.3778 25.1417 21.2911 25.2211 21.2117L30.8532 15.5796C31.3931 15.0397 32.2685 15.0397 32.8084 15.5796C33.3483 16.1195 33.3483 16.9949 32.8084 17.5348L27.1763 23.1669C27.0969 23.2463 27.0102 23.314 26.9184 23.37C27.8401 24.5991 28.4692 26.0601 28.7023 27.6498L47.0055 27.6498C47.769 27.6498 48.388 28.2688 48.388 29.0323C48.388 29.7959 47.769 30.4148 47.0055 30.4148L28.7023 30.4148C28.4711 31.9911 27.8507 33.4408 26.9418 34.6633L38.7022 46.4237C39.2421 46.9636 39.2421 47.8389 38.7022 48.3788C38.1623 48.9187 37.287 48.9187 36.7471 48.3788L24.9867 36.6184C23.7642 37.5274 22.3144 38.1478 20.7382 38.3789L20.7382 50.6913C20.7382 51.4548 20.1192 52.0738 19.3557 52.0738C18.5922 52.0738 17.9732 51.4548 17.9732 50.6913V38.3789C16.397 38.1478 14.9472 37.5273 13.7247 36.6184L7.08266 43.2605C6.54276 43.8004 5.66742 43.8004 5.12753 43.2605C4.58763 42.7206 4.58763 41.8452 5.12753 41.3053L11.7696 34.6633C10.8533 33.4308 10.2302 31.9675 10.0036 30.3763C9.89925 30.4015 9.79033 30.4148 9.67828 30.4148H5.06999C4.30646 30.4148 3.6875 29.7959 3.6875 29.0323C3.6875 28.2688 4.30646 27.6498 5.06999 27.6498H9.67828C9.79033 27.6498 9.89925 27.6632 10.0036 27.6883C10.2321 26.0837 10.8639 24.609 11.7929 23.3701C11.7012 23.314 11.6145 23.2463 11.5351 23.1669L4.67647 16.3083C4.13658 15.7684 4.13658 14.893 4.67647 14.3531C5.21637 13.8132 6.09171 13.8132 6.63161 14.3531L13.4903 21.2118C13.5697 21.2912 13.6374 21.3778 13.6934 21.4696C14.9324 20.5405 16.4071 19.9087 18.0117 19.6802C17.9865 19.5759 17.9732 19.467 17.9732 19.3549L17.9732 6.91252C17.9732 6.14899 18.5922 5.53003 19.3557 5.53003ZM19.3557 21.8895C15.4108 21.8895 12.2128 25.0874 12.2128 29.0323C12.2128 32.9772 15.4108 36.1752 19.3557 36.1752C23.3006 36.1752 26.4986 32.9772 26.4986 29.0323C26.4986 25.0874 23.3006 21.8895 19.3557 21.8895Z" fill="#EC6B06"/>
</svg>
