<svg width="110" height="164" viewBox="0 0 110 164" fill="none" xmlns="http://www.w3.org/2000/svg">
<mask id="mask0_516_7775" style="mask-type:alpha" maskUnits="userSpaceOnUse" x="0" y="0" width="110" height="164">
<rect width="110" height="164" fill="#C4C4C4"/>
</mask>
<g mask="url(#mask0_516_7775)">
<mask id="path-2-inside-1_516_7775" fill="white">
<path fill-rule="evenodd" clip-rule="evenodd" d="M11.2062 119.845H0V150.864C0 153.073 1.79086 154.864 4 154.864H7.20622C9.41536 154.864 11.2062 153.073 11.2062 150.864V119.845ZM46.0461 119.845H14.7082V144.782C14.7082 144.782 21.9429 148.561 36.2687 148.561C49.6738 148.561 65.2115 136.43 70.6452 132.188C71.0185 131.896 71.344 131.642 71.6179 131.432C75.8799 128.157 77.1334 125.135 75.8799 123.371C74.1153 120.889 69.6123 121.608 69.6123 121.608L56.8264 125.89C56.8264 125.89 53.5356 133.951 47.5504 133.951H27.7448C27.7448 133.951 28.258 128.913 36.2687 128.913H46.0461C53.0374 128.913 51.8637 119.845 46.0461 119.845Z"/>
</mask>
<path fill-rule="evenodd" clip-rule="evenodd" d="M11.2062 119.845H0V150.864C0 153.073 1.79086 154.864 4 154.864H7.20622C9.41536 154.864 11.2062 153.073 11.2062 150.864V119.845ZM46.0461 119.845H14.7082V144.782C14.7082 144.782 21.9429 148.561 36.2687 148.561C49.6738 148.561 65.2115 136.43 70.6452 132.188C71.0185 131.896 71.344 131.642 71.6179 131.432C75.8799 128.157 77.1334 125.135 75.8799 123.371C74.1153 120.889 69.6123 121.608 69.6123 121.608L56.8264 125.89C56.8264 125.89 53.5356 133.951 47.5504 133.951H27.7448C27.7448 133.951 28.258 128.913 36.2687 128.913H46.0461C53.0374 128.913 51.8637 119.845 46.0461 119.845Z" fill="#EC6B06"/>
<path d="M0 119.845V116.845H-3V119.845H0ZM11.2062 119.845H14.2062V116.845H11.2062V119.845ZM14.7082 119.845V116.845H11.7082V119.845H14.7082ZM14.7082 144.782H11.7082V146.6L13.3194 147.441L14.7082 144.782ZM70.6452 132.188L72.4914 134.553L72.4914 134.553L70.6452 132.188ZM71.6179 131.432L69.7901 129.053L71.6179 131.432ZM75.8799 123.371L78.325 121.633V121.633L75.8799 123.371ZM69.6123 121.608L69.1394 118.645L68.8946 118.685L68.6596 118.763L69.6123 121.608ZM56.8264 125.89L55.8737 123.045L54.569 123.482L54.049 124.756L56.8264 125.89ZM27.7448 133.951L24.7602 133.647L24.4236 136.951H27.7448V133.951ZM0 122.845H11.2062V116.845H0V122.845ZM3 150.864V119.845H-3V150.864H3ZM4 151.864C3.44771 151.864 3 151.416 3 150.864H-3C-3 154.73 0.134001 157.864 4 157.864V151.864ZM7.20622 151.864H4V157.864H7.20622V151.864ZM8.20623 150.864C8.20623 151.416 7.75851 151.864 7.20622 151.864V157.864C11.0722 157.864 14.2062 154.73 14.2062 150.864H8.20623ZM8.20623 119.845V150.864H14.2062V119.845H8.20623ZM14.7082 122.845H46.0461V116.845H14.7082V122.845ZM17.7082 144.782V119.845H11.7082V144.782H17.7082ZM36.2687 145.561C29.3727 145.561 24.2383 144.652 20.8778 143.77C19.1964 143.328 17.9561 142.893 17.1589 142.58C16.7603 142.424 16.4723 142.298 16.2952 142.217C16.2067 142.176 16.1458 142.147 16.1128 142.131C16.0963 142.123 16.0867 142.118 16.084 142.116C16.0827 142.116 16.0831 142.116 16.0853 142.117C16.0864 142.118 16.0879 142.118 16.0898 142.119C16.0908 142.12 16.0919 142.12 16.0931 142.121C16.0937 142.121 16.0946 142.122 16.0949 142.122C16.0959 142.123 16.097 142.123 14.7082 144.782C13.3194 147.441 13.3205 147.442 13.3216 147.443C13.322 147.443 13.3231 147.443 13.3239 147.444C13.3256 147.445 13.3273 147.446 13.3292 147.447C13.3329 147.448 13.337 147.451 13.3416 147.453C13.3509 147.458 13.3619 147.463 13.3747 147.47C13.4003 147.483 13.4331 147.499 13.473 147.519C13.553 147.558 13.6616 147.61 13.7988 147.673C14.0734 147.798 14.4625 147.967 14.9659 148.165C15.9729 148.56 17.4367 149.07 19.3548 149.573C23.193 150.58 28.8389 151.561 36.2687 151.561V145.561ZM68.7991 129.823C66.0865 131.941 60.9924 135.914 54.9585 139.36C48.8496 142.848 42.1734 145.561 36.2687 145.561V151.561C43.7691 151.561 51.5642 148.208 57.9339 144.57C64.3786 140.89 69.7702 136.677 72.4914 134.553L68.7991 129.823ZM69.7901 129.053C69.505 129.272 69.1693 129.534 68.7991 129.823L72.4914 134.553C72.8676 134.259 73.183 134.013 73.4457 133.811L69.7901 129.053ZM73.4348 125.109C73.1921 124.768 73.5323 124.693 73.1314 125.498C72.7211 126.323 71.7252 127.566 69.7901 129.053L73.4457 133.811C75.7727 132.023 77.5344 130.118 78.503 128.171C79.481 126.206 79.8212 123.738 78.325 121.633L73.4348 125.109ZM69.6123 121.608C70.0852 124.57 70.0844 124.571 70.0835 124.571C70.0833 124.571 70.0825 124.571 70.0819 124.571C70.0809 124.571 70.08 124.571 70.0791 124.571C70.0773 124.572 70.0757 124.572 70.0744 124.572C70.0719 124.573 70.0703 124.573 70.0697 124.573C70.0685 124.573 70.0712 124.573 70.0776 124.572C70.0904 124.57 70.1177 124.566 70.1578 124.562C70.2385 124.552 70.3682 124.539 70.5339 124.528C70.8728 124.507 71.3237 124.499 71.7948 124.545C72.907 124.653 73.3339 124.968 73.4348 125.109L78.325 121.633C76.6614 119.293 73.9545 118.726 72.3739 118.573C71.4988 118.488 70.7136 118.505 70.153 118.541C69.869 118.559 69.6331 118.582 69.4607 118.602C69.3742 118.612 69.303 118.622 69.249 118.629C69.222 118.633 69.1992 118.636 69.1808 118.639C69.1717 118.64 69.1636 118.642 69.1567 118.643C69.1533 118.643 69.1501 118.644 69.1472 118.644C69.1457 118.644 69.1444 118.645 69.1431 118.645C69.1424 118.645 69.1415 118.645 69.1412 118.645C69.1403 118.645 69.1394 118.645 69.6123 121.608ZM57.7791 128.735L70.565 124.453L68.6596 118.763L55.8737 123.045L57.7791 128.735ZM47.5504 136.951C51.9579 136.951 55.0512 134.007 56.7989 131.765C57.7198 130.584 58.4093 129.419 58.8672 128.559C59.0981 128.125 59.2751 127.758 59.3974 127.493C59.4587 127.36 59.5066 127.252 59.541 127.173C59.5582 127.133 59.572 127.1 59.5825 127.076C59.5877 127.063 59.5921 127.053 59.5957 127.044C59.5975 127.04 59.599 127.036 59.6004 127.033C59.6011 127.031 59.6017 127.029 59.6023 127.028C59.6026 127.027 59.603 127.026 59.6031 127.026C59.6035 127.025 59.6039 127.024 56.8264 125.89C54.049 124.756 54.0493 124.755 54.0496 124.755C54.0497 124.754 54.05 124.754 54.0502 124.753C54.0506 124.752 54.0509 124.751 54.0512 124.751C54.0518 124.749 54.0521 124.749 54.0523 124.748C54.0527 124.747 54.0522 124.748 54.0511 124.751C54.0487 124.757 54.0434 124.769 54.035 124.789C54.0182 124.827 53.9896 124.892 53.9492 124.98C53.8682 125.156 53.7413 125.419 53.5702 125.741C53.224 126.391 52.7168 127.242 52.0668 128.076C50.6728 129.864 49.1281 130.951 47.5504 130.951V136.951ZM27.7448 136.951H47.5504V130.951H27.7448V136.951ZM36.2687 125.913C31.5824 125.913 28.5733 127.418 26.7694 129.429C25.9072 130.39 25.4138 131.367 25.1337 132.13C24.9937 132.512 24.9054 132.844 24.8498 133.102C24.8219 133.232 24.802 133.344 24.7878 133.435C24.7808 133.481 24.7751 133.522 24.7706 133.557C24.7683 133.575 24.7664 133.591 24.7646 133.606C24.7638 133.613 24.763 133.621 24.7623 133.627C24.7619 133.631 24.7615 133.634 24.7612 133.637C24.761 133.639 24.7608 133.641 24.7607 133.642C24.7605 133.644 24.7602 133.647 27.7448 133.951C30.7293 134.255 30.7291 134.257 30.7289 134.259C30.7288 134.26 30.7285 134.262 30.7284 134.264C30.7281 134.267 30.7278 134.27 30.7275 134.272C30.7269 134.278 30.7263 134.283 30.7257 134.288C30.7245 134.299 30.7234 134.308 30.7224 134.316C30.7203 134.332 30.7185 134.345 30.7171 134.353C30.7144 134.371 30.7134 134.375 30.7152 134.366C30.7189 134.349 30.7333 134.288 30.7666 134.197C30.8331 134.016 30.9686 133.733 31.236 133.435C31.6915 132.927 32.9443 131.913 36.2687 131.913V125.913ZM46.0461 125.913H36.2687V131.913H46.0461V125.913ZM46.0461 122.845C46.664 122.845 47.0545 123.064 47.3229 123.343C47.6285 123.66 47.8262 124.116 47.8557 124.573C47.8847 125.02 47.7497 125.309 47.606 125.465C47.4944 125.586 47.1194 125.913 46.0461 125.913V131.913C48.4686 131.913 50.5686 131.106 52.0214 129.527C53.4421 127.983 53.961 126.005 53.8432 124.185C53.6129 120.626 50.8086 116.845 46.0461 116.845V122.845Z" fill="#EC6B06" mask="url(#path-2-inside-1_516_7775)"/>
<rect x="17" y="28" width="60.4358" height="81.4475" rx="2" fill="white" stroke="black" stroke-width="4"/>
<path fill-rule="evenodd" clip-rule="evenodd" d="M69.1058 42.3816C68.5997 41.8784 67.7782 41.8917 67.2886 42.4109L57.7724 52.5017C57.3957 52.9012 56.7673 52.9222 56.3648 52.5487L53.1682 49.583C52.6657 49.1169 51.8852 49.1297 51.3983 49.612C50.8848 50.1207 50.8947 50.9536 51.42 51.45L55.6431 55.4406C56.4441 56.1974 57.7063 56.1639 58.4658 55.3655L69.1305 44.1555C69.6058 43.6558 69.5949 42.8679 69.1058 42.3816ZM69.1058 63.3816C68.5997 62.8784 67.7782 62.8917 67.2886 63.4109L57.7724 73.5017C57.3957 73.9012 56.7673 73.9222 56.3648 73.5487L53.1682 70.583C52.6657 70.1169 51.8852 70.1297 51.3983 70.612C50.8848 71.1207 50.8947 71.9536 51.42 72.45L55.6431 76.4406C56.4441 77.1974 57.7063 77.1639 58.4658 76.3655L69.1305 65.1555C69.6058 64.6558 69.5949 63.8679 69.1058 63.3816ZM67.2886 84.4109C67.7782 83.8917 68.5997 83.8784 69.1058 84.3816C69.5949 84.8679 69.6058 85.6558 69.1305 86.1555L58.4658 97.3655C57.7063 98.1639 56.4441 98.1974 55.6431 97.4406L51.42 93.45C50.8947 92.9536 50.8848 92.1207 51.3983 91.612C51.8852 91.1297 52.6657 91.1169 53.1682 91.583L56.3648 94.5487C56.7673 94.9222 57.3957 94.9012 57.7724 94.5017L67.2886 84.4109Z" fill="#EC6B06"/>
<path fill-rule="evenodd" clip-rule="evenodd" d="M26 40.5C26 39.6716 26.6716 39 27.5 39H43.5C44.3284 39 45 39.6716 45 40.5C45 41.3284 44.3284 42 43.5 42H27.5C26.6716 42 26 41.3284 26 40.5ZM26 61.5C26 60.6716 26.6716 60 27.5 60H43.5C44.3284 60 45 60.6716 45 61.5C45 62.3284 44.3284 63 43.5 63H27.5C26.6716 63 26 62.3284 26 61.5ZM26 68.5C26 67.6716 26.6716 67 27.5 67H43.5C44.3284 67 45 67.6716 45 68.5C45 69.3284 44.3284 70 43.5 70H27.5C26.6716 70 26 69.3284 26 68.5ZM27.5 74C26.6716 74 26 74.6716 26 75.5C26 76.3284 26.6716 77 27.5 77H43.5C44.3284 77 45 76.3284 45 75.5C45 74.6716 44.3284 74 43.5 74H27.5ZM27.5 81C26.6716 81 26 81.6716 26 82.5C26 83.3284 26.6716 84 27.5 84H43.5C44.3284 84 45 83.3284 45 82.5C45 81.6716 44.3284 81 43.5 81H27.5ZM27.5 88C26.6716 88 26 88.6716 26 89.5C26 90.3284 26.6716 91 27.5 91H43.5C44.3284 91 45 90.3284 45 89.5C45 88.6716 44.3284 88 43.5 88H27.5ZM26 96.5C26 95.6716 26.6716 95 27.5 95H43.5C44.3284 95 45 95.6716 45 96.5C45 97.3284 44.3284 98 43.5 98H27.5C26.6716 98 26 97.3284 26 96.5ZM26 47.5C26 46.6716 26.6716 46 27.5 46H43.5C44.3284 46 45 46.6716 45 47.5C45 48.3284 44.3284 49 43.5 49H27.5C26.6716 49 26 48.3284 26 47.5ZM27.5 53C26.6716 53 26 53.6716 26 54.5C26 55.3284 26.6716 56 27.5 56H43.5C44.3284 56 45 55.3284 45 54.5C45 53.6716 44.3284 53 43.5 53H27.5Z" fill="black"/>
</g>
</svg>
