<svg width="23" height="28" viewBox="0 0 23 28" fill="none" xmlns="http://www.w3.org/2000/svg">
<path fill-rule="evenodd" clip-rule="evenodd" d="M21.6015 0.169922H13.6015C13.0492 0.169922 12.6015 0.617637 12.6015 1.16992V1.21566C12.6015 1.76795 13.0492 2.21566 13.6015 2.21566H21.6015C22.1538 2.21566 22.6015 1.76795 22.6015 1.21566V1.16992C22.6015 0.617637 22.1538 0.169922 21.6015 0.169922ZM3.21561 20.6563C3.42101 20.8664 3.69712 20.9655 3.96922 20.9528C4.24132 20.9655 4.51743 20.8664 4.72283 20.6563L7.65349 17.6586C8.03342 17.27 8.03342 16.6491 7.65349 16.2605L7.62982 16.2363L7.61401 16.2204C7.22349 15.8387 6.5974 15.8457 6.21561 16.2363L3.96922 18.534L1.72283 16.2363C1.34104 15.8457 0.714949 15.8387 0.324425 16.2204L0.308614 16.2363L0.284944 16.2605C-0.0949815 16.6491 -0.0949815 17.27 0.284944 17.6586L3.21561 20.6563ZM13.6015 6.30715H21.6015C22.1538 6.30715 22.6015 6.75486 22.6015 7.30715V7.35289C22.6015 7.90517 22.1538 8.35289 21.6015 8.35289H13.6015C13.0492 8.35289 12.6015 7.90517 12.6015 7.35289V7.30715C12.6015 6.75486 13.0492 6.30715 13.6015 6.30715ZM5.10151 15.5359V1.16992C5.10151 0.617637 4.65379 0.169922 4.10151 0.169922C3.54922 0.169922 3.10151 0.617637 3.10151 1.16992V15.5359C3.10151 16.0881 3.54922 16.5359 4.10151 16.5359C4.65379 16.5359 5.10151 16.0881 5.10151 15.5359ZM13.6015 12.4444H21.6015C22.1538 12.4444 22.6015 12.8921 22.6015 13.4444V13.4901C22.6015 14.0424 22.1538 14.4901 21.6015 14.4901H13.6015C13.0492 14.4901 12.6015 14.0424 12.6015 13.4901V13.4444C12.6015 12.8921 13.0492 12.4444 13.6015 12.4444ZM17.7126 18.5816H13.6015C13.0492 18.5816 12.6015 19.0293 12.6015 19.5816V19.6273C12.6015 20.1796 13.0492 20.6273 13.6015 20.6273H17.7126C18.2649 20.6273 18.7126 20.1796 18.7126 19.6273V19.5816C18.7126 19.0293 18.2649 18.5816 17.7126 18.5816Z" fill="black"/>
<path d="M0 26.9541C0 26.4018 0.447715 25.9541 1 25.9541H22C22.5523 25.9541 23 26.4018 23 26.9541V26.9998C23 27.5521 22.5523 27.9998 22 27.9998H1C0.447715 27.9998 0 27.5521 0 26.9998V26.9541Z" fill="white"/>
</svg>
