<svg width="76" height="69" viewBox="0 0 76 69" fill="none" xmlns="http://www.w3.org/2000/svg">
<path fill-rule="evenodd" clip-rule="evenodd" d="M26.6191 14.4731H67.1869C70.0875 14.4731 72.4389 16.8245 72.4389 19.7251V68.3219H75.9403V19.7251C75.9403 14.8907 72.0213 10.9717 67.1869 10.9717H26.6191V14.4731Z" fill="black"/>
<path fill-rule="evenodd" clip-rule="evenodd" d="M0.662109 1.91555C0.662109 0.915332 1.47295 0.104492 2.47317 0.104492H17.5653C18.5656 0.104492 19.3764 0.915332 19.3764 1.91555C19.3764 2.91577 18.5656 3.72661 17.5653 3.72661H2.47317C1.47295 3.72661 0.662109 2.91577 0.662109 1.91555ZM2.47317 21.8372C1.47295 21.8372 0.662109 22.648 0.662109 23.6483C0.662109 24.6485 1.47295 25.4593 2.47317 25.4593H17.5653C18.5656 25.4593 19.3764 24.6485 19.3764 23.6483C19.3764 22.648 18.5656 21.8372 17.5653 21.8372H2.47317ZM2.47317 43.5699C1.47295 43.5699 0.662109 44.3808 0.662109 45.381C0.662109 46.3812 1.47295 47.192 2.47317 47.192H17.5653C18.5656 47.192 19.3764 46.3812 19.3764 45.381C19.3764 44.3808 18.5656 43.5699 17.5653 43.5699H2.47317ZM2.47317 54.4363C1.47295 54.4363 0.662109 55.2471 0.662109 56.2473C0.662109 57.2476 1.47295 58.0584 2.47317 58.0584H17.5653C18.5656 58.0584 19.3764 57.2476 19.3764 56.2473C19.3764 55.2471 18.5656 54.4363 17.5653 54.4363H2.47317ZM0.662109 34.5146C0.662109 33.5144 1.47295 32.7036 2.47317 32.7036H17.5653C18.5656 32.7036 19.3764 33.5144 19.3764 34.5146C19.3764 35.5148 18.5656 36.3257 17.5653 36.3257H2.47317C1.47295 36.3257 0.662109 35.5148 0.662109 34.5146ZM2.47317 10.9709C1.47295 10.9709 0.662109 11.7817 0.662109 12.7819C0.662109 13.7821 1.47295 14.593 2.47317 14.593H17.5653C18.5656 14.593 19.3764 13.7821 19.3764 12.7819C19.3764 11.7817 18.5656 10.9709 17.5653 10.9709H2.47317Z" fill="#EC6B06"/>
<path d="M50.4308 39.1233C50.2971 38.8478 50.0294 38.6643 49.7351 38.6643H45.6405L48.1025 30.0657C48.1828 29.7902 48.1294 29.4842 47.9955 29.2394C47.8617 28.9947 47.5941 28.8723 47.3532 28.8723L40.8766 28.8721C40.5286 28.8721 40.2342 29.1168 40.1272 29.5147L35.7116 44.8147C35.6312 45.0902 35.6848 45.396 35.8186 45.641C35.9792 45.8857 36.22 46.0081 36.4609 46.0081H41.2782L40.6627 56.7793C40.636 57.2077 40.8768 57.6056 41.2514 57.7279C41.3317 57.7585 41.4121 57.7585 41.4655 57.7585C41.7598 57.7585 42.0275 57.5748 42.1612 57.2688L50.4572 40.0099C50.5912 39.7346 50.5914 39.3985 50.4308 39.1233Z" fill="black"/>
</svg>
