<svg width="208" height="138" viewBox="0 0 208 138" fill="none" xmlns="http://www.w3.org/2000/svg">
<path fill-rule="evenodd" clip-rule="evenodd" d="M159.249 82.5322C160.209 81.5494 160.209 79.9804 159.249 78.9977C158.257 77.9812 156.622 77.9812 155.63 78.9977L124.72 110.652C123.76 111.635 123.76 113.204 124.72 114.187C125.712 115.203 127.347 115.203 128.339 114.187L138.479 103.803V137.155H143.479V99.1019C143.479 98.9696 143.469 98.8397 143.449 98.7129L159.249 82.5322Z" fill="black"/>
<path fill-rule="evenodd" clip-rule="evenodd" d="M207.249 82.5322C208.209 81.5494 208.209 79.9804 207.249 78.9977C206.257 77.9812 204.622 77.9812 203.63 78.9977L172.72 110.652C171.76 111.635 171.76 113.204 172.72 114.187C173.712 115.203 175.347 115.203 176.339 114.187L186.479 103.803V137.155H191.479V99.1019C191.479 98.9696 191.469 98.8397 191.449 98.7129L207.249 82.5322Z" fill="black"/>
<path fill-rule="evenodd" clip-rule="evenodd" d="M111.249 82.8574C112.209 81.8746 112.209 80.3056 111.249 79.3229C110.257 78.3064 108.622 78.3064 107.63 79.3229L76.7197 110.977C75.7601 111.96 75.7601 113.529 76.7197 114.512C77.7122 115.528 79.3469 115.528 80.3394 114.512L90.7272 103.874V137H95.7272V98.9224C95.7272 98.8674 95.7254 98.8129 95.7219 98.7588L111.249 82.8574Z" fill="black"/>
<path fill-rule="evenodd" clip-rule="evenodd" d="M33 21C31.8727 21 30.9588 21.9139 30.9588 23.0412V38.0047C28.0226 38.5513 25.3491 39.8697 23.1461 41.7474L12.5866 30.9335C11.7762 30.1036 10.4415 30.1036 9.63113 30.9335C8.84758 31.7359 8.84758 33.017 9.63113 33.8194L20.3411 44.7874C18.6947 47.0645 17.5775 49.7671 17.1757 52.7045H2.09041C0.935908 52.7045 0 53.6404 0 54.7949C0 55.9494 0.93591 56.8854 2.09041 56.8854H17.0943C17.3883 59.9177 18.4415 62.7212 20.0566 65.0938L9.63112 75.7705C8.84758 76.5729 8.84758 77.854 9.63113 78.6564C10.4415 79.4863 11.7762 79.4863 12.5866 78.6564L22.7795 68.2179C25.0497 70.2665 27.8577 71.7047 30.9588 72.282V86.5487C30.9588 87.676 31.8727 88.5899 33 88.5899C34.1273 88.5899 35.0412 87.676 35.0412 86.5487V72.5326C38.4355 72.3269 41.562 71.1019 44.1329 69.1524L53.4134 78.6564C54.2238 79.4863 55.5585 79.4863 56.3689 78.6564C57.1524 77.854 57.1524 76.5729 56.3689 75.7705L47.1015 66.2799C49.2145 63.6798 50.6023 60.4397 50.9469 56.8854H63.9096C65.0641 56.8854 66 55.9494 66 54.7949C66 53.6404 65.0641 52.7045 63.9096 52.7045H50.8655C50.3933 49.2527 48.9334 46.1253 46.7876 43.6315L56.3689 33.8194C57.1524 33.017 57.1524 31.7359 56.3689 30.9335C55.5585 30.1036 54.2238 30.1036 53.4134 30.9335L43.737 40.843C41.2438 39.063 38.2631 37.9494 35.0412 37.7541V23.0412C35.0412 21.9139 34.1273 21 33 21ZM34.0206 67.6858C40.7847 67.6858 46.268 62.0704 46.268 55.1433C46.268 48.2163 40.7847 42.6009 34.0206 42.6009C27.2566 42.6009 21.7732 48.2163 21.7732 55.1433C21.7732 62.0704 27.2566 67.6858 34.0206 67.6858Z" fill="#EC6B06"/>
</svg>
