<svg width="166" height="137" viewBox="0 0 166 137" fill="none" xmlns="http://www.w3.org/2000/svg">
<path d="M21.1211 90.2205C20.3712 91.0155 20.4035 92.2742 21.2511 92.9639C26.0663 96.882 32.1029 99.0367 38.3508 99.0277C44.5988 99.0187 50.6291 96.8466 55.4329 92.9146C56.2786 92.2224 56.3072 90.9637 55.5551 90.1708V90.1708C54.8029 89.378 53.5553 89.3527 52.701 90.0342C48.638 93.2754 43.5811 95.0627 38.3451 95.0702C33.1091 95.0778 28.047 93.3051 23.9747 90.0757C23.1185 89.3966 21.8709 89.4256 21.1211 90.2205V90.2205Z" fill="#EC6B06"/>
<path d="M52.5685 90.182C51.8169 90.9752 51.8463 92.234 52.6925 92.9256C57.4988 96.8545 63.5305 99.0228 69.7785 99.0277C76.0265 99.0327 82.0617 96.8741 86.8743 92.9529C87.7215 92.2626 87.753 91.0039 87.0026 90.2095V90.2095C86.2522 89.415 85.0046 89.3868 84.1488 90.0664C80.0786 93.2985 75.0176 95.0744 69.7817 95.0703C64.5457 95.0661 59.4876 93.2821 55.4225 90.0435C54.5678 89.3625 53.3202 89.3887 52.5685 90.182V90.182Z" fill="#EC6B06"/>
<path d="M20.0248 54.8713C19.2271 54.1243 17.9686 54.1612 17.2819 55.0114C13.8261 59.2902 11.7473 64.5359 11.3498 70.053C10.9522 75.5701 12.2574 81.0596 15.0641 85.7897C15.6217 86.7295 16.862 86.9465 17.7586 86.3216V86.3216C18.6551 85.6967 18.8672 84.467 18.3213 83.5203C16.0266 79.5399 14.9647 74.9499 15.297 70.3374C15.6294 65.7249 17.3384 61.3346 20.1801 57.7244C20.8561 56.8656 20.8225 55.6183 20.0248 54.8713V54.8713Z" fill="black"/>
<path d="M58.8679 86.3175C59.7646 86.9422 61.0048 86.725 61.5622 85.7851C63.6395 82.2826 64.9031 78.348 65.2476 74.2734C65.6479 69.5401 64.7937 64.7848 62.7713 60.4866C60.7488 56.1884 57.6294 52.4991 53.7273 49.7902C50.3682 47.4583 46.5312 45.9238 42.5084 45.2916C41.4288 45.1219 40.4709 45.9391 40.3807 47.0282V47.0282C40.2904 48.1173 41.1025 49.0647 42.1799 49.2479C45.5095 49.814 48.6828 51.1059 51.4704 53.0411C54.8013 55.3534 57.464 58.5027 59.1904 62.1716C60.9168 65.8405 61.6458 69.8996 61.3042 73.94C61.0183 77.3214 59.9908 80.5899 58.3046 83.5162C57.7589 84.4631 57.9712 85.6928 58.8679 86.3175V86.3175Z" fill="black"/>
<path d="M52.4149 76.6689C50.6589 77.846 49.6482 73.1882 47.6769 72.4822C46.451 72.045 45.0759 72.6505 43.7505 72.9195C43.6843 73.2726 43.5683 73.6088 43.4356 73.9453C45.7218 74.6346 47.9751 75.7109 49.3334 77.5773C52.68 82.1508 45.0259 88.6076 41.1825 86.6574C39.3105 85.6991 42.7731 82.4874 42.3918 80.4026C42.1431 79.0912 40.9338 78.1831 40.0391 77.1407C39.7079 77.2584 39.3764 77.3255 39.0284 77.3761C39.5916 79.7469 39.8072 82.2524 38.8957 84.4044C36.6758 89.6168 27.3317 86.1361 27.0667 81.7812C26.9507 79.6624 31.4236 81.0919 33.0142 79.713C34.0083 78.8385 34.174 77.3252 34.6048 76.0138C34.3398 75.7784 34.1078 75.5263 33.8926 75.2404C32.1529 76.9219 30.1155 78.3679 27.829 78.62C22.2625 79.2757 20.5562 69.322 24.1676 66.9173C25.9237 65.7571 26.9343 70.398 28.9056 71.104C30.1315 71.5412 31.5066 70.9357 32.832 70.6667C32.8982 70.3136 33.0142 69.9774 33.1469 69.6409C30.8608 68.9516 28.6074 67.8753 27.2491 66.0089C23.9025 61.4355 31.5566 54.9786 35.4 56.9288C37.272 57.8871 33.8094 61.0988 34.1907 63.1836C34.4394 64.495 35.6487 65.4031 36.5434 66.4456C36.8746 66.3278 37.2062 66.2607 37.5541 66.2101C36.9909 63.8393 36.7754 61.3339 37.6868 59.1819C39.9067 53.9694 49.2508 57.4501 49.5159 61.805C49.6318 63.9238 45.1589 62.4943 43.5683 63.8732C42.5742 64.7477 42.4085 66.261 41.9777 67.5724C42.2427 67.8079 42.4747 68.0599 42.6899 68.3459C44.4296 66.6643 46.467 65.2183 48.7535 64.9662C54.32 64.3102 56.0099 74.2642 52.4149 76.6689V76.6689ZM42.0276 71.7927C42.0276 69.6909 40.3545 67.9927 38.2835 67.9927C36.2127 67.9927 34.5395 69.6908 34.5395 71.7927C34.5395 73.8944 36.2126 75.5926 38.2835 75.5926C40.3544 75.5926 42.0276 73.8945 42.0276 71.7927Z" fill="black"/>
<path d="M30.7103 47.6354C30.7103 49.8852 28.8861 51.7099 26.637 51.7099C24.3866 51.7099 22.5625 49.8851 22.5625 47.6354C22.5625 45.3858 26.637 35.0986 26.637 35.0986C26.637 35.0986 30.7103 45.3855 30.7103 47.6354Z" fill="#EC6B06"/>
<path d="M38.8588 35.1003C38.8588 37.35 37.0345 39.1748 34.7854 39.1748C32.535 39.1748 30.7109 37.3499 30.7109 35.1003C30.7109 32.8506 34.7854 22.5635 34.7854 22.5635C34.7854 22.5635 38.8588 32.8503 38.8588 35.1003Z" fill="#EC6B06"/>
<path d="M84.1211 90.2205C83.3712 91.0155 83.4035 92.2742 84.2511 92.9639C89.0663 96.882 95.1029 99.0367 101.351 99.0277C107.599 99.0187 113.629 96.8466 118.433 92.9146C119.279 92.2224 119.307 90.9637 118.555 90.1708V90.1708C117.803 89.378 116.555 89.3527 115.701 90.0342C111.638 93.2754 106.581 95.0627 101.345 95.0702C96.1091 95.0778 91.047 93.3051 86.9747 90.0757C86.1185 89.3966 84.8709 89.4256 84.1211 90.2205V90.2205Z" fill="#EC6B06"/>
<path d="M115.569 90.182C114.817 90.9752 114.846 92.234 115.692 92.9256C120.499 96.8545 126.531 99.0228 132.779 99.0277C139.026 99.0327 145.062 96.8741 149.874 92.9529C150.721 92.2626 150.753 91.0039 150.003 90.2095V90.2095C149.252 89.415 148.005 89.3868 147.149 90.0664C143.079 93.2985 138.018 95.0744 132.782 95.0703C127.546 95.0661 122.488 93.2821 118.423 90.0435C117.568 89.3625 116.32 89.3887 115.569 90.182V90.182Z" fill="#EC6B06"/>
<path d="M83.0248 54.8713C82.2271 54.1243 80.9686 54.1612 80.2819 55.0114C76.8261 59.2902 74.7473 64.5359 74.3498 70.053C73.9522 75.5701 75.2574 81.0596 78.0641 85.7897C78.6217 86.7295 79.862 86.9465 80.7586 86.3216V86.3216C81.6551 85.6967 81.8672 84.467 81.3213 83.5203C79.0266 79.5399 77.9647 74.9499 78.297 70.3374C78.6294 65.7249 80.3384 61.3346 83.1801 57.7244C83.8561 56.8656 83.8225 55.6183 83.0248 54.8713V54.8713Z" fill="black"/>
<path d="M121.868 86.3175C122.765 86.9422 124.005 86.725 124.562 85.7851C126.639 82.2826 127.903 78.348 128.248 74.2734C128.648 69.5401 127.794 64.7848 125.771 60.4866C123.749 56.1884 120.629 52.4991 116.727 49.7902C113.368 47.4583 109.531 45.9238 105.508 45.2916C104.429 45.1219 103.471 45.9391 103.381 47.0282V47.0282C103.29 48.1173 104.103 49.0647 105.18 49.2479C108.51 49.814 111.683 51.1059 114.47 53.0411C117.801 55.3534 120.464 58.5027 122.19 62.1716C123.917 65.8405 124.646 69.8996 124.304 73.94C124.018 77.3214 122.991 80.5899 121.305 83.5162C120.759 84.4631 120.971 85.6928 121.868 86.3175V86.3175Z" fill="black"/>
<path d="M115.415 76.6689C113.659 77.846 112.648 73.1882 110.677 72.4822C109.451 72.045 108.076 72.6505 106.75 72.9195C106.684 73.2726 106.568 73.6088 106.436 73.9453C108.722 74.6346 110.975 75.7109 112.333 77.5773C115.68 82.1508 108.026 88.6076 104.183 86.6574C102.311 85.6991 105.773 82.4874 105.392 80.4026C105.143 79.0912 103.934 78.1831 103.039 77.1407C102.708 77.2584 102.376 77.3255 102.028 77.3761C102.592 79.7469 102.807 82.2524 101.896 84.4044C99.6758 89.6168 90.3317 86.1361 90.0667 81.7812C89.9507 79.6624 94.4236 81.0919 96.0142 79.713C97.0083 78.8385 97.174 77.3252 97.6048 76.0138C97.3398 75.7784 97.1078 75.5263 96.8926 75.2404C95.1529 76.9219 93.1155 78.3679 90.829 78.62C85.2625 79.2757 83.5562 69.322 87.1676 66.9173C88.9237 65.7571 89.9343 70.398 91.9056 71.104C93.1315 71.5412 94.5066 70.9357 95.832 70.6667C95.8982 70.3136 96.0142 69.9774 96.1469 69.6409C93.8608 68.9516 91.6074 67.8753 90.2491 66.0089C86.9025 61.4355 94.5566 54.9786 98.4 56.9288C100.272 57.8871 96.8094 61.0988 97.1907 63.1836C97.4394 64.495 98.6487 65.4031 99.5434 66.4456C99.8746 66.3278 100.206 66.2607 100.554 66.2101C99.9909 63.8393 99.7754 61.3339 100.687 59.1819C102.907 53.9694 112.251 57.4501 112.516 61.805C112.632 63.9238 108.159 62.4943 106.568 63.8732C105.574 64.7477 105.409 66.261 104.978 67.5724C105.243 67.8079 105.475 68.0599 105.69 68.3459C107.43 66.6643 109.467 65.2183 111.753 64.9662C117.32 64.3102 119.01 74.2642 115.415 76.6689V76.6689ZM105.028 71.7927C105.028 69.6909 103.354 67.9927 101.284 67.9927C99.2127 67.9927 97.5395 69.6908 97.5395 71.7927C97.5395 73.8944 99.2126 75.5926 101.284 75.5926C103.354 75.5926 105.028 73.8945 105.028 71.7927Z" fill="black"/>
<path d="M93.7103 47.6354C93.7103 49.8852 91.8861 51.7099 89.637 51.7099C87.3866 51.7099 85.5625 49.8851 85.5625 47.6354C85.5625 45.3858 89.637 35.0986 89.637 35.0986C89.637 35.0986 93.7103 45.3855 93.7103 47.6354Z" fill="#EC6B06"/>
<path d="M101.859 35.1003C101.859 37.35 100.034 39.1748 97.7854 39.1748C95.535 39.1748 93.7109 37.3499 93.7109 35.1003C93.7109 32.8506 97.7854 22.5635 97.7854 22.5635C97.7854 22.5635 101.859 32.8503 101.859 35.1003Z" fill="#EC6B06"/>
</svg>
