<svg width="300" height="139" viewBox="0 0 300 139" fill="none" xmlns="http://www.w3.org/2000/svg">
<path fill-rule="evenodd" clip-rule="evenodd" d="M119.598 5.32177L119.574 5.4959L117.717 43.4824L86.6867 64.0139L86.5455 64.1269L86.5254 64.1462C85.8441 64.8011 85.8226 65.8843 86.4774 66.5656C86.9258 67.0321 87.599 67.2058 88.2171 67.0145L88.3861 66.9447L121.454 49.5902L154.522 66.9447L154.691 67.0145C155.309 67.2058 155.982 67.0321 156.431 66.5656C157.085 65.8843 157.064 64.8011 156.383 64.1462L156.363 64.1269L156.221 64.0139L124.782 43.2115L122.938 5.4959L122.914 5.32177C122.768 4.68553 122.271 4.1887 121.635 4.04318C120.72 3.83378 119.808 4.40622 119.598 5.32177ZM121.302 54.1879C119.921 54.1879 118.802 55.3072 118.802 56.6879V136.213H123.802V56.6879C123.802 55.3072 122.682 54.1879 121.302 54.1879Z" fill="black"/>
<path fill-rule="evenodd" clip-rule="evenodd" d="M262.598 5.32177L262.574 5.4959L260.717 43.4824L229.687 64.0139L229.546 64.1269L229.525 64.1462C228.844 64.8011 228.823 65.8843 229.477 66.5656C229.926 67.0321 230.599 67.2058 231.217 67.0145L231.386 66.9447L264.454 49.5902L297.522 66.9447L297.691 67.0145C298.309 67.2058 298.982 67.0321 299.431 66.5656C300.085 65.8843 300.064 64.8011 299.383 64.1462L299.363 64.1269L299.221 64.0139L267.782 43.2115L265.938 5.4959L265.914 5.32177C265.768 4.68553 265.271 4.1887 264.635 4.04318C263.72 3.83378 262.808 4.40622 262.598 5.32177ZM264.302 54.1879C262.921 54.1879 261.802 55.3072 261.802 56.6879V136.213H266.802V56.6879C266.802 55.3072 265.682 54.1879 264.302 54.1879Z" fill="black"/>
<path fill-rule="evenodd" clip-rule="evenodd" d="M13 46.3135C13 47.418 13.8954 48.3135 15 48.3135H51.5312C58.971 48.3135 65 42.2681 65 34.8135C65 27.3588 58.971 21.3135 51.5312 21.3135C44.0914 21.3135 38.0624 27.3588 38.0624 34.8135C38.0624 35.918 38.9579 36.8135 40.0624 36.8135C41.167 36.8135 42.0624 35.918 42.0624 34.8135C42.0624 29.5656 46.303 25.3135 51.5312 25.3135C56.7595 25.3135 61 29.5656 61 34.8135C61 40.0614 56.7595 44.3135 51.5312 44.3135H15C13.8954 44.3135 13 45.2089 13 46.3135ZM0 54.3135C0 55.418 0.89543 56.3135 2 56.3135H37C38.1046 56.3135 39 55.418 39 54.3135C39 53.2089 38.1046 52.3135 37 52.3135H2C0.89543 52.3135 0 53.2089 0 54.3135Z" fill="#EC6B06"/>
<path fill-rule="evenodd" clip-rule="evenodd" d="M226.667 27.0758L226.504 27.1421L192.678 44.527L159.382 27.9196L159.214 27.8539L159.187 27.8461C158.279 27.5835 157.33 28.1065 157.067 29.0143C156.888 29.6358 157.074 30.3056 157.549 30.7453L157.694 30.8567L189.257 50.8172L190.646 85.271V138.977H195.646V63.6027L196.445 50.5096L228.186 30.0549L228.324 29.9471C228.803 29.5029 228.984 28.8243 228.792 28.2005C228.516 27.3029 227.564 26.7994 226.667 27.0758Z" fill="black"/>
</svg>
