<svg width="195" height="131" viewBox="0 0 195 131" fill="none" xmlns="http://www.w3.org/2000/svg">
<path fill-rule="evenodd" clip-rule="evenodd" d="M131.617 64.4731H172.185C175.086 64.4731 177.437 66.8245 177.437 69.7251V118.322H180.938V69.7251C180.938 64.8907 177.019 60.9717 172.185 60.9717H131.617V64.4731Z" fill="black"/>
<path fill-rule="evenodd" clip-rule="evenodd" d="M105.656 51.9156C105.656 50.9153 106.467 50.1045 107.467 50.1045H122.559C123.56 50.1045 124.371 50.9153 124.371 51.9156C124.371 52.9158 123.56 53.7266 122.559 53.7266H107.467C106.467 53.7266 105.656 52.9158 105.656 51.9156ZM107.467 71.8372C106.467 71.8372 105.656 72.648 105.656 73.6483C105.656 74.6485 106.467 75.4593 107.467 75.4593H122.559C123.56 75.4593 124.371 74.6485 124.371 73.6483C124.371 72.648 123.56 71.8372 122.559 71.8372H107.467ZM107.467 93.5699C106.467 93.5699 105.656 94.3808 105.656 95.381C105.656 96.3812 106.467 97.192 107.467 97.192H122.559C123.56 97.192 124.371 96.3812 124.371 95.381C124.371 94.3808 123.56 93.5699 122.559 93.5699H107.467ZM107.467 104.436C106.467 104.436 105.656 105.247 105.656 106.247C105.656 107.248 106.467 108.058 107.467 108.058H122.559C123.56 108.058 124.371 107.248 124.371 106.247C124.371 105.247 123.56 104.436 122.559 104.436H107.467ZM105.656 84.5146C105.656 83.5144 106.467 82.7036 107.467 82.7036H122.559C123.56 82.7036 124.371 83.5144 124.371 84.5146C124.371 85.5148 123.56 86.3257 122.559 86.3257H107.467C106.467 86.3257 105.656 85.5148 105.656 84.5146ZM107.467 60.9709C106.467 60.9709 105.656 61.7817 105.656 62.7819C105.656 63.7821 106.467 64.593 107.467 64.593H122.559C123.56 64.593 124.371 63.7821 124.371 62.7819C124.371 61.7817 123.56 60.9709 122.559 60.9709H107.467Z" fill="#EC6B06"/>
<path d="M155.429 89.1233C155.295 88.8478 155.027 88.6643 154.733 88.6643H150.639L153.101 80.0657C153.181 79.7902 153.127 79.4842 152.994 79.2394C152.86 78.9947 152.592 78.8723 152.351 78.8723L145.875 78.8721C145.527 78.8721 145.232 79.1168 145.125 79.5147L140.71 94.8147C140.629 95.0902 140.683 95.396 140.817 95.641C140.977 95.8857 141.218 96.0081 141.459 96.0081H146.276L145.661 106.779C145.634 107.208 145.875 107.606 146.249 107.728C146.33 107.758 146.41 107.758 146.464 107.758C146.758 107.758 147.026 107.575 147.159 107.269L155.455 90.0099C155.589 89.7346 155.589 89.3985 155.429 89.1233Z" fill="black"/>
<path fill-rule="evenodd" clip-rule="evenodd" d="M35.6172 64.4731H76.1849C79.0856 64.4731 81.437 66.8245 81.437 69.7251V118.322H84.9384V69.7251C84.9384 64.8907 81.0193 60.9717 76.1849 60.9717H35.6172V64.4731Z" fill="black"/>
<path fill-rule="evenodd" clip-rule="evenodd" d="M9.65625 51.9156C9.65625 50.9153 10.4671 50.1045 11.4673 50.1045H26.5595C27.5597 50.1045 28.3705 50.9153 28.3705 51.9156C28.3705 52.9158 27.5597 53.7266 26.5595 53.7266H11.4673C10.4671 53.7266 9.65625 52.9158 9.65625 51.9156ZM11.4673 71.8372C10.4671 71.8372 9.65625 72.648 9.65625 73.6483C9.65625 74.6485 10.4671 75.4593 11.4673 75.4593H26.5595C27.5597 75.4593 28.3705 74.6485 28.3705 73.6483C28.3705 72.648 27.5597 71.8372 26.5595 71.8372H11.4673ZM11.4673 93.5699C10.4671 93.5699 9.65625 94.3808 9.65625 95.381C9.65625 96.3812 10.4671 97.192 11.4673 97.192H26.5595C27.5597 97.192 28.3705 96.3812 28.3705 95.381C28.3705 94.3808 27.5597 93.5699 26.5595 93.5699H11.4673ZM11.4673 104.436C10.4671 104.436 9.65625 105.247 9.65625 106.247C9.65625 107.248 10.4671 108.058 11.4673 108.058H26.5595C27.5597 108.058 28.3705 107.248 28.3705 106.247C28.3705 105.247 27.5597 104.436 26.5595 104.436H11.4673ZM9.65625 84.5146C9.65625 83.5144 10.4671 82.7036 11.4673 82.7036H26.5595C27.5597 82.7036 28.3705 83.5144 28.3705 84.5146C28.3705 85.5148 27.5597 86.3257 26.5595 86.3257H11.4673C10.4671 86.3257 9.65625 85.5148 9.65625 84.5146ZM11.4673 60.9709C10.4671 60.9709 9.65625 61.7817 9.65625 62.7819C9.65625 63.7821 10.4671 64.593 11.4673 64.593H26.5595C27.5597 64.593 28.3705 63.7821 28.3705 62.7819C28.3705 61.7817 27.5597 60.9709 26.5595 60.9709H11.4673Z" fill="#EC6B06"/>
<path d="M59.4289 89.1233C59.2951 88.8478 59.0275 88.6643 58.7332 88.6643H54.6385L57.1005 80.0657C57.1809 79.7902 57.1274 79.4842 56.9935 79.2394C56.8598 78.9947 56.5921 78.8723 56.3512 78.8723L49.8746 78.8721C49.5267 78.8721 49.2323 79.1168 49.1253 79.5147L44.7096 94.8147C44.6293 95.0902 44.6829 95.396 44.8166 95.641C44.9772 95.8857 45.218 96.0081 45.4589 96.0081H50.2762L49.6608 106.779C49.6341 107.208 49.8748 107.606 50.2495 107.728C50.3298 107.758 50.4101 107.758 50.4635 107.758C50.7579 107.758 51.0255 107.575 51.1592 107.269L59.4553 90.0099C59.5892 89.7346 59.5895 89.3985 59.4289 89.1233Z" fill="black"/>
</svg>
