<svg width="70" height="70" viewBox="0 0 70 70" fill="none" xmlns="http://www.w3.org/2000/svg">
<mask id="mask0_516_7621" style="mask-type:alpha" maskUnits="userSpaceOnUse" x="0" y="0" width="70" height="70">
<rect width="70" height="70" fill="#C4C4C4"/>
</mask>
<g mask="url(#mask0_516_7621)">
<path fill-rule="evenodd" clip-rule="evenodd" d="M35.6584 19.9961C44.1803 19.9961 51.0882 26.9349 51.0882 35.4948C51.0882 50.9936 35.6584 69.5921 35.6584 69.5921C35.6584 69.5921 20.2285 50.9936 20.2285 35.4948C20.2285 26.9349 27.1365 19.9961 35.6584 19.9961ZM35.6578 44.9879C40.8777 44.9879 45.1086 40.7382 45.1086 35.495C45.1086 30.2517 40.8777 26.002 35.6578 26.002C30.4379 26.002 26.207 30.2517 26.207 35.495C26.207 40.7382 30.4379 44.9879 35.6578 44.9879ZM35.6554 29.4893C38.9574 29.4893 41.6345 32.1783 41.6345 35.4951C41.6345 38.8118 38.9574 41.5008 35.6554 41.5008C32.3534 41.5008 29.6763 38.8118 29.6763 35.4951C29.6763 32.1783 32.3534 29.4893 35.6554 29.4893Z" fill="#EC6B06"/>
<path fill-rule="evenodd" clip-rule="evenodd" d="M16.8718 50.1199C15.6955 45.7299 11.1992 43.1207 6.82877 44.2917C2.45832 45.4628 -0.130908 49.9706 1.04538 54.3606C3.17518 62.3091 13.6441 69.727 13.6441 69.727C13.6441 69.727 19.0016 58.0684 16.8718 50.1199ZM13.8062 50.9422C14.5267 53.6312 12.9409 56.3921 10.2639 57.1094C7.58687 57.8267 4.83308 56.2286 4.11257 53.5396C3.39206 50.8506 4.97787 48.0897 7.6549 47.3724C10.3319 46.6551 13.0857 48.2532 13.8062 50.9422ZM12.0223 51.4194C11.5666 49.7184 9.82411 48.7072 8.13068 49.161C6.43726 49.6147 5.43384 51.3617 5.88962 53.0627C6.34539 54.7637 8.08785 55.7748 9.78128 55.3211C11.4747 54.8673 12.4781 53.1204 12.0223 51.4194ZM67.8717 55.0926C69.048 50.7026 66.4587 46.1948 62.0883 45.0237C57.7178 43.8527 53.2216 46.4619 52.0453 50.8519C49.9155 58.8004 55.2729 70.459 55.2729 70.459C55.2729 70.459 65.7419 63.0411 67.8717 55.0926ZM64.8064 54.2703C64.0858 56.9593 61.3321 58.5574 58.655 57.8401C55.978 57.1228 54.3922 54.3619 55.1127 51.6729C55.8332 48.9839 58.587 47.3858 61.264 48.1032C63.9411 48.8205 65.5269 51.5813 64.8064 54.2703ZM63.0258 53.7925C63.4816 52.0915 62.4782 50.3445 60.7847 49.8908C59.0913 49.437 57.3489 50.4482 56.8931 52.1492C56.4373 53.8502 57.4407 55.5971 59.1341 56.0509C60.8276 56.5046 62.57 55.4934 63.0258 53.7925Z" fill="black"/>
</g>
</svg>
