<svg width="70" height="70" viewBox="0 0 70 70" fill="none" xmlns="http://www.w3.org/2000/svg">
<mask id="mask0_516_7628" style="mask-type:alpha" maskUnits="userSpaceOnUse" x="0" y="0" width="70" height="70">
<rect width="70" height="70" fill="#C4C4C4"/>
</mask>
<g mask="url(#mask0_516_7628)">
<path d="M34.5825 58.3125C44.3349 58.3125 52.2408 50.4067 52.2408 40.6543C52.2408 30.902 44.3349 22.9961 34.5825 22.9961C24.8302 22.9961 16.9243 30.902 16.9243 40.6543C16.9243 50.4067 24.8302 58.3125 34.5825 58.3125Z" fill="black"/>
<path d="M7.68347 44.9324C8.62725 44.9324 9.39233 44.1673 9.39233 43.2235C9.39233 42.2797 8.62725 41.5146 7.68347 41.5146C6.73969 41.5146 5.97461 42.2797 5.97461 43.2235C5.97461 44.1673 6.73969 44.9324 7.68347 44.9324Z" fill="black"/>
<path d="M10.2406 57.1862C12.7573 57.1862 14.7975 55.146 14.7975 52.6292C14.7975 50.1125 12.7573 48.0723 10.2406 48.0723C7.72381 48.0723 5.68359 50.1125 5.68359 52.6292C5.68359 55.146 7.72381 57.1862 10.2406 57.1862Z" fill="black"/>
<path d="M2.27848 43.6295C2.27848 44.2587 1.76843 44.7687 1.13924 44.7687C0.510055 44.7687 0 44.2587 0 43.6295C0 43.0003 0.510055 42.4902 1.13924 42.4902C1.76843 42.4902 2.27848 43.0003 2.27848 43.6295Z" fill="black"/>
<path fill-rule="evenodd" clip-rule="evenodd" d="M51.8131 37.2486C51.8662 37.4045 51.9216 37.5114 51.9724 37.5924L51.9484 37.4548C51.9577 37.5022 51.967 37.5497 51.975 37.5973C51.9744 37.5968 51.9741 37.5963 51.9739 37.5959C52.149 38.5889 52.2403 39.6108 52.2403 40.6536C52.2403 50.4064 44.3341 58.3119 34.5819 58.3119C31.7473 58.3119 29.0701 57.6438 26.697 56.4585C26.6909 56.4558 26.6855 56.4526 26.6799 56.4498L26.6737 56.4468C26.3085 56.2646 25.9513 56.069 25.6021 55.8622L25.5732 55.8449C25.225 55.6384 24.8854 55.4195 24.5536 55.1907L24.5496 55.1881C24.5406 55.182 24.5313 55.1758 24.5223 55.1688C24.1918 54.94 23.8692 54.6991 23.5559 54.4484C23.5508 54.4445 23.546 54.4404 23.5411 54.4364C23.5362 54.4323 23.5311 54.4281 23.526 54.4241C23.213 54.1719 22.909 53.9096 22.6131 53.6369L22.6021 53.6265C22.5971 53.6219 22.5921 53.6172 22.5875 53.6126C22.2915 53.3383 22.0049 53.0551 21.7289 52.7628C21.7232 52.7558 21.7162 52.7478 21.7092 52.7408C21.5771 52.5994 21.4479 52.4575 21.3195 52.3117L21.3163 52.3081L21.308 52.2986C21.3048 52.2951 21.3015 52.2915 21.298 52.288C21.1649 52.1362 21.0351 51.9825 20.9067 51.8261C20.9049 51.8242 20.9033 51.8221 20.9019 51.8201C20.9004 51.8181 20.899 51.8161 20.8974 51.8145C20.7757 51.6664 20.6581 51.5152 20.5412 51.3624C20.5299 51.3472 20.5182 51.3322 20.5066 51.3172C20.2688 51.0039 20.0419 50.6839 19.8258 50.3544C19.8161 50.3396 19.8063 50.3249 19.7964 50.3102L19.7842 50.2919C19.5718 49.966 19.3691 49.6331 19.1786 49.2922C19.1717 49.2795 19.1645 49.2668 19.1573 49.2542C19.1501 49.2414 19.1427 49.2285 19.1357 49.2157C18.9476 48.8771 18.771 48.5315 18.6043 48.18C18.5974 48.1656 18.5907 48.1508 18.584 48.1361C18.5774 48.1213 18.5707 48.1066 18.5638 48.0922C18.4844 47.9213 18.4058 47.7476 18.3317 47.5734C18.3309 47.5709 18.33 47.569 18.3291 47.5672L18.3283 47.5654C18.2526 47.3853 18.1784 47.2036 18.1078 47.0201C18.0965 46.9901 18.0848 46.9588 18.0732 46.9275C18.0099 46.7619 17.9497 46.5959 17.8907 46.4279C17.8875 46.4177 17.8839 46.4074 17.8803 46.3973C17.8775 46.3892 17.8747 46.3812 17.8721 46.3734C17.8088 46.1899 17.7499 46.0035 17.692 45.8177C17.6873 45.8021 17.683 45.7867 17.6787 45.7714C17.6743 45.7561 17.67 45.7408 17.6654 45.7252C17.6155 45.5608 17.5692 45.3946 17.524 45.2279C17.5194 45.2125 17.5152 45.1968 17.511 45.181C17.5076 45.1684 17.5043 45.1558 17.5007 45.1434C17.4508 44.9552 17.4046 44.7653 17.3617 44.5748C17.3582 44.5608 17.3553 44.5469 17.3524 44.533C17.3495 44.5191 17.3465 44.5052 17.3431 44.4913C17.3061 44.3233 17.2712 44.1537 17.2389 43.9847L17.218 43.8769C17.1833 43.6841 17.1497 43.4908 17.1208 43.2957C17.1188 43.284 17.1171 43.2724 17.1155 43.2608C17.1142 43.2516 17.113 43.2424 17.1115 43.2331C17.0859 43.0576 17.0629 42.8806 17.0419 42.7027C17.0373 42.6622 17.0326 42.6216 17.0293 42.5823C17.0073 42.3836 16.9887 42.1845 16.9737 41.9847C16.973 41.9802 16.9727 41.976 16.9724 41.9718C16.9721 41.9684 16.9718 41.965 16.9714 41.9615C16.9574 41.771 16.9481 41.5797 16.9401 41.3882C16.9378 41.3453 16.9365 41.3014 16.9355 41.2585C16.9285 41.0574 16.9238 40.8561 16.9238 40.6539C16.9238 39.3466 17.0662 38.0729 17.3374 36.8486C17.6424 37.2183 17.6359 37.2905 17.6158 37.5154C17.6084 37.5991 17.599 37.7039 17.6031 37.853C17.892 38.1153 18.3208 38.341 18.7348 38.5361C18.811 38.5717 18.8688 38.5999 18.9139 38.6219C19.0149 38.6712 19.0526 38.6896 19.0907 38.6905C19.1133 38.691 19.1361 38.6853 19.1724 38.6762C19.2219 38.6639 19.2963 38.6453 19.4296 38.6276C19.6448 38.5956 19.7271 38.7053 19.8194 38.8285C19.8604 38.8832 19.9034 38.9406 19.961 38.9894C20.1284 39.1417 20.2822 39.1641 20.4289 39.1855C20.6488 39.2175 20.853 39.2473 21.0638 39.7085C21.1209 39.837 21.1199 39.8705 21.1195 39.8839C21.1195 39.8868 21.1194 39.8888 21.12 39.8905C21.1211 39.8943 21.125 39.8972 21.137 39.9063C21.1686 39.93 21.2563 39.9959 21.4985 40.2295C21.6451 40.3147 21.7947 40.3996 21.9447 40.4847L22.0695 40.5554C22.116 40.4808 22.1293 40.4259 22.1402 40.381C22.1584 40.3059 22.1698 40.2588 22.3189 40.1936C22.4427 40.2833 22.5892 40.5681 22.6402 40.7725C22.7561 41.3128 22.5417 41.5868 22.3494 41.8324C22.1471 42.0909 21.9694 42.318 22.2274 42.7909C22.1943 42.8753 22.1592 42.9248 22.1303 42.9654C22.0754 43.0428 22.0433 43.0879 22.092 43.2812C22.1343 43.4826 22.1883 43.5217 22.2606 43.574C22.3031 43.6048 22.352 43.6402 22.4086 43.7159C22.538 43.8842 22.6774 44.1637 22.8241 44.458C23.0484 44.9078 23.2899 45.3921 23.5394 45.5668C23.545 45.5761 23.5567 45.5807 23.573 45.5854C23.6716 45.6522 23.7782 45.7098 23.8822 45.7661C24.0944 45.8808 24.296 45.9899 24.3985 46.1597C24.4381 46.2292 24.4704 46.3199 24.497 46.4277C24.58 46.7658 24.6052 47.2656 24.6295 47.7494C24.6536 48.2281 24.6769 48.6911 24.7547 48.9663C24.8995 49.4751 24.8771 49.6948 24.856 49.9015C24.8423 50.0353 24.8292 50.1637 24.8624 50.3615C24.8801 50.4572 24.9064 50.5134 24.9362 50.577C24.9739 50.6576 25.0171 50.75 25.0553 50.9497C25.0889 51.1622 25.1398 51.4167 25.2023 51.5876C25.3486 51.5186 25.3119 51.4969 25.2811 51.4787C25.2559 51.4638 25.2346 51.4512 25.3215 51.4167C25.479 51.3496 25.4004 51.6582 25.3577 51.8256C25.3484 51.8619 25.3408 51.8916 25.3378 51.9094C25.2837 52.1734 25.3673 52.3058 25.4275 52.4013C25.4479 52.4336 25.4657 52.4618 25.4745 52.4894C25.4949 52.5504 25.4993 52.6053 25.5037 52.6613C25.5128 52.7747 25.5222 52.8928 25.666 53.0776C25.7168 53.1454 25.7376 53.169 25.7535 53.1872C25.7748 53.2115 25.7876 53.226 25.8518 53.3226C26.0498 53.6209 26.3212 53.8287 26.6148 53.9874C26.7862 54.0784 27.1932 54.259 27.3848 54.2138L27.413 54.207C27.4953 54.1874 27.5322 54.1786 27.5479 54.1554C27.5607 54.1365 27.5594 54.1082 27.5572 54.0569C27.5557 54.0237 27.5539 53.9809 27.5551 53.9248C27.1533 53.8956 26.9751 53.6226 26.7916 53.3414C26.7707 53.3093 26.7497 53.2771 26.7283 53.2451C26.7483 53.1387 26.7922 52.9927 26.8333 52.8562C26.8743 52.72 26.9124 52.5931 26.9211 52.5248C26.8255 52.3957 26.7456 52.3683 26.6521 52.3363C26.6177 52.3245 26.5815 52.3121 26.5419 52.2937C26.5599 52.074 26.5765 52.0645 26.6027 52.0496C26.6256 52.0365 26.6558 52.0193 26.7006 51.8543C26.7136 51.8067 26.7259 51.7591 26.7382 51.7114C26.7634 51.6141 26.7887 51.5162 26.8198 51.416C26.7053 51.3452 26.6721 51.3543 26.6555 51.3589C26.6518 51.3599 26.649 51.3607 26.6463 51.3604C26.6366 51.3593 26.6285 51.3442 26.5913 51.2747L26.5598 51.2162C26.6209 51.1537 26.6713 51.1496 26.7342 51.1445C26.7808 51.1407 26.8344 51.1364 26.9043 51.1074C26.9162 50.9644 26.9079 50.8724 26.9023 50.8113C26.8977 50.7602 26.8951 50.7307 26.9077 50.7111C26.9251 50.6841 26.9714 50.6758 27.0812 50.6561C27.1112 50.6507 27.146 50.6444 27.1863 50.6367C27.6957 50.5418 27.6551 50.2519 27.4067 49.8668C27.3718 49.8112 27.3624 49.7988 27.3557 49.7901C27.3474 49.7791 27.3435 49.774 27.299 49.6959C27.9422 49.8104 27.9742 49.7057 28.0827 49.3508C28.1154 49.2441 28.1549 49.1147 28.2201 48.9619C28.2561 48.8782 28.2952 48.8248 28.3399 48.7638C28.38 48.7091 28.4245 48.6482 28.4755 48.5538C28.6074 48.3056 28.589 48.1107 28.5733 47.9447C28.5447 47.6422 28.5252 47.4358 29.4418 47.1782C29.8318 47.0741 29.95 46.2145 29.9732 45.7981C29.9801 45.6193 29.9722 45.4937 29.9659 45.3922C29.9464 45.0819 29.9411 44.9966 30.4139 44.3078C30.6173 44.0096 30.6799 43.642 30.4372 43.3022C30.3534 43.2467 30.2993 43.235 30.2455 43.2233C30.1863 43.2104 30.1275 43.1977 30.0301 43.1267C29.904 43.0317 29.8273 42.9652 29.7717 42.917C29.7203 42.8725 29.6869 42.8435 29.6492 42.8222C29.5797 42.7828 29.4955 42.7692 29.256 42.7306L29.1529 42.7139C29.0795 42.7011 29.0236 42.6922 28.9802 42.6854C28.8849 42.6703 28.8502 42.6648 28.8237 42.6472C28.8085 42.6371 28.796 42.6231 28.7764 42.6011C28.758 42.5806 28.7335 42.5531 28.6949 42.5154C28.535 42.3608 28.3769 42.3294 28.2298 42.3001C28.08 42.2703 27.9417 42.2428 27.8247 42.09L27.8205 42.0805C27.771 41.9656 27.7216 41.851 27.6776 41.7315C27.666 41.7069 27.652 41.6845 27.6386 41.6632C27.625 41.6416 27.6121 41.6212 27.6034 41.6007C27.56 41.5045 27.5454 41.444 27.5338 41.396C27.5138 41.3127 27.5028 41.2668 27.3667 41.1381C27.0531 40.8342 26.9326 40.8426 26.7822 40.8531C26.6882 40.8596 26.5825 40.867 26.4109 40.7995C26.1857 40.5824 25.9529 40.3588 25.7208 40.1384C25.7016 40.1096 25.6895 40.0815 25.6776 40.0539C25.6615 40.0164 25.6457 39.9798 25.613 39.9432C25.61 39.9402 25.6017 39.9339 25.5946 39.9286L25.5851 39.9213C25.5851 39.9119 25.5688 39.9026 25.5631 39.9026L25.5325 39.8937C25.4952 39.8829 25.4572 39.872 25.4264 39.8574C25.211 39.7804 25.1231 39.8021 25.0231 39.8267C24.9669 39.8405 24.9069 39.8553 24.8185 39.8541C24.7373 39.853 24.6337 39.8391 24.4879 39.7985C24.3691 39.7651 24.2877 39.7016 24.2194 39.6482C24.0931 39.5497 24.0117 39.4861 23.8211 39.7127C23.8014 39.673 23.7807 39.6336 23.7598 39.5939C23.7327 39.5423 23.7053 39.4902 23.6797 39.4366L23.6562 39.4522C23.6256 39.4725 23.5977 39.4909 23.5663 39.5085C23.418 39.5958 23.3184 39.626 23.2431 39.6488C23.1147 39.6877 23.0572 39.7051 22.9504 39.9479C22.9337 39.9865 22.9219 40.015 22.9129 40.0366C22.896 40.0774 22.8891 40.0939 22.8793 40.1084C22.8726 40.1183 22.8646 40.1272 22.8511 40.1422C22.8346 40.1606 22.8098 40.1882 22.7692 40.2379C22.6551 40.2195 22.6009 40.1754 22.5523 40.1359C22.4899 40.0851 22.4366 40.0418 22.2776 40.0699C22.1935 40.0848 22.1353 40.1155 22.0846 40.1422C21.9822 40.1963 21.9108 40.234 21.7183 40.0918C21.4646 39.9019 21.5004 39.5905 21.5387 39.2581C21.5567 39.101 21.5753 38.9393 21.5642 38.7835C21.2877 38.6185 21.165 38.639 21.0426 38.6595C20.9502 38.6749 20.858 38.6904 20.7 38.6261C20.6492 38.4892 20.7222 38.318 20.7757 38.1927C20.788 38.1639 20.7993 38.1374 20.8078 38.1144L20.8244 38.0641C20.8879 37.8739 20.9507 37.6856 20.9039 37.4359C20.4775 37.3678 20.4318 37.4748 20.3382 37.6937C20.3189 37.7389 20.2975 37.7888 20.2704 37.843C20.0336 38.3183 19.1065 38.2591 19.0673 37.2408C19.0522 36.9942 19.1125 36.8024 19.1751 36.6037C19.2079 36.4996 19.2413 36.3936 19.2647 36.2767C19.3133 36.0368 19.4818 35.9263 19.674 35.8001C19.7065 35.7788 19.7402 35.7567 19.7736 35.7337C20.0295 35.5675 20.1817 35.625 20.3274 35.6801C20.4199 35.7151 20.5097 35.7491 20.6219 35.7244C20.7087 35.7065 20.7571 35.6604 20.8063 35.6135C20.9046 35.5198 21.006 35.4231 21.4244 35.5432C21.5596 35.5821 21.6555 35.599 21.7244 35.6111C21.8008 35.6246 21.8439 35.6322 21.8707 35.6573C21.9055 35.69 21.9126 35.7523 21.9289 35.8956C21.9374 35.9707 21.9485 36.0681 21.9674 36.1951C22.1029 36.2449 22.2435 36.2946 22.3905 36.3398C22.3781 35.9865 22.3341 35.7784 22.3043 35.6371C22.2419 35.342 22.241 35.3382 22.7188 34.9098C22.8571 34.7881 22.9396 34.7441 23.0405 34.6903C23.1006 34.6583 23.1672 34.6227 23.2561 34.5652L23.3037 34.535C23.546 34.3815 23.598 34.3486 23.5391 33.9087L23.5431 33.9051L23.5501 33.8984C23.5578 33.8908 23.5669 33.8821 23.5784 33.8728C23.7393 33.718 23.9047 33.5597 24.0709 33.4006L24.0984 33.3742C24.2705 33.1982 24.5492 33.1112 24.7936 33.035L24.8105 33.0297C24.844 32.6592 24.8879 32.6413 25.1766 32.5237L25.178 32.5231L25.2013 32.5138C25.2567 32.4906 25.3091 32.4665 25.3602 32.443C25.5167 32.3711 25.6607 32.305 25.8392 32.2874C25.764 32.4065 25.7352 32.4046 25.726 32.404C25.7246 32.4039 25.7236 32.4038 25.723 32.4042C25.7218 32.4051 25.7222 32.408 25.7232 32.4167C25.7256 32.4361 25.7314 32.4848 25.7314 32.6053C25.8508 32.5774 25.933 32.5327 26.0232 32.4837C26.1127 32.4351 26.2099 32.3822 26.3589 32.3373C26.4003 32.3243 26.4398 32.3132 26.4772 32.3027C26.6857 32.2443 26.8297 32.204 26.8689 31.9395C26.8347 31.9456 26.7817 31.9644 26.7197 31.9864C26.4637 32.0772 26.0557 32.2218 26.2007 31.7444C26.2332 31.6429 26.257 31.6367 26.2749 31.6321C26.2977 31.6261 26.3108 31.6227 26.3199 31.4278C26.1948 31.3779 26.0772 31.3283 25.958 31.2737C26.3167 31.0792 26.3863 31.1601 26.4835 31.2731C26.5289 31.3259 26.5803 31.3857 26.6701 31.4278C26.6832 31.4071 26.6926 31.3928 26.6991 31.3829C26.71 31.3664 26.713 31.3618 26.7118 31.3598C26.7113 31.359 26.7102 31.3586 26.7087 31.3581C26.702 31.3556 26.6871 31.3502 26.6817 31.2957C26.6784 31.2425 26.6724 31.2125 26.6668 31.1962C26.7505 31.1855 26.8253 31.1856 26.8977 31.1857C27.0049 31.186 27.1069 31.1861 27.2248 31.151C27.3177 31.1224 27.3675 31.089 27.417 31.0558C27.4847 31.0104 27.5517 30.9654 27.728 30.9339C27.6528 31.1214 27.5571 31.2175 27.4637 31.3114C27.3678 31.4078 27.2743 31.5018 27.208 31.6899C27.2646 31.7085 28.1185 31.8943 28.1348 31.8943L28.1521 31.3867C28.0446 31.3415 27.9374 31.2952 27.8355 31.2453C27.8701 31.1159 27.9143 31.0025 27.9539 30.9009C28.0959 30.5367 28.1783 30.3252 27.5419 30.0776C27.5204 29.9415 27.5097 29.833 27.5002 29.737C27.4798 29.5301 27.465 29.3806 27.3607 29.1358C27.1821 29.1645 27.1148 29.2388 27.0505 29.3097C26.9929 29.3733 26.9378 29.4341 26.8074 29.4571C26.5176 29.5039 26.5394 29.3101 26.5626 29.1052C26.5683 29.0543 26.5741 29.0027 26.5753 28.9539C26.4319 28.8905 26.3896 28.8418 26.3557 28.8028C26.3175 28.7589 26.29 28.7273 26.1405 28.7008C26.0552 28.6835 25.6657 28.6416 25.5696 28.6383C25.4704 28.7551 25.4021 28.8647 25.3535 28.9665C25.2473 29.1927 25.2418 29.3842 25.237 29.5485C25.2274 29.8814 25.221 30.1031 24.3884 30.2772C24.3714 30.3369 24.3571 30.403 24.3427 30.4693C24.2802 30.7583 24.2167 31.0518 23.9178 30.8422C23.8203 30.6791 23.8708 30.5436 23.9231 30.4036C23.9549 30.3184 23.9873 30.2316 23.9873 30.1358C23.8276 30.1082 23.6984 30.0815 23.5965 30.0536C23.3612 29.9867 23.2652 29.9182 23.1837 29.86C23.0833 29.7882 23.005 29.7323 22.7147 29.715C22.6975 29.5156 22.6739 29.4704 22.655 29.4343C22.6358 29.3975 22.6216 29.3703 22.6245 29.1986C22.8439 28.9955 23.2114 28.7729 23.6022 28.5791C23.9467 28.4114 24.3142 28.2658 24.6078 28.1756C24.5569 28.2715 24.506 28.3661 24.4551 28.4563C24.6339 28.5613 24.6857 28.6399 24.715 28.6843C24.7449 28.7296 24.7512 28.7392 24.8459 28.7047C24.9849 28.6521 24.8946 28.6311 24.8587 28.6227C24.8511 28.6209 24.8459 28.6197 24.8459 28.6189C24.8364 28.5952 24.7956 28.5808 24.7575 28.5674C24.6792 28.5397 24.6127 28.5162 24.8562 28.4251C24.9738 28.3835 25.0508 28.4099 25.1409 28.4409C25.1813 28.4548 25.2244 28.4696 25.2749 28.4796C25.2632 28.2275 25.1867 28.1959 25.1033 28.1614C25.0308 28.1314 24.9532 28.0993 24.9084 27.918C25.1167 28.0071 25.2736 27.9898 25.4057 27.9133C25.5536 27.8283 25.6702 27.671 25.7921 27.5067C25.851 27.4272 25.9112 27.3461 25.9766 27.2708C26.0579 27.2708 26.1271 27.2678 26.188 27.2652C26.4484 27.2541 26.5572 27.2495 26.8138 27.5098C26.8779 27.5733 26.8954 27.5707 26.9045 27.5693L26.9066 27.5691L26.9086 27.5691C26.9152 27.5701 26.9202 27.5814 26.9513 27.6519L26.9665 27.6864C26.9097 27.75 26.5538 28.0263 26.4969 28.0529C26.3511 28.127 26.2492 28.1128 26.1609 28.1005C26.0539 28.0856 25.9669 28.0735 25.8461 28.2248C25.9302 28.3017 26.0367 28.2893 26.1327 28.2782C26.1608 28.2749 26.1881 28.2718 26.2136 28.271C26.3882 28.2563 26.4108 28.2816 26.503 28.3846L26.5142 28.3971C26.5399 28.4255 26.5625 28.4507 26.5825 28.4732C26.6622 28.5623 26.7034 28.6083 26.7537 28.6396C26.8074 28.6731 26.8715 28.6898 27.004 28.7244C27.0459 28.7353 27.0947 28.7481 27.1521 28.7636C27.1651 28.7496 27.1779 28.7353 27.191 28.7206C27.2071 28.7026 27.2238 28.6839 27.2423 28.6641C27.2493 28.6548 27.2599 28.6407 27.2712 28.6329C27.2741 28.6305 27.2799 28.6271 27.2857 28.6236C27.2915 28.6201 27.2973 28.6166 27.3002 28.6143C27.3859 28.5661 27.3984 28.5835 27.4114 28.6016C27.4266 28.6228 27.4424 28.6448 27.5762 28.5644C27.7476 28.463 27.7033 28.3796 27.6404 28.2614C27.5994 28.1845 27.5506 28.0927 27.5483 27.9715C27.7177 27.9551 27.7514 28.0028 27.7863 28.0522C27.819 28.0986 27.8528 28.1464 28.0004 28.1441C28.2211 28.1395 28.3286 27.9849 28.3738 27.8355C28.2438 27.6727 28.1857 27.6582 28.1225 27.6424C28.0839 27.6328 28.0433 27.6227 27.983 27.5778C27.8805 27.5 27.8713 27.414 27.8614 27.3227C27.8539 27.2535 27.8461 27.1813 27.7972 27.1072C27.7459 27.0322 27.6249 26.9959 27.5138 26.9625C27.4644 26.9477 27.417 26.9335 27.3785 26.9167C27.1941 26.8327 27.1652 26.7675 27.143 26.7173C27.0983 26.6166 27.0807 26.5768 25.8802 26.5675C25.7228 26.5675 25.5832 26.5978 25.4674 26.6533C25.2948 26.7345 25.1738 26.8722 25.1159 27.0534C25.1566 27.1303 25.2142 27.165 25.2727 27.2002C25.3208 27.2292 25.3696 27.2586 25.41 27.3121C25.3201 27.4941 25.0818 27.6693 24.8391 27.6879C24.9004 27.3822 24.8505 27.3839 24.7865 27.386C24.7091 27.3885 24.611 27.3917 24.6636 26.8541C24.739 26.8234 24.8184 26.8022 24.897 26.7811C25.0481 26.7406 25.1964 26.7008 25.3085 26.5964L25.2675 26.5721C25.2118 26.5392 25.1544 26.5053 25.1053 26.469C24.8808 26.4262 24.7437 26.5712 24.6144 26.7078C24.5547 26.7709 24.4967 26.8322 24.4325 26.8725C24.3914 26.7796 24.4058 26.7444 24.4275 26.6914C24.4418 26.6565 24.4593 26.6138 24.4661 26.5419C24.2056 26.5233 23.8554 26.5918 23.6742 26.7903L23.6863 26.8026C23.7657 26.8832 23.8021 26.9202 23.846 26.9421C23.8833 26.9606 23.926 26.9683 24.0048 26.9825C24.0368 26.9882 24.0747 26.995 24.1206 27.004C24.0363 27.1694 24.0473 27.2629 24.0555 27.3335C24.066 27.4233 24.0722 27.4759 23.8722 27.5923C23.8707 27.5881 23.8691 27.5817 23.8676 27.5751C23.8644 27.5616 23.861 27.5476 23.8572 27.5507C23.8572 27.5468 23.8551 27.5363 23.8532 27.5269C23.8516 27.5192 23.8502 27.5122 23.8502 27.5101L23.8493 27.5065C23.8323 27.44 23.8151 27.373 23.805 27.307C23.72 27.3023 23.6574 27.307 23.6065 27.3256C23.4959 27.3674 23.447 27.4603 23.3887 27.5711C23.3789 27.5897 23.3688 27.609 23.3581 27.6285C23.3118 27.6304 23.2619 27.6343 23.2099 27.6384C23.0353 27.6522 22.838 27.6679 22.6796 27.6135C22.7134 27.5827 22.7476 27.5521 22.7819 27.5215C22.8129 27.4938 22.844 27.466 22.8748 27.438C22.9214 27.432 22.948 27.4197 22.9863 27.4021C23.0364 27.379 23.1066 27.3467 23.2679 27.3072C23.2503 27.2352 23.2368 27.2177 23.2213 27.1974C23.2162 27.1909 23.211 27.1841 23.2054 27.1751L23.1973 27.1589C26.2707 24.5621 30.2425 22.9961 34.5818 22.9961H34.6253C34.8005 22.9971 34.9765 23.0007 35.152 23.0064C35.213 23.0077 35.2732 23.0101 35.3345 23.0134C35.4833 23.0194 35.6327 23.0274 35.7813 23.038C35.8255 23.0403 35.8695 23.0426 35.9134 23.046C36.0975 23.0597 36.2786 23.076 36.4544 23.094C36.511 23.0997 36.5678 23.1067 36.6234 23.1137C36.7648 23.13 36.9031 23.1473 37.0432 23.1669C37.0723 23.1715 37.1019 23.1756 37.1315 23.1798C37.1558 23.1832 37.1801 23.1866 37.2042 23.1902C37.383 23.2168 37.5627 23.2458 37.7392 23.2781C37.7857 23.2861 37.8319 23.2954 37.8781 23.3047C38.0192 23.3313 38.1589 23.3592 38.299 23.3892C38.3258 23.3953 38.3528 23.4011 38.3797 23.4069C38.4091 23.4132 38.4386 23.4196 38.4675 23.4262C38.643 23.4654 38.819 23.5071 38.9932 23.5523C39.0057 23.5551 39.018 23.5585 39.0303 23.562C39.0429 23.5655 39.0555 23.5691 39.0685 23.5719C39.2238 23.6125 39.376 23.6552 39.5288 23.7004L39.5816 23.7158C39.6195 23.7269 39.6572 23.7379 39.6944 23.749C39.8402 23.7929 39.9831 23.8392 40.1269 23.8867L40.224 23.918C40.3944 23.9741 40.5624 24.0343 40.7296 24.0969C40.7643 24.1099 40.7991 24.1234 40.8344 24.1371L40.88 24.1548C41.0121 24.2044 41.1423 24.2566 41.2731 24.3098C41.3076 24.3248 41.3428 24.3389 41.3776 24.3529L41.4029 24.3631C41.5672 24.4321 41.7298 24.5027 41.8908 24.5768C41.9156 24.5879 41.94 24.5993 41.9642 24.6107C41.9807 24.6184 41.9972 24.6262 42.0136 24.6337C42.1352 24.6896 42.2551 24.7481 42.3754 24.8067L42.3997 24.8185C42.4243 24.831 42.4492 24.8432 42.4742 24.8554C42.4953 24.8658 42.5164 24.8761 42.5375 24.8867C42.6975 24.9671 42.8554 25.0493 43.0118 25.1351L43.038 25.1499C43.0525 25.1581 43.0672 25.1665 43.0823 25.1744C43.2188 25.2491 43.355 25.3277 43.4905 25.4065C43.5346 25.432 43.5784 25.4586 43.6223 25.4852C43.7647 25.5697 43.9055 25.6562 44.0446 25.744C44.0516 25.7487 44.0588 25.753 44.066 25.7573C44.0733 25.7617 44.0805 25.766 44.0875 25.7707C44.2392 25.8678 44.3891 25.9681 44.5385 26.07C44.5581 26.0832 44.5775 26.0969 44.5968 26.1105C44.6162 26.1241 44.6357 26.1378 44.6553 26.1511C44.7791 26.2369 44.9014 26.3243 45.0218 26.4134L45.0298 26.4192C45.0557 26.4376 45.0812 26.4558 45.1063 26.4747C45.2524 26.5825 45.394 26.6918 45.5354 26.8042C45.562 26.8252 45.5873 26.8459 45.6129 26.8668C45.5942 26.8777 45.5765 26.8929 45.5557 26.9108C45.5258 26.9364 45.4897 26.9675 45.4351 26.9989C45.2712 26.7135 45.2366 26.659 44.8585 26.7355C44.635 27.1067 44.7064 27.1687 44.8578 27.2999C44.9096 27.3448 44.9708 27.3978 45.0327 27.4742C44.9082 27.4567 44.7883 27.4158 44.6689 27.3749C44.4748 27.3085 44.2819 27.2425 44.0722 27.279C43.9178 27.3078 43.9158 27.3142 43.8974 27.3731C43.8896 27.3983 43.8788 27.4332 43.8518 27.4835C43.6882 27.415 43.637 27.4305 43.5504 27.4567C43.5052 27.4704 43.4503 27.487 43.3648 27.4961C43.1999 27.5137 43.1275 27.4975 43.0615 27.4827C43.0058 27.4703 42.9547 27.4589 42.8564 27.4695C42.668 27.4892 42.5098 27.5808 42.3644 27.665C42.244 27.7347 42.1323 27.7994 42.0193 27.814C41.9412 27.6863 41.956 27.622 41.9641 27.5868C41.9668 27.5747 41.9688 27.566 41.966 27.5593C41.9589 27.5424 41.9207 27.5385 41.7853 27.5249L41.7766 27.524C41.6861 27.6568 41.6888 27.6633 41.7183 27.7372C41.7311 27.7691 41.7488 27.8134 41.7663 27.8859C41.7144 27.892 41.6676 27.896 41.6253 27.8997C41.3856 27.9205 41.2876 27.929 41.2 28.2258C41.0981 28.2074 40.9968 28.1888 40.895 28.1668C40.849 28.2232 40.8496 28.23 40.8515 28.2509C40.8531 28.2683 40.8556 28.2955 40.8324 28.37L40.8091 28.3629C40.5201 28.2749 40.4919 28.2663 40.4254 27.9306C40.5491 27.9232 40.6587 27.9403 40.7595 27.9561C40.9577 27.9871 41.1217 28.0127 41.291 27.8358C41.2353 27.5268 40.705 27.4308 40.27 27.3521C40.0806 27.3178 39.9092 27.2868 39.803 27.2428C39.3507 27.0575 39.0967 26.9539 38.4748 27.1617C38.3985 27.1876 38.3223 27.2047 38.2499 27.221C38.1605 27.2411 38.0768 27.2599 38.0052 27.2925L37.9819 27.3018L37.9716 27.3064C37.8951 27.3457 37.8661 27.3728 37.8454 27.3922C37.8064 27.4288 37.7972 27.4374 37.5529 27.4465C37.4814 27.638 37.4883 27.6806 37.4908 27.6959C37.4913 27.6987 37.4916 27.7006 37.4912 27.7024C37.4904 27.7058 37.4869 27.7086 37.4765 27.7169C37.4557 27.7336 37.4075 27.7721 37.2988 27.8812C37.1924 27.9861 37.1359 28.0799 37.0873 28.1605C37.0165 28.2781 36.9624 28.368 36.7946 28.4243L36.7441 28.4396C36.5444 28.4996 36.1591 28.6154 36.0765 28.814C36.0652 29.104 36.0765 29.4519 36.3192 29.5434C36.461 29.5973 36.5585 29.536 36.6732 29.4638C36.7605 29.409 36.8577 29.3478 36.992 29.3263C37.0344 29.4998 37.088 29.5733 37.1353 29.6382C37.1828 29.7034 37.224 29.7599 37.2414 29.9006L37.2073 29.9185L37.1813 29.932C37.1318 29.9578 37.0817 29.9839 37.0383 30.0094C36.9174 29.9221 36.9219 29.9059 36.9298 29.8773C36.9375 29.8496 36.9484 29.8103 36.8511 29.6835C36.7609 29.724 36.6699 29.7646 36.5751 29.8016C36.5488 30.0257 36.5926 30.161 36.621 30.2488C36.6667 30.3897 36.6727 30.4084 36.2861 30.4754C36.0633 30.5119 36.0177 30.5883 35.9596 30.6858C35.9159 30.7591 35.8652 30.8443 35.7268 30.9334C35.6459 30.9854 35.575 31.0462 35.5064 31.1048C35.3843 31.2094 35.27 31.3072 35.1213 31.3369C34.9817 31.3629 34.9252 31.3932 34.8689 31.4235C34.8201 31.4497 34.7715 31.4758 34.6692 31.4989C34.587 31.5173 34.5721 31.5026 34.5624 31.4931C34.5502 31.481 34.5462 31.4772 34.4265 31.5578C34.4763 31.6633 34.55 31.7071 34.6293 31.7542C34.7033 31.7982 34.7822 31.845 34.8509 31.9476C34.9863 32.1601 34.969 32.3777 34.8509 32.5994C34.7475 32.6859 34.539 32.6518 34.3205 32.616C34.0024 32.5639 33.6631 32.5083 33.5958 32.8165C33.5739 32.9172 33.5732 32.9925 33.5725 33.0671C33.5718 33.1465 33.5711 33.2252 33.5449 33.3329C33.5357 33.3709 33.5274 33.4039 33.5201 33.4331C33.493 33.5411 33.4793 33.5957 33.4804 33.6501C33.4817 33.7058 33.4985 33.7612 33.5327 33.8733C33.5441 33.9107 33.5575 33.9545 33.5728 34.0068C33.8561 34.0161 34.1166 34.0657 33.9799 34.4508C33.9217 34.6405 33.8091 34.7001 33.6916 34.7623C33.6158 34.8024 33.538 34.8436 33.4715 34.9215C33.354 35.0718 33.3343 35.2013 33.313 35.3406C33.2997 35.4283 33.2857 35.52 33.2464 35.6232C33.198 35.7452 33.0922 35.8182 32.9632 35.9073C32.7758 36.0367 32.5395 36.2 32.3588 36.5963C32.161 37.0238 32.0499 37.2017 31.9942 37.291C31.9625 37.3417 31.9487 37.3638 31.9469 37.3869C31.9455 37.4049 31.9514 37.4234 31.9618 37.4564C31.984 37.5262 32.0267 37.6607 32.0642 37.9914C32.091 38.2113 32.036 38.4207 31.9827 38.6237C31.9001 38.9382 31.8216 39.237 32.0585 39.5344C32.1081 39.5983 32.1822 39.671 32.2579 39.7453C32.3638 39.8493 32.4729 39.9563 32.5222 40.0462C32.627 40.2208 32.64 40.2947 32.6488 40.3446C32.6614 40.4163 32.6654 40.4389 32.9187 40.6391C33.1126 40.7929 33.2484 40.9059 33.3463 40.9873C33.523 41.1343 33.5762 41.1786 33.6245 41.174C33.6451 41.172 33.665 41.1611 33.6932 41.1456C33.7562 41.111 33.8612 41.0533 34.1112 41.0195C34.2612 40.9978 34.3674 41.0198 34.4648 41.04C34.5908 41.0662 34.702 41.0893 34.8741 41.0102C34.936 40.9814 34.9979 40.9502 35.0593 40.9192C35.4802 40.707 35.878 40.5063 36.0956 41.1782C36.1931 41.1824 36.2851 41.1779 36.3692 41.1738C36.724 41.1562 36.936 41.1458 36.8077 41.8301C36.7893 41.9386 36.7725 42.0277 36.7585 42.1022C36.7209 42.3024 36.703 42.3972 36.7275 42.4793C36.7494 42.553 36.8054 42.6165 36.9116 42.7371C36.9423 42.772 36.9772 42.8116 37.0168 42.8577C37.3404 43.2382 37.4085 43.6701 37.4836 44.1474L37.5024 44.2658C37.5076 44.3114 37.5199 44.3522 37.5328 44.3952C37.5481 44.4462 37.5643 44.5002 37.5707 44.5687C37.581 44.7379 37.4994 44.9025 37.4102 45.0824C37.2489 45.4077 37.063 45.783 37.3512 46.3257C37.5703 46.7271 37.6267 47.0668 37.6851 47.4185C37.7216 47.6381 37.7588 47.8624 37.8369 48.1094C37.8658 48.1996 37.9167 48.2952 37.9736 48.3947L37.9852 48.4156L38.0205 48.4762C38.1287 48.6617 38.2467 48.8638 38.3018 49.101C38.3248 49.2121 38.3156 49.2893 38.308 49.3535C38.2952 49.4616 38.2867 49.5327 38.4432 49.666C38.5335 49.7296 39.5895 49.717 40.0821 49.2636C40.1003 49.2472 40.1171 49.2324 40.1329 49.2184C40.2054 49.1545 40.2594 49.1069 40.3478 48.992C40.4189 48.9034 40.4456 48.8437 40.4753 48.7776C40.4976 48.7278 40.5215 48.6744 40.5673 48.6022C40.6316 48.5098 40.6712 48.484 40.7038 48.4627C40.7462 48.4351 40.7767 48.4152 40.8343 48.267C40.89 48.1411 40.8982 48.0411 40.9061 47.9448C40.9119 47.8752 40.9174 47.8074 40.9408 47.7333C41.0008 47.6854 41.0606 47.6548 41.1185 47.6251C41.2092 47.5787 41.2953 47.5346 41.3708 47.4304C41.4425 47.092 41.3949 46.9226 41.3596 46.7969C41.3169 46.6448 41.2922 46.5569 41.5189 46.3112C41.7523 46.0645 41.9574 45.9363 42.1051 45.8441C42.2039 45.7823 42.277 45.7367 42.3155 45.6824C42.5622 45.3502 42.4407 44.7598 42.3285 44.2146C42.2402 43.7859 42.1577 43.3851 42.2646 43.1598C42.3972 42.881 42.4889 42.7553 42.5941 42.6113C42.6593 42.522 42.7296 42.4257 42.8179 42.2816C42.9971 41.9873 43.1993 41.8198 43.3969 41.656C43.6675 41.4318 43.9296 41.2146 44.1125 40.689C44.1381 40.6175 44.1832 40.5302 44.2324 40.4347C44.3702 40.1677 44.5411 39.8367 44.4118 39.6068C44.3393 39.5505 44.0921 39.6165 43.826 39.6875C43.5547 39.7599 43.2637 39.8375 43.1185 39.796C43.0639 39.6656 43.0349 39.5646 43.0102 39.4787C42.9503 39.2703 42.9159 39.1505 42.6031 38.9131C42.2697 38.6591 42.2531 38.5754 42.2316 38.4669C42.2152 38.3843 42.196 38.2873 42.0322 38.09C41.9035 37.932 41.9012 37.9072 41.89 37.7866C41.8855 37.7378 41.8795 37.6734 41.8632 37.5782C41.8371 37.4242 41.772 37.3393 41.7064 37.2537C41.67 37.2061 41.6333 37.1583 41.6031 37.0982C41.5173 36.9302 41.1787 36.2425 41.2413 36.0393C41.5059 36.0035 41.6555 36.3138 41.7763 36.5643C41.7922 36.5971 41.8075 36.629 41.8226 36.6589C41.8659 36.7445 41.9122 36.8017 41.9554 36.8551C41.9969 36.9064 42.0356 36.9543 42.0663 37.0207C42.1051 37.099 42.1164 37.1681 42.1279 37.2378C42.143 37.3293 42.1582 37.4218 42.2359 37.5371C42.3371 37.7027 42.4012 37.7664 42.4543 37.819C42.552 37.9159 42.6117 37.9752 42.7952 38.5647L42.8459 38.7061C42.9249 38.9261 43.0036 39.1452 43.0828 39.3613C43.3691 39.3442 43.6446 39.2037 43.9175 39.0646C44.0696 38.987 44.2209 38.9098 44.3728 38.8547C44.6061 38.769 44.6133 38.7433 44.6263 38.6976C44.6352 38.6658 44.647 38.6242 44.7393 38.5461C44.8204 38.4791 44.8842 38.4656 44.9514 38.4514C45.0107 38.4389 45.0728 38.4258 45.1521 38.3748C45.3733 38.2342 46.0402 37.4606 45.9556 37.1752C45.834 37.0233 45.8254 37.0197 45.7353 36.9816C45.6994 36.9665 45.6506 36.9459 45.5765 36.9082C45.3926 36.8141 45.381 36.7615 45.3666 36.696C45.3552 36.6446 45.3421 36.5853 45.2425 36.4919C45.191 36.53 45.146 36.5697 45.1024 36.6082C44.9499 36.7427 44.8153 36.8615 44.4853 36.8398C44.4833 36.8315 44.4785 36.8054 44.4729 36.7748C44.4626 36.719 44.4497 36.6483 44.446 36.6446C44.4017 36.52 44.3153 36.4386 44.2263 36.3549C44.1896 36.3203 44.1525 36.2854 44.1178 36.2468C44.0876 36.215 44.0568 36.1863 44.0268 36.1583C43.8945 36.035 43.7764 35.9249 43.7905 35.6216C44.0772 35.4701 44.1502 35.5956 44.2526 35.7715C44.3054 35.8623 44.366 35.9665 44.4679 36.053C44.8003 36.3374 44.8704 36.3236 45.0631 36.2856C45.1363 36.2712 45.2271 36.2532 45.3566 36.2468C45.6007 36.5748 45.6527 36.5792 46.0061 36.6091C46.0376 36.6118 46.0715 36.6147 46.1081 36.618C46.2229 36.6308 46.4103 36.6194 46.5938 36.6082C46.8072 36.5952 47.0154 36.5826 47.0975 36.6087L47.1474 36.6545C47.3281 36.8205 47.5091 36.9867 47.6845 37.1517C47.7196 37.2201 47.7301 37.2727 47.7392 37.3184C47.7537 37.391 47.7647 37.4461 47.8657 37.5192C48.0142 37.6231 48.0632 37.5975 48.1424 37.5562C48.1872 37.5328 48.2417 37.5043 48.3293 37.4913C48.3574 37.5736 48.3806 37.7398 48.4043 37.9094C48.4236 38.0477 48.4432 38.1883 48.4661 38.2879C48.5271 38.5686 48.6108 38.7819 48.6973 39.002C48.739 39.1083 48.7815 39.2163 48.8222 39.3341C48.8951 39.5466 49.206 40.3166 49.2802 40.3305C49.5118 40.3664 49.7093 39.8911 49.7498 39.7146C49.8098 39.4325 49.8068 39.2852 49.8036 39.1294C49.8013 39.0205 49.799 38.9075 49.8181 38.7415C50.0393 38.6063 50.2067 38.4168 50.3754 38.2259C50.4949 38.0906 50.6151 37.9545 50.7555 37.8366C50.9262 37.6923 50.9329 37.6696 50.9462 37.6244C50.9551 37.5943 50.9669 37.5543 51.0315 37.4621L51.0501 37.4378C51.4269 37.3751 51.4647 37.3627 51.7418 37.2719L51.8131 37.2486ZM34.7558 29.3978C34.8011 29.4986 34.846 29.5976 34.8972 29.6971C34.9276 29.8221 34.9006 29.8457 34.8809 29.863C34.8563 29.8845 34.8428 29.8963 34.9654 30.0822C35.1396 30.29 35.31 30.4986 35.4795 30.7064L35.4642 30.7509C35.3715 31.0211 35.3625 31.0476 35.0724 31.0729C34.9886 31.0802 34.9004 31.0936 34.8142 31.1067C34.6798 31.1271 34.5504 31.1468 34.4506 31.1411C34.4831 30.9322 34.4665 30.888 34.4565 30.8613C34.4472 30.8367 34.4436 30.8271 34.4899 30.7157C34.5439 30.5774 34.5752 30.5606 34.6048 30.5446C34.6343 30.5287 34.6622 30.5137 34.7093 30.3805C34.636 30.2712 34.5615 30.2263 34.4959 30.1868C34.3744 30.1136 34.2839 30.0591 34.2906 29.6475C34.4621 29.4955 34.4648 29.4946 34.6494 29.4335C34.6795 29.4235 34.7145 29.4119 34.7558 29.3978ZM44.0448 45.7229C43.988 45.8802 43.9354 46.0588 43.8831 46.2363C43.8525 46.3402 43.822 46.444 43.7908 46.5428C43.7792 46.5811 43.7661 46.6279 43.7513 46.6807C43.6208 47.1457 43.3616 48.0698 42.9206 47.6433C42.7562 47.4883 42.7619 46.9682 42.8684 46.7604C43.0463 46.428 43.0237 46.3384 42.9968 46.2316C42.9782 46.1579 42.9576 46.0761 42.9991 45.9008C43.0487 45.6842 43.1743 45.6377 43.3113 45.587C43.3922 45.557 43.4771 45.5256 43.5525 45.4568C43.6306 45.3881 43.682 45.2971 43.7338 45.2054C43.8053 45.0787 43.8777 44.9506 44.0221 44.8778C44.2379 45.1832 44.1588 45.4036 44.0752 45.6366L44.0737 45.6409C44.0641 45.6677 44.0541 45.6956 44.0448 45.7229Z" fill="#EC6B06"/>
<path d="M42.3206 33.0508C42.3019 32.7232 41.9695 32.5644 41.6695 32.4212C41.6092 32.3924 41.5499 32.364 41.495 32.3352C41.5033 32.1564 41.531 32.1356 41.5541 32.1183C41.5778 32.1005 41.5967 32.0863 41.5852 31.9098C41.5627 31.9088 41.542 31.9074 41.5224 31.906C41.4437 31.9005 41.3831 31.8963 41.2968 31.9323C41.104 32.0179 41.1387 32.0572 41.1667 32.0889C41.1756 32.099 41.1838 32.1083 41.1838 32.1181C41.1896 32.2148 41.2525 32.2054 41.2825 32.2009C41.2909 32.1997 41.2967 32.1988 41.2979 32.2008C41.3006 32.2052 41.2805 32.2237 41.2153 32.2837L41.1781 32.3179C41.1157 32.3715 41.0201 32.3795 40.9377 32.3864C40.9232 32.3877 40.9091 32.3889 40.8957 32.3903C40.8591 32.3393 40.8306 32.2937 40.8054 32.2533C40.7097 32.0999 40.661 32.0218 40.3924 32.0145C40.257 32.1597 40.0983 32.3768 40.0254 32.5986C39.9587 32.7965 39.9589 32.797 39.9726 32.8387C39.9821 32.8676 39.9982 32.9164 40.0029 33.0646C39.9991 33.074 40.0004 33.0852 40.0017 33.0958C40.0023 33.1009 40.0029 33.1058 40.0029 33.1103C39.9998 33.2299 39.9829 33.2053 39.974 33.1924C39.9668 33.1819 39.965 33.1793 39.9804 33.269C40.1251 33.2393 40.1308 33.2272 40.1379 33.212C40.1438 33.1993 40.1508 33.1845 40.241 33.1556C40.4273 33.092 40.9988 32.9198 41.1627 32.9609C41.2671 32.9851 41.3671 33.025 41.4661 33.0644C41.7359 33.1721 41.9982 33.2766 42.3206 33.0508Z" fill="#EC6B06"/>
<path d="M43.7226 33.825C43.9994 34.0248 44.2031 34.1463 44.5649 34.0473C44.5998 33.7399 44.5431 33.6561 44.46 33.533C44.423 33.4783 44.3808 33.4158 44.339 33.3226C44.3612 33.2865 44.4221 33.2419 44.4347 33.2327C44.4811 33.171 44.4962 33.1763 44.5033 33.179C44.5046 33.1795 44.5057 33.1799 44.5066 33.1798C44.5103 33.1791 44.5124 33.1696 44.5223 33.1235C44.5259 33.1064 44.5307 33.0843 44.537 33.0558C44.2713 32.97 43.8417 32.6981 43.8081 32.3409C43.8827 32.281 43.9013 32.2764 43.9219 32.2713C43.9371 32.2676 43.9533 32.2636 43.9939 32.2367C44.1056 32.1641 44.1125 32.1896 44.1137 32.1939C44.1138 32.1939 44.1142 32.1941 44.1146 32.1929C44.1166 32.1867 44.1251 32.1601 44.1694 32.0781C44.0624 31.8697 43.9435 31.833 43.683 31.9374C43.5701 31.9832 43.2702 32.1956 43.2082 32.2448C43.2405 32.6996 43.4681 32.924 43.6774 33.1305C43.7225 33.1749 43.7668 33.2186 43.8081 33.2636C43.7965 33.3694 43.7795 33.4216 43.7636 33.4701C43.7401 33.5421 43.7192 33.6062 43.7226 33.825Z" fill="#EC6B06"/>
<path d="M63.9987 36.3756C63.9987 37.0048 63.4886 37.5148 62.8595 37.5148C62.2303 37.5148 61.7202 37.0048 61.7202 36.3756C61.7202 35.7464 62.2303 35.2363 62.8595 35.2363C63.4886 35.2363 63.9987 35.7464 63.9987 36.3756Z" fill="#EC6B06"/>
<path d="M66.6068 44.9207C67.5506 44.9207 68.3157 44.1556 68.3157 43.2118C68.3157 42.268 67.5506 41.5029 66.6068 41.5029C65.663 41.5029 64.8979 42.268 64.8979 43.2118C64.8979 44.1556 65.663 44.9207 66.6068 44.9207Z" fill="#EC6B06"/>
<path d="M58.7837 51.0596C60.9859 51.0596 62.7711 49.2745 62.7711 47.0723C62.7711 44.8702 60.9859 43.085 58.7837 43.085C56.5816 43.085 54.7964 44.8702 54.7964 47.0723C54.7964 49.2745 56.5816 51.0596 58.7837 51.0596Z" fill="#EC6B06"/>
</g>
</svg>
