<svg width="70" height="70" viewBox="0 0 70 70" fill="none" xmlns="http://www.w3.org/2000/svg">
<mask id="mask0_516_7614" style="mask-type:alpha" maskUnits="userSpaceOnUse" x="0" y="0" width="70" height="70">
<rect width="70" height="70" fill="#C4C4C4"/>
</mask>
<g mask="url(#mask0_516_7614)">
<path fill-rule="evenodd" clip-rule="evenodd" d="M32.4827 10.6013C35.3892 10.6013 37.7453 8.24516 37.7453 5.33873C37.7453 2.4323 35.3892 0.0761719 32.4827 0.0761719C29.5763 0.0761719 27.2202 2.4323 27.2202 5.33873C27.2202 8.24516 29.5763 10.6013 32.4827 10.6013ZM35.8796 69.992L38.6147 47.9292L38.6407 47.9324L42.084 37.9569L43.0044 21.2773C43.1466 18.6995 41.3979 16.3992 38.876 15.8467L35.9795 15.2121C34.8859 14.9725 33.7982 15.1592 32.8897 15.661C31.9793 15.1606 30.8911 14.9742 29.7962 15.2121L26.8484 15.8526C24.3222 16.4014 22.5688 18.7039 22.7112 21.2851L23.6312 37.9569L27.0703 47.9205L27.1043 47.9163L29.8411 69.992H35.8796Z" fill="#EC6B06"/>
<path d="M8.49796 28.3292C10.833 28.3292 12.726 26.4638 12.726 24.1626C12.726 21.8615 10.833 19.9961 8.49796 19.9961C6.16289 19.9961 4.26995 21.8615 4.26995 24.1626C4.26995 26.4638 6.16289 28.3292 8.49796 28.3292Z" fill="black"/>
<path d="M13.3863 57.998L16.353 50.0789L16.9948 36.9387C17.1238 34.6919 15.5892 32.689 13.3863 32.2289L11.0687 31.7448C10.2158 31.5667 9.37011 31.6958 8.64672 32.057C7.92448 31.6947 7.0791 31.5653 6.22697 31.7448L3.95242 32.2239C1.75307 32.6871 0.222509 34.6882 0.351307 36.9321L1.10634 50.0863L3.947 57.998L5.31435 69.9936L11.7282 69.9952L13.3863 57.998Z" fill="black"/>
<path d="M56.4213 28.3292C58.7564 28.3292 60.6493 26.4638 60.6493 24.1626C60.6493 21.8615 58.7564 19.9961 56.4213 19.9961C54.0862 19.9961 52.1933 21.8615 52.1933 24.1626C52.1933 26.4638 54.0862 28.3292 56.4213 28.3292Z" fill="black"/>
<path d="M61.3096 57.998L64.2764 50.0789L64.9181 36.9387C65.0471 34.6919 63.5125 32.689 61.3096 32.2289L58.992 31.7448C58.1391 31.5667 57.2934 31.6958 56.5701 32.057C55.8478 31.6947 55.0024 31.5653 54.1503 31.7448L51.8758 32.2239C49.6764 32.6871 48.1459 34.6882 48.2746 36.9321L49.0297 50.0863L51.8703 57.998L53.2377 69.9936L59.6515 69.9952L61.3096 57.998Z" fill="black"/>
</g>
</svg>
