<svg width="110" height="164" viewBox="0 0 110 164" fill="none" xmlns="http://www.w3.org/2000/svg">
<mask id="mask0_516_7746" style="mask-type:alpha" maskUnits="userSpaceOnUse" x="0" y="0" width="110" height="164">
<rect width="110" height="164" fill="#C4C4C4"/>
</mask>
<g mask="url(#mask0_516_7746)">
<mask id="path-2-inside-1_516_7746" fill="white">
<path fill-rule="evenodd" clip-rule="evenodd" d="M13.2062 120.845H2V151.864C2 154.073 3.79086 155.864 6 155.864H9.20622C11.4154 155.864 13.2062 154.073 13.2062 151.864V120.845ZM48.0461 120.845H16.7082V145.782C16.7082 145.782 23.9429 149.561 38.2687 149.561C51.6738 149.561 67.2115 137.43 72.6452 133.188C73.0185 132.896 73.344 132.642 73.6179 132.432C77.8799 129.157 79.1334 126.135 77.8799 124.371C76.1153 121.889 71.6123 122.608 71.6123 122.608L58.8264 126.89C58.8264 126.89 55.5356 134.951 49.5504 134.951H29.7448C29.7448 134.951 30.258 129.913 38.2687 129.913H48.0461C55.0374 129.913 53.8637 120.845 48.0461 120.845Z"/>
</mask>
<path fill-rule="evenodd" clip-rule="evenodd" d="M13.2062 120.845H2V151.864C2 154.073 3.79086 155.864 6 155.864H9.20622C11.4154 155.864 13.2062 154.073 13.2062 151.864V120.845ZM48.0461 120.845H16.7082V145.782C16.7082 145.782 23.9429 149.561 38.2687 149.561C51.6738 149.561 67.2115 137.43 72.6452 133.188C73.0185 132.896 73.344 132.642 73.6179 132.432C77.8799 129.157 79.1334 126.135 77.8799 124.371C76.1153 121.889 71.6123 122.608 71.6123 122.608L58.8264 126.89C58.8264 126.89 55.5356 134.951 49.5504 134.951H29.7448C29.7448 134.951 30.258 129.913 38.2687 129.913H48.0461C55.0374 129.913 53.8637 120.845 48.0461 120.845Z" fill="#EC6B06"/>
<path d="M2 120.845V117.845H-1V120.845H2ZM13.2062 120.845H16.2062V117.845H13.2062V120.845ZM16.7082 120.845V117.845H13.7082V120.845H16.7082ZM16.7082 145.782H13.7082V147.6L15.3194 148.441L16.7082 145.782ZM72.6452 133.188L74.4914 135.553L74.4914 135.553L72.6452 133.188ZM73.6179 132.432L71.7901 130.053L73.6179 132.432ZM77.8799 124.371L80.325 122.633V122.633L77.8799 124.371ZM71.6123 122.608L71.1394 119.645L70.8946 119.685L70.6596 119.763L71.6123 122.608ZM58.8264 126.89L57.8737 124.045L56.569 124.482L56.049 125.756L58.8264 126.89ZM29.7448 134.951L26.7602 134.647L26.4236 137.951H29.7448V134.951ZM2 123.845H13.2062V117.845H2V123.845ZM5 151.864V120.845H-1V151.864H5ZM6 152.864C5.44771 152.864 5 152.416 5 151.864H-1C-1 155.73 2.134 158.864 6 158.864V152.864ZM9.20622 152.864H6V158.864H9.20622V152.864ZM10.2062 151.864C10.2062 152.416 9.75851 152.864 9.20622 152.864V158.864C13.0722 158.864 16.2062 155.73 16.2062 151.864H10.2062ZM10.2062 120.845V151.864H16.2062V120.845H10.2062ZM16.7082 123.845H48.0461V117.845H16.7082V123.845ZM19.7082 145.782V120.845H13.7082V145.782H19.7082ZM38.2687 146.561C31.3727 146.561 26.2383 145.652 22.8778 144.77C21.1964 144.328 19.9561 143.893 19.1589 143.58C18.7603 143.424 18.4723 143.298 18.2952 143.217C18.2067 143.176 18.1458 143.147 18.1128 143.131C18.0963 143.123 18.0867 143.118 18.084 143.116C18.0827 143.116 18.0831 143.116 18.0853 143.117C18.0864 143.118 18.0879 143.118 18.0898 143.119C18.0908 143.12 18.0919 143.12 18.0931 143.121C18.0937 143.121 18.0946 143.122 18.0949 143.122C18.0959 143.123 18.097 143.123 16.7082 145.782C15.3194 148.441 15.3205 148.442 15.3216 148.443C15.322 148.443 15.3231 148.443 15.3239 148.444C15.3256 148.445 15.3273 148.446 15.3292 148.447C15.3329 148.448 15.337 148.451 15.3416 148.453C15.3509 148.458 15.3619 148.463 15.3747 148.47C15.4003 148.483 15.4331 148.499 15.473 148.519C15.553 148.558 15.6616 148.61 15.7988 148.673C16.0734 148.798 16.4625 148.967 16.9659 149.165C17.9729 149.56 19.4367 150.07 21.3548 150.573C25.193 151.58 30.8389 152.561 38.2687 152.561V146.561ZM70.7991 130.823C68.0865 132.941 62.9924 136.914 56.9585 140.36C50.8496 143.848 44.1734 146.561 38.2687 146.561V152.561C45.7691 152.561 53.5642 149.208 59.9339 145.57C66.3786 141.89 71.7702 137.677 74.4914 135.553L70.7991 130.823ZM71.7901 130.053C71.505 130.272 71.1693 130.534 70.7991 130.823L74.4914 135.553C74.8676 135.259 75.183 135.013 75.4457 134.811L71.7901 130.053ZM75.4348 126.109C75.1921 125.768 75.5323 125.693 75.1314 126.498C74.7211 127.323 73.7252 128.566 71.7901 130.053L75.4457 134.811C77.7727 133.023 79.5344 131.118 80.503 129.171C81.481 127.206 81.8212 124.738 80.325 122.633L75.4348 126.109ZM71.6123 122.608C72.0852 125.57 72.0844 125.571 72.0835 125.571C72.0833 125.571 72.0825 125.571 72.0819 125.571C72.0809 125.571 72.08 125.571 72.0791 125.571C72.0773 125.572 72.0757 125.572 72.0744 125.572C72.0719 125.573 72.0703 125.573 72.0697 125.573C72.0685 125.573 72.0712 125.573 72.0776 125.572C72.0904 125.57 72.1177 125.566 72.1578 125.562C72.2385 125.552 72.3682 125.539 72.5339 125.528C72.8728 125.507 73.3237 125.499 73.7948 125.545C74.907 125.653 75.3339 125.968 75.4348 126.109L80.325 122.633C78.6614 120.293 75.9545 119.726 74.3739 119.573C73.4988 119.488 72.7136 119.505 72.153 119.541C71.869 119.559 71.6331 119.582 71.4607 119.602C71.3742 119.612 71.303 119.622 71.249 119.629C71.222 119.633 71.1992 119.636 71.1808 119.639C71.1717 119.64 71.1636 119.642 71.1567 119.643C71.1533 119.643 71.1501 119.644 71.1472 119.644C71.1457 119.644 71.1444 119.645 71.1431 119.645C71.1424 119.645 71.1415 119.645 71.1412 119.645C71.1403 119.645 71.1394 119.645 71.6123 122.608ZM59.7791 129.735L72.565 125.453L70.6596 119.763L57.8737 124.045L59.7791 129.735ZM49.5504 137.951C53.9579 137.951 57.0512 135.007 58.7989 132.765C59.7198 131.584 60.4093 130.419 60.8672 129.559C61.0981 129.125 61.2751 128.758 61.3974 128.493C61.4587 128.36 61.5066 128.252 61.541 128.173C61.5582 128.133 61.572 128.1 61.5825 128.076C61.5877 128.063 61.5921 128.053 61.5957 128.044C61.5975 128.04 61.599 128.036 61.6004 128.033C61.6011 128.031 61.6017 128.029 61.6023 128.028C61.6026 128.027 61.603 128.026 61.6031 128.026C61.6035 128.025 61.6039 128.024 58.8264 126.89C56.049 125.756 56.0493 125.755 56.0496 125.755C56.0497 125.754 56.05 125.754 56.0502 125.753C56.0506 125.752 56.0509 125.751 56.0512 125.751C56.0518 125.749 56.0521 125.749 56.0523 125.748C56.0527 125.747 56.0522 125.748 56.0511 125.751C56.0487 125.757 56.0434 125.769 56.035 125.789C56.0182 125.827 55.9896 125.892 55.9492 125.98C55.8682 126.156 55.7413 126.419 55.5702 126.741C55.224 127.391 54.7168 128.242 54.0668 129.076C52.6728 130.864 51.1281 131.951 49.5504 131.951V137.951ZM29.7448 137.951H49.5504V131.951H29.7448V137.951ZM38.2687 126.913C33.5824 126.913 30.5733 128.418 28.7694 130.429C27.9072 131.39 27.4138 132.367 27.1337 133.13C26.9937 133.512 26.9054 133.844 26.8498 134.102C26.8219 134.232 26.802 134.344 26.7878 134.435C26.7808 134.481 26.7751 134.522 26.7706 134.557C26.7683 134.575 26.7664 134.591 26.7646 134.606C26.7638 134.613 26.763 134.621 26.7623 134.627C26.7619 134.631 26.7615 134.634 26.7612 134.637C26.761 134.639 26.7608 134.641 26.7607 134.642C26.7605 134.644 26.7602 134.647 29.7448 134.951C32.7293 135.255 32.7291 135.257 32.7289 135.259C32.7288 135.26 32.7285 135.262 32.7284 135.264C32.7281 135.267 32.7278 135.27 32.7275 135.272C32.7269 135.278 32.7263 135.283 32.7257 135.288C32.7245 135.299 32.7234 135.308 32.7224 135.316C32.7203 135.332 32.7185 135.345 32.7171 135.353C32.7144 135.371 32.7134 135.375 32.7152 135.366C32.7189 135.349 32.7333 135.288 32.7666 135.197C32.8331 135.016 32.9686 134.733 33.236 134.435C33.6915 133.927 34.9443 132.913 38.2687 132.913V126.913ZM48.0461 126.913H38.2687V132.913H48.0461V126.913ZM48.0461 123.845C48.664 123.845 49.0545 124.064 49.3229 124.343C49.6285 124.66 49.8262 125.116 49.8557 125.573C49.8847 126.02 49.7497 126.309 49.606 126.465C49.4944 126.586 49.1194 126.913 48.0461 126.913V132.913C50.4686 132.913 52.5686 132.106 54.0214 130.527C55.4421 128.983 55.961 127.005 55.8432 125.185C55.6129 121.626 52.8086 117.845 48.0461 117.845V123.845Z" fill="#EC6B06" mask="url(#path-2-inside-1_516_7746)"/>
<path fill-rule="evenodd" clip-rule="evenodd" d="M60.4389 92.9683C57.1652 92.9683 54.0357 92.351 51.1604 91.2265L39.5241 111.381C38.5587 113.053 36.4206 113.626 34.7485 112.661C33.0765 111.695 32.5036 109.557 33.4689 107.885L45.061 87.8073C38.9209 83.1541 34.9548 75.7823 34.9548 67.4841C34.9548 53.4096 46.3644 42 60.4389 42C74.5134 42 85.923 53.4096 85.923 67.4841C85.923 81.5586 74.5134 92.9683 60.4389 92.9683ZM39.1326 67.4841C39.1326 79.2513 48.6718 88.7905 60.439 88.7905C72.2062 88.7905 81.7454 79.2513 81.7454 67.4841C81.7454 55.7169 72.2062 46.1777 60.439 46.1777C48.6718 46.1777 39.1326 55.7169 39.1326 67.4841Z" fill="black"/>
<path d="M73.5758 59.134C72.9104 58.4789 71.8373 58.4962 71.1933 59.1724L56.875 74.2076C56.5608 74.5375 56.0401 74.5549 55.7046 74.2467L50.4954 69.4607C49.8405 68.8591 48.8293 68.8757 48.1945 69.4984L47.9516 69.7367C47.2728 70.4026 47.2858 71.5 47.9801 72.1497L55.1047 78.8166C55.7724 79.4413 56.8181 79.4135 57.4516 78.7541L73.8326 61.7032C74.4664 61.0434 74.4519 59.9965 73.7999 59.3546L73.5758 59.134Z" fill="#EC6B06"/>
</g>
</svg>
