<svg width="110" height="164" viewBox="0 0 110 164" fill="none" xmlns="http://www.w3.org/2000/svg">
<mask id="mask0_516_7790" style="mask-type:alpha" maskUnits="userSpaceOnUse" x="0" y="0" width="110" height="164">
<rect width="110" height="164" fill="#C4C4C4"/>
</mask>
<g mask="url(#mask0_516_7790)">
<mask id="path-2-inside-1_516_7790" fill="white">
<path fill-rule="evenodd" clip-rule="evenodd" d="M11.2062 120.345H0V151.364C0 153.573 1.79086 155.364 4 155.364H7.20622C9.41536 155.364 11.2062 153.573 11.2062 151.364V120.345ZM46.0461 120.345H14.7082V145.282C14.7082 145.282 21.9429 149.061 36.2687 149.061C49.6738 149.061 65.2115 136.93 70.6452 132.688C71.0185 132.396 71.344 132.142 71.6179 131.932C75.8799 128.657 77.1334 125.635 75.8799 123.871C74.1153 121.389 69.6123 122.108 69.6123 122.108L56.8264 126.39C56.8264 126.39 53.5356 134.451 47.5504 134.451H27.7448C27.7448 134.451 28.258 129.413 36.2687 129.413H46.0461C53.0374 129.413 51.8637 120.345 46.0461 120.345Z"/>
</mask>
<path fill-rule="evenodd" clip-rule="evenodd" d="M11.2062 120.345H0V151.364C0 153.573 1.79086 155.364 4 155.364H7.20622C9.41536 155.364 11.2062 153.573 11.2062 151.364V120.345ZM46.0461 120.345H14.7082V145.282C14.7082 145.282 21.9429 149.061 36.2687 149.061C49.6738 149.061 65.2115 136.93 70.6452 132.688C71.0185 132.396 71.344 132.142 71.6179 131.932C75.8799 128.657 77.1334 125.635 75.8799 123.871C74.1153 121.389 69.6123 122.108 69.6123 122.108L56.8264 126.39C56.8264 126.39 53.5356 134.451 47.5504 134.451H27.7448C27.7448 134.451 28.258 129.413 36.2687 129.413H46.0461C53.0374 129.413 51.8637 120.345 46.0461 120.345Z" fill="#EC6B06"/>
<path d="M0 120.345V117.345H-3V120.345H0ZM11.2062 120.345H14.2062V117.345H11.2062V120.345ZM14.7082 120.345V117.345H11.7082V120.345H14.7082ZM14.7082 145.282H11.7082V147.1L13.3194 147.941L14.7082 145.282ZM70.6452 132.688L72.4914 135.053L72.4914 135.053L70.6452 132.688ZM71.6179 131.932L69.7901 129.553L71.6179 131.932ZM75.8799 123.871L78.325 122.133V122.133L75.8799 123.871ZM69.6123 122.108L69.1394 119.145L68.8946 119.185L68.6596 119.263L69.6123 122.108ZM56.8264 126.39L55.8737 123.545L54.569 123.982L54.049 125.256L56.8264 126.39ZM27.7448 134.451L24.7602 134.147L24.4236 137.451H27.7448V134.451ZM0 123.345H11.2062V117.345H0V123.345ZM3 151.364V120.345H-3V151.364H3ZM4 152.364C3.44771 152.364 3 151.916 3 151.364H-3C-3 155.23 0.134001 158.364 4 158.364V152.364ZM7.20622 152.364H4V158.364H7.20622V152.364ZM8.20623 151.364C8.20623 151.916 7.75851 152.364 7.20622 152.364V158.364C11.0722 158.364 14.2062 155.23 14.2062 151.364H8.20623ZM8.20623 120.345V151.364H14.2062V120.345H8.20623ZM14.7082 123.345H46.0461V117.345H14.7082V123.345ZM17.7082 145.282V120.345H11.7082V145.282H17.7082ZM36.2687 146.061C29.3727 146.061 24.2383 145.152 20.8778 144.27C19.1964 143.828 17.9561 143.393 17.1589 143.08C16.7603 142.924 16.4723 142.798 16.2952 142.717C16.2067 142.676 16.1458 142.647 16.1128 142.631C16.0963 142.623 16.0867 142.618 16.084 142.616C16.0827 142.616 16.0831 142.616 16.0853 142.617C16.0864 142.618 16.0879 142.618 16.0898 142.619C16.0908 142.62 16.0919 142.62 16.0931 142.621C16.0937 142.621 16.0946 142.622 16.0949 142.622C16.0959 142.623 16.097 142.623 14.7082 145.282C13.3194 147.941 13.3205 147.942 13.3216 147.943C13.322 147.943 13.3231 147.943 13.3239 147.944C13.3256 147.945 13.3273 147.946 13.3292 147.947C13.3329 147.948 13.337 147.951 13.3416 147.953C13.3509 147.958 13.3619 147.963 13.3747 147.97C13.4003 147.983 13.4331 147.999 13.473 148.019C13.553 148.058 13.6616 148.11 13.7988 148.173C14.0734 148.298 14.4625 148.467 14.9659 148.665C15.9729 149.06 17.4367 149.57 19.3548 150.073C23.193 151.08 28.8389 152.061 36.2687 152.061V146.061ZM68.7991 130.323C66.0865 132.441 60.9924 136.414 54.9585 139.86C48.8496 143.348 42.1734 146.061 36.2687 146.061V152.061C43.7691 152.061 51.5642 148.708 57.9339 145.07C64.3786 141.39 69.7702 137.177 72.4914 135.053L68.7991 130.323ZM69.7901 129.553C69.505 129.772 69.1693 130.034 68.7991 130.323L72.4914 135.053C72.8676 134.759 73.183 134.513 73.4457 134.311L69.7901 129.553ZM73.4348 125.609C73.1921 125.268 73.5323 125.193 73.1314 125.998C72.7211 126.823 71.7252 128.066 69.7901 129.553L73.4457 134.311C75.7727 132.523 77.5344 130.618 78.503 128.671C79.481 126.706 79.8212 124.238 78.325 122.133L73.4348 125.609ZM69.6123 122.108C70.0852 125.07 70.0844 125.071 70.0835 125.071C70.0833 125.071 70.0825 125.071 70.0819 125.071C70.0809 125.071 70.08 125.071 70.0791 125.071C70.0773 125.072 70.0757 125.072 70.0744 125.072C70.0719 125.073 70.0703 125.073 70.0697 125.073C70.0685 125.073 70.0712 125.073 70.0776 125.072C70.0904 125.07 70.1177 125.066 70.1578 125.062C70.2385 125.052 70.3682 125.039 70.5339 125.028C70.8728 125.007 71.3237 124.999 71.7948 125.045C72.907 125.153 73.3339 125.468 73.4348 125.609L78.325 122.133C76.6614 119.793 73.9545 119.226 72.3739 119.073C71.4988 118.988 70.7136 119.005 70.153 119.041C69.869 119.059 69.6331 119.082 69.4607 119.102C69.3742 119.112 69.303 119.122 69.249 119.129C69.222 119.133 69.1992 119.136 69.1808 119.139C69.1717 119.14 69.1636 119.142 69.1567 119.143C69.1533 119.143 69.1501 119.144 69.1472 119.144C69.1457 119.144 69.1444 119.145 69.1431 119.145C69.1424 119.145 69.1415 119.145 69.1412 119.145C69.1403 119.145 69.1394 119.145 69.6123 122.108ZM57.7791 129.235L70.565 124.953L68.6596 119.263L55.8737 123.545L57.7791 129.235ZM47.5504 137.451C51.9579 137.451 55.0512 134.507 56.7989 132.265C57.7198 131.084 58.4093 129.919 58.8672 129.059C59.0981 128.625 59.2751 128.258 59.3974 127.993C59.4587 127.86 59.5066 127.752 59.541 127.673C59.5582 127.633 59.572 127.6 59.5825 127.576C59.5877 127.563 59.5921 127.553 59.5957 127.544C59.5975 127.54 59.599 127.536 59.6004 127.533C59.6011 127.531 59.6017 127.529 59.6023 127.528C59.6026 127.527 59.603 127.526 59.6031 127.526C59.6035 127.525 59.6039 127.524 56.8264 126.39C54.049 125.256 54.0493 125.255 54.0496 125.255C54.0497 125.254 54.05 125.254 54.0502 125.253C54.0506 125.252 54.0509 125.251 54.0512 125.251C54.0518 125.249 54.0521 125.249 54.0523 125.248C54.0527 125.247 54.0522 125.248 54.0511 125.251C54.0487 125.257 54.0434 125.269 54.035 125.289C54.0182 125.327 53.9896 125.392 53.9492 125.48C53.8682 125.656 53.7413 125.919 53.5702 126.241C53.224 126.891 52.7168 127.742 52.0668 128.576C50.6728 130.364 49.1281 131.451 47.5504 131.451V137.451ZM27.7448 137.451H47.5504V131.451H27.7448V137.451ZM36.2687 126.413C31.5824 126.413 28.5733 127.918 26.7694 129.929C25.9072 130.89 25.4138 131.867 25.1337 132.63C24.9937 133.012 24.9054 133.344 24.8498 133.602C24.8219 133.732 24.802 133.844 24.7878 133.935C24.7808 133.981 24.7751 134.022 24.7706 134.057C24.7683 134.075 24.7664 134.091 24.7646 134.106C24.7638 134.113 24.763 134.121 24.7623 134.127C24.7619 134.131 24.7615 134.134 24.7612 134.137C24.761 134.139 24.7608 134.141 24.7607 134.142C24.7605 134.144 24.7602 134.147 27.7448 134.451C30.7293 134.755 30.7291 134.757 30.7289 134.759C30.7288 134.76 30.7285 134.762 30.7284 134.764C30.7281 134.767 30.7278 134.77 30.7275 134.772C30.7269 134.778 30.7263 134.783 30.7257 134.788C30.7245 134.799 30.7234 134.808 30.7224 134.816C30.7203 134.832 30.7185 134.845 30.7171 134.853C30.7144 134.871 30.7134 134.875 30.7152 134.866C30.7189 134.849 30.7333 134.788 30.7666 134.697C30.8331 134.516 30.9686 134.233 31.236 133.935C31.6915 133.427 32.9443 132.413 36.2687 132.413V126.413ZM46.0461 126.413H36.2687V132.413H46.0461V126.413ZM46.0461 123.345C46.664 123.345 47.0545 123.564 47.3229 123.843C47.6285 124.16 47.8262 124.616 47.8557 125.073C47.8847 125.52 47.7497 125.809 47.606 125.965C47.4944 126.086 47.1194 126.413 46.0461 126.413V132.413C48.4686 132.413 50.5686 131.606 52.0214 130.027C53.4421 128.483 53.961 126.505 53.8432 124.685C53.6129 121.126 50.8086 117.345 46.0461 117.345V123.345Z" fill="#EC6B06" mask="url(#path-2-inside-1_516_7790)"/>
<path fill-rule="evenodd" clip-rule="evenodd" d="M68.0001 65.7882C67.5216 65.7882 67.0503 65.745 66.5863 65.6875L64.1866 68.7236C63.9618 68.9969 63.5703 69.0761 63.2586 68.8962L58.2343 66.0184C57.9226 65.8386 57.7993 65.4644 57.9226 65.1407L59.3798 61.5578C58.7998 60.8168 58.3213 60.0038 57.9516 59.1261L54.1091 58.5865C53.7683 58.5289 53.5001 58.2339 53.5001 57.8742V52.1186C53.5001 51.7589 53.7683 51.4639 54.1091 51.4063L57.9516 50.8667C58.3213 49.989 58.8071 49.176 59.3798 48.435L57.9226 44.8521C57.7921 44.5284 57.9226 44.1543 58.2343 43.9744L63.2586 41.0966C63.5776 40.9167 63.9691 40.9959 64.1866 41.2693L66.5863 44.3053C67.0503 44.2478 67.5216 44.2046 68.0001 44.2046C68.4786 44.2046 68.9498 44.2478 69.4138 44.3053L71.8136 41.2693C72.0383 40.9959 72.4298 40.9167 72.7416 41.0966L77.7658 43.9744C78.0776 44.1543 78.2008 44.5284 78.0776 44.8521L76.6203 48.435C77.2003 49.176 77.6788 49.989 78.0486 50.8667L81.8911 51.4063C82.2318 51.4639 82.5001 51.7589 82.5001 52.1186V57.8742C82.5001 58.2339 82.2318 58.5289 81.8911 58.5937L78.0486 59.1333C77.6788 60.011 77.1931 60.824 76.6203 61.565L78.0776 65.1479C78.2081 65.4716 78.0776 65.8457 77.7658 66.0256L72.7416 68.9034C72.4226 69.0833 72.0311 69.0041 71.8136 68.7307L69.4138 65.6875C68.9498 65.745 68.4786 65.7882 68.0001 65.7882ZM75.1653 64.3348L73.8175 60.9271L74.4657 60.0646C74.9095 59.4742 75.2708 58.8443 75.5413 58.1839L75.9504 57.1853L79.5001 56.6727V53.3279L75.9504 52.8153L75.5413 51.8167C75.2648 51.1418 74.9076 50.5166 74.4727 49.9452L73.8147 49.0807L74.2162 48.0656L75.1656 45.666L72.3371 44L70.1191 46.8856L69.0718 46.752C68.6451 46.6976 68.3095 46.6712 68.0001 46.6712C67.6906 46.6712 67.355 46.6976 66.9283 46.752L65.881 46.8856L65.2296 46.0382L63.6631 44L60.8348 45.6659L62.1826 49.0735L61.5344 49.936C61.0907 50.5264 60.7293 51.1563 60.4588 51.8167L60.0497 52.8153L58.9995 52.967L56.5001 53.3274V56.6659L60.0497 57.1785L60.4588 58.1771C60.7353 58.852 61.0925 59.4772 61.5275 60.0486L62.1855 60.9131L61.784 61.9282L60.8345 64.3278L63.663 65.9938L65.881 63.1082L66.9283 63.2418C67.355 63.2962 67.6906 63.3226 68.0001 63.3226C68.3095 63.3226 68.6451 63.2962 69.0718 63.2418L70.1205 63.108L70.7718 63.9574L72.3381 66L75.1653 64.3348ZM68.5001 49.5C65.4593 49.5 63.0001 51.9593 63.0001 55C63.0001 58.0407 65.4593 60.5 68.5001 60.5C71.5408 60.5 74.0001 58.0407 74.0001 55C74.0001 51.9593 71.5408 49.5 68.5001 49.5ZM66.0001 55C66.0001 56.3834 67.1167 57.5 68.5001 57.5C69.8834 57.5 71.0001 56.3834 71.0001 55C71.0001 53.6166 69.8834 52.5 68.5001 52.5C67.1167 52.5 66.0001 53.6166 66.0001 55ZM71.198 92.6202C71.6238 92.9676 71.7471 93.5727 71.4669 94.0546L66.9844 101.82C66.7043 102.302 66.1215 102.493 65.6173 102.302L60.0366 100.05C58.8823 100.946 57.616 101.686 56.2489 102.258L55.4084 108.197C55.3187 108.724 54.8593 109.138 54.299 109.138H45.334C44.7737 109.138 44.3142 108.724 44.2246 108.197L43.3841 102.258C42.017 101.686 40.7507 100.935 39.5964 100.05L34.0157 102.302C33.5114 102.504 32.9287 102.302 32.6486 101.82L28.1661 94.0546C27.8859 93.5615 28.0092 92.9563 28.435 92.6202L33.164 88.9109C33.0744 88.1937 33.0072 87.4653 33.0072 86.7257C33.0072 85.9861 33.0744 85.2577 33.164 84.5405L28.435 80.8312C28.0092 80.4838 27.8859 79.8787 28.1661 79.3968L32.6486 71.6309C32.9287 71.149 33.5114 70.9585 34.0157 71.149L39.5964 73.4015C40.7507 72.505 42.017 71.7654 43.3841 71.1939L44.2246 65.2546C44.3142 64.7279 44.7737 64.3132 45.334 64.3132H54.299C54.8593 64.3132 55.3187 64.7279 55.4196 65.2546L56.2601 71.1939C57.6272 71.7654 58.8935 72.5162 60.0478 73.4015L65.6285 71.149C66.1328 70.9473 66.7155 71.149 66.9956 71.6309L71.4781 79.3968C71.7583 79.8899 71.635 80.495 71.2092 80.8312L66.4689 84.5405C66.5586 85.2577 66.6258 85.9861 66.6258 86.7257C66.6258 87.4653 66.5586 88.1937 66.4689 88.9109L71.198 92.6202ZM59.6125 76.5983L65.3025 74.3017L68.322 79.5331L64.7425 82.3341L63.4921 83.3125L63.689 84.888C63.78 85.6158 63.8243 86.1913 63.8243 86.7257C63.8243 87.26 63.78 87.8355 63.689 88.5634L63.4924 90.1367L68.3117 93.9168L65.291 99.1501L61.0851 97.452L59.5908 96.8488L58.3181 97.8373C57.3563 98.5843 56.304 99.198 55.1683 99.6727L53.6982 100.287L52.8422 106.337H46.7908L45.9348 100.287L44.4646 99.6727C43.353 99.208 42.2935 98.5878 41.3014 97.8269L40.0317 96.853L34.3417 99.1496L31.3213 93.9168L34.8931 91.1153L36.1406 90.1367L35.944 88.5634C35.853 87.8355 35.8087 87.26 35.8087 86.7257C35.8087 86.1913 35.853 85.6158 35.944 84.888L36.1406 83.3146L31.3213 79.5346L34.342 74.3013L38.5479 75.9994L40.0422 76.6026L41.3149 75.6141C42.2767 74.867 43.329 74.2534 44.4646 73.7786L45.9348 73.1641L46.7908 67.1148H52.8534L53.7094 73.1641L55.1795 73.7786C56.2912 74.2434 57.3507 74.8635 58.3428 75.6245L59.6125 76.5983ZM54.8593 86.7257C54.8593 89.5152 52.606 91.7685 49.8165 91.7685C47.0269 91.7685 44.7737 89.5152 44.7737 86.7257C44.7737 83.9361 47.0269 81.6829 49.8165 81.6829C52.606 81.6829 54.8593 83.9361 54.8593 86.7257ZM49.8165 94.57C45.4797 94.57 41.9721 91.0625 41.9721 86.7257C41.9721 82.3889 45.4797 78.8813 49.8165 78.8813C54.1533 78.8813 57.6608 82.3889 57.6608 86.7257C57.6608 91.0625 54.1533 94.57 49.8165 94.57Z" fill="black"/>
</g>
</svg>
