<svg width="110" height="164" viewBox="0 0 110 164" fill="none" xmlns="http://www.w3.org/2000/svg">
<mask id="mask0_516_7734" style="mask-type:alpha" maskUnits="userSpaceOnUse" x="0" y="0" width="110" height="164">
<rect width="110" height="164" fill="#C4C4C4"/>
</mask>
<g mask="url(#mask0_516_7734)">
<rect x="15.1719" y="28.3926" width="60.4358" height="81.4475" rx="2" fill="white" stroke="black" stroke-width="4"/>
<path fill-rule="evenodd" clip-rule="evenodd" d="M24.1719 46.3926C23.6196 46.3926 23.1719 46.8403 23.1719 47.3926V48.3926C23.1719 48.9449 23.6196 49.3926 24.1719 49.3926H66.9968C67.5491 49.3926 67.9968 48.9449 67.9968 48.3926V47.3926C67.9968 46.8403 67.5491 46.3926 66.9968 46.3926H24.1719ZM24.1719 57.251C23.6196 57.251 23.1719 57.6987 23.1719 58.251V59.251C23.1719 59.8033 23.6196 60.251 24.1719 60.251H66.9968C67.5491 60.251 67.9968 59.8033 67.9968 59.251V58.251C67.9968 57.6987 67.5491 57.251 66.9968 57.251H24.1719ZM23.1719 69.1094C23.1719 68.5571 23.6196 68.1094 24.1719 68.1094H66.9968C67.5491 68.1094 67.9968 68.5571 67.9968 69.1094V70.1094C67.9968 70.6617 67.5491 71.1094 66.9968 71.1094H24.1719C23.6196 71.1094 23.1719 70.6617 23.1719 70.1094V69.1094ZM24.1719 78.9678C23.6196 78.9678 23.1719 79.4155 23.1719 79.9678V80.9678C23.1719 81.5201 23.6196 81.9678 24.1719 81.9678H35.1646C35.7169 81.9678 36.1646 81.5201 36.1646 80.9678V79.9678C36.1646 79.4155 35.7169 78.9678 35.1646 78.9678H24.1719Z" fill="black"/>
<path d="M66.8956 86.3819C66.3895 85.8787 65.568 85.892 65.0784 86.4112L55.5622 96.502C55.1855 96.9015 54.5571 96.9225 54.1546 96.549L50.958 93.5833C50.4555 93.1172 49.675 93.13 49.1881 93.6123C48.6746 94.121 48.6845 94.9539 49.2098 95.4503L53.4329 99.4409C54.2339 100.198 55.4961 100.164 56.2556 99.3658L66.9203 88.1558C67.3956 87.6561 67.3847 86.8682 66.8956 86.3819Z" fill="#EC6B06"/>
<mask id="path-5-inside-1_516_7734" fill="white">
<path fill-rule="evenodd" clip-rule="evenodd" d="M10.2062 119.661H-1V150.681C-1 152.89 0.790858 154.681 3 154.681H6.20622C8.41536 154.681 10.2062 152.89 10.2062 150.681V119.661ZM45.0461 119.661H13.7082V144.599C13.7082 144.599 20.9429 148.377 35.2687 148.377C48.6738 148.377 64.2115 136.247 69.6452 132.004C70.0185 131.713 70.344 131.459 70.6179 131.248C74.8799 127.974 76.1334 124.951 74.8799 123.188C73.1153 120.706 68.6123 121.424 68.6123 121.424L55.8264 125.707C55.8264 125.707 52.5356 133.767 46.5504 133.767H26.7448C26.7448 133.767 27.258 128.729 35.2687 128.729H45.0461C52.0374 128.729 50.8637 119.661 45.0461 119.661Z"/>
</mask>
<path fill-rule="evenodd" clip-rule="evenodd" d="M10.2062 119.661H-1V150.681C-1 152.89 0.790858 154.681 3 154.681H6.20622C8.41536 154.681 10.2062 152.89 10.2062 150.681V119.661ZM45.0461 119.661H13.7082V144.599C13.7082 144.599 20.9429 148.377 35.2687 148.377C48.6738 148.377 64.2115 136.247 69.6452 132.004C70.0185 131.713 70.344 131.459 70.6179 131.248C74.8799 127.974 76.1334 124.951 74.8799 123.188C73.1153 120.706 68.6123 121.424 68.6123 121.424L55.8264 125.707C55.8264 125.707 52.5356 133.767 46.5504 133.767H26.7448C26.7448 133.767 27.258 128.729 35.2687 128.729H45.0461C52.0374 128.729 50.8637 119.661 45.0461 119.661Z" fill="#EC6B06"/>
<path d="M-1 119.661V116.661H-4V119.661H-1ZM10.2062 119.661H13.2062V116.661H10.2062V119.661ZM13.7082 119.661V116.661H10.7082V119.661H13.7082ZM13.7082 144.599H10.7082V146.416L12.3194 147.258L13.7082 144.599ZM69.6452 132.004L71.4914 134.369L71.4914 134.369L69.6452 132.004ZM70.6179 131.248L68.7901 128.869L70.6179 131.248ZM74.8799 123.188L77.325 121.449V121.449L74.8799 123.188ZM68.6123 121.424L68.1394 118.462L67.8946 118.501L67.6596 118.58L68.6123 121.424ZM55.8264 125.707L54.8737 122.862L53.569 123.299L53.049 124.573L55.8264 125.707ZM26.7448 133.767L23.7602 133.463L23.4236 136.767H26.7448V133.767ZM-1 122.661H10.2062V116.661H-1V122.661ZM2 150.681V119.661H-4V150.681H2ZM3 151.681C2.44771 151.681 2 151.233 2 150.681H-4C-4 154.547 -0.865999 157.681 3 157.681V151.681ZM6.20622 151.681H3V157.681H6.20622V151.681ZM7.20623 150.681C7.20623 151.233 6.75851 151.681 6.20622 151.681V157.681C10.0722 157.681 13.2062 154.547 13.2062 150.681H7.20623ZM7.20623 119.661V150.681H13.2062V119.661H7.20623ZM13.7082 122.661H45.0461V116.661H13.7082V122.661ZM16.7082 144.599V119.661H10.7082V144.599H16.7082ZM35.2687 145.377C28.3727 145.377 23.2383 144.468 19.8778 143.586C18.1964 143.145 16.9561 142.71 16.1589 142.397C15.7603 142.24 15.4723 142.114 15.2952 142.033C15.2067 141.993 15.1458 141.963 15.1128 141.947C15.0963 141.939 15.0867 141.934 15.084 141.933C15.0827 141.932 15.0831 141.932 15.0853 141.933C15.0864 141.934 15.0879 141.935 15.0898 141.936C15.0908 141.936 15.0919 141.937 15.0931 141.937C15.0937 141.938 15.0946 141.938 15.0949 141.938C15.0959 141.939 15.097 141.939 13.7082 144.599C12.3194 147.258 12.3205 147.258 12.3216 147.259C12.322 147.259 12.3231 147.26 12.3239 147.26C12.3256 147.261 12.3273 147.262 12.3292 147.263C12.3329 147.265 12.337 147.267 12.3416 147.269C12.3509 147.274 12.3619 147.28 12.3747 147.286C12.4003 147.299 12.4331 147.316 12.473 147.335C12.553 147.374 12.6616 147.426 12.7988 147.489C13.0734 147.615 13.4625 147.784 13.9659 147.981C14.9729 148.377 16.4367 148.886 18.3548 149.39C22.193 150.397 27.8389 151.377 35.2687 151.377V145.377ZM67.7991 129.64C65.0865 131.757 59.9924 135.731 53.9585 139.176C47.8496 142.665 41.1734 145.377 35.2687 145.377V151.377C42.7691 151.377 50.5642 148.024 56.9339 144.387C63.3786 140.706 68.7702 136.493 71.4914 134.369L67.7991 129.64ZM68.7901 128.869C68.505 129.088 68.1693 129.351 67.7991 129.64L71.4914 134.369C71.8676 134.075 72.183 133.829 72.4457 133.627L68.7901 128.869ZM72.4348 124.926C72.1921 124.584 72.5323 124.509 72.1314 125.315C71.7211 126.139 70.7252 127.383 68.7901 128.869L72.4457 133.627C74.7727 131.839 76.5344 129.934 77.503 127.988C78.481 126.022 78.8212 123.554 77.325 121.449L72.4348 124.926ZM68.6123 121.424C69.0852 124.387 69.0844 124.387 69.0835 124.387C69.0833 124.387 69.0825 124.387 69.0819 124.387C69.0809 124.388 69.08 124.388 69.0791 124.388C69.0773 124.388 69.0757 124.388 69.0744 124.389C69.0719 124.389 69.0703 124.389 69.0697 124.389C69.0685 124.389 69.0712 124.389 69.0776 124.388C69.0904 124.386 69.1177 124.383 69.1578 124.378C69.2385 124.369 69.3682 124.355 69.5339 124.345C69.8728 124.323 70.3237 124.316 70.7948 124.361C71.907 124.469 72.3339 124.784 72.4348 124.926L77.325 121.449C75.6614 119.109 72.9545 118.543 71.3739 118.389C70.4988 118.304 69.7136 118.321 69.153 118.357C68.869 118.375 68.6331 118.398 68.4607 118.419C68.3742 118.429 68.303 118.438 68.249 118.446C68.222 118.449 68.1992 118.453 68.1808 118.456C68.1717 118.457 68.1636 118.458 68.1567 118.459C68.1533 118.46 68.1501 118.46 68.1472 118.461C68.1457 118.461 68.1444 118.461 68.1431 118.461C68.1424 118.461 68.1415 118.462 68.1412 118.462C68.1403 118.462 68.1394 118.462 68.6123 121.424ZM56.7791 128.551L69.565 124.269L67.6596 118.58L54.8737 122.862L56.7791 128.551ZM46.5504 136.767C50.9579 136.767 54.0512 133.823 55.7989 131.581C56.7198 130.4 57.4093 129.236 57.8672 128.375C58.0981 127.941 58.2751 127.575 58.3974 127.31C58.4587 127.177 58.5066 127.069 58.541 126.989C58.5582 126.949 58.572 126.917 58.5825 126.892C58.5877 126.88 58.5921 126.869 58.5957 126.86C58.5975 126.856 58.599 126.852 58.6004 126.849C58.6011 126.847 58.6017 126.846 58.6023 126.844C58.6026 126.844 58.603 126.843 58.6031 126.842C58.6035 126.841 58.6039 126.841 55.8264 125.707C53.049 124.573 53.0493 124.572 53.0496 124.571C53.0497 124.571 53.05 124.57 53.0502 124.57C53.0506 124.569 53.0509 124.568 53.0512 124.567C53.0518 124.566 53.0521 124.565 53.0523 124.565C53.0527 124.564 53.0522 124.565 53.0511 124.567C53.0487 124.573 53.0434 124.586 53.035 124.605C53.0182 124.644 52.9896 124.709 52.9492 124.796C52.8682 124.972 52.7413 125.235 52.5702 125.557C52.224 126.208 51.7168 127.059 51.0668 127.893C49.6728 129.681 48.1281 130.767 46.5504 130.767V136.767ZM26.7448 136.767H46.5504V130.767H26.7448V136.767ZM35.2687 125.729C30.5824 125.729 27.5733 127.234 25.7694 129.245C24.9072 130.206 24.4138 131.183 24.1337 131.947C23.9937 132.328 23.9054 132.661 23.8498 132.919C23.8219 133.048 23.802 133.16 23.7878 133.251C23.7808 133.297 23.7751 133.338 23.7706 133.373C23.7683 133.391 23.7664 133.407 23.7646 133.422C23.7638 133.43 23.763 133.437 23.7623 133.444C23.7619 133.447 23.7615 133.45 23.7612 133.454C23.761 133.455 23.7608 133.458 23.7607 133.459C23.7605 133.461 23.7602 133.463 26.7448 133.767C29.7293 134.071 29.7291 134.074 29.7289 134.076C29.7288 134.077 29.7285 134.079 29.7284 134.08C29.7281 134.083 29.7278 134.086 29.7275 134.089C29.7269 134.094 29.7263 134.1 29.7257 134.105C29.7245 134.115 29.7234 134.124 29.7224 134.132C29.7203 134.149 29.7185 134.161 29.7171 134.17C29.7144 134.187 29.7134 134.191 29.7152 134.183C29.7189 134.165 29.7333 134.104 29.7666 134.013C29.8331 133.832 29.9686 133.55 30.236 133.251C30.6915 132.744 31.9443 131.729 35.2687 131.729V125.729ZM45.0461 125.729H35.2687V131.729H45.0461V125.729ZM45.0461 122.661C45.664 122.661 46.0545 122.881 46.3229 123.159C46.6285 123.477 46.8262 123.932 46.8557 124.389C46.8847 124.836 46.7497 125.125 46.606 125.281C46.4944 125.402 46.1194 125.729 45.0461 125.729V131.729C47.4686 131.729 49.5686 130.923 51.0214 129.344C52.4421 127.8 52.961 125.821 52.8432 124.001C52.6129 120.443 49.8086 116.661 45.0461 116.661V122.661Z" fill="#EC6B06" mask="url(#path-5-inside-1_516_7734)"/>
</g>
</svg>
