<svg width="121" height="161" viewBox="0 0 121 161" fill="none" xmlns="http://www.w3.org/2000/svg">
<path fill-rule="evenodd" clip-rule="evenodd" d="M74.3381 85.3384C75.2078 86.2077 75.2078 87.617 74.3381 88.4862L60.8712 101.946L60.8712 131.322H56.4173L56.4173 106.397L48.7392 114.071C47.8695 114.941 46.4595 114.941 45.5898 114.071C44.7201 113.202 44.7201 111.793 45.5898 110.924L71.1886 85.3384C72.0583 84.4692 73.4684 84.4692 74.3381 85.3384ZM106.974 85.3384C107.844 86.2077 107.844 87.617 106.974 88.4862L93.5074 101.946V131.322H89.0534L89.0534 106.397L81.3753 114.071C80.5056 114.941 79.0956 114.941 78.2259 114.071C77.3562 113.202 77.3562 111.793 78.2259 110.924L103.825 85.3384C104.694 84.4692 106.104 84.4692 106.974 85.3384Z" fill="black"/>
<path fill-rule="evenodd" clip-rule="evenodd" d="M31.1787 8.90332C32.4087 8.90332 33.4057 9.90038 33.4057 11.1303L33.4057 31.1602C33.4057 31.341 33.3842 31.5168 33.3435 31.6851C35.9284 32.053 38.304 33.0701 40.2998 34.566C40.3901 34.4182 40.4992 34.2787 40.6271 34.1509L49.6996 25.0832C50.5693 24.2139 51.9794 24.2139 52.8491 25.0832C53.7188 25.9524 53.7188 27.3617 52.8491 28.2309L43.7766 37.2986C43.6486 37.4265 43.5091 37.5355 43.3612 37.6257C44.8459 39.6045 45.8592 41.9568 46.2347 44.5162L75.7198 44.5162C76.9491 44.5162 77.9456 45.5128 77.9456 46.742C77.9456 47.9713 76.9491 48.9678 75.7198 48.9678L46.2347 48.9678C45.8624 51.5056 44.863 53.8397 43.3989 55.8079L62.3432 74.7421C63.2129 75.6114 63.2129 77.0207 62.3432 77.8899C61.4735 78.7591 60.0635 78.7591 59.1938 77.8899L40.2494 58.9557C38.2802 60.419 35.9448 61.4179 33.4057 61.79L33.4057 81.6118C33.4057 82.8417 32.4086 83.8388 31.1787 83.8388C29.9488 83.8388 28.9517 82.8417 28.9517 81.6118L28.9517 61.79C26.4126 61.4179 24.0772 60.419 22.108 58.9556L11.4086 69.6493C10.5389 70.5185 9.12882 70.5185 8.25913 69.6493C7.38943 68.7801 7.38943 67.3708 8.25913 66.5015L18.9585 55.8079C17.4825 53.8237 16.4789 51.4677 16.1138 48.9061C15.9461 48.9465 15.771 48.9678 15.5909 48.9678H8.16526C6.93598 48.9678 5.93945 47.9713 5.93945 46.742C5.93945 45.5128 6.93598 44.5162 8.16526 44.5162H15.5909C15.771 44.5162 15.9461 44.5376 16.1138 44.578C16.482 41.9946 17.4996 39.6204 18.9962 37.6258C18.8484 37.5356 18.7088 37.4265 18.5809 37.2987L7.53255 26.2563C6.66286 25.387 6.66286 23.9777 7.53255 23.1085C8.40225 22.2393 9.8123 22.2393 10.682 23.1085L21.7303 34.1509C21.8582 34.2788 21.9673 34.4183 22.0576 34.566C24.0534 33.0701 26.429 32.053 29.0139 31.6851C28.9733 31.5168 28.9517 31.341 28.9517 31.1602L28.9517 11.1303C28.9517 9.90038 29.9488 8.90332 31.1787 8.90332ZM31.1787 35.242C24.8241 35.242 19.6726 40.3908 19.6726 46.742C19.6726 53.0933 24.8241 58.242 31.1787 58.242C37.5334 58.242 42.6849 53.0933 42.6849 46.742C42.6849 40.3908 37.5334 35.242 31.1787 35.242Z" fill="#EC6B06"/>
</svg>
