<svg width="121" height="161" viewBox="0 0 121 161" fill="none" xmlns="http://www.w3.org/2000/svg">
<path d="M69.7247 102.18C70.7867 102.919 72.2556 102.662 72.9159 101.549C75.3762 97.4032 76.8728 92.7456 77.2809 87.9221C77.7549 82.3189 76.7432 76.6898 74.3478 71.6018C71.9524 66.5137 68.2578 62.1464 63.6361 58.9397C59.6576 56.1792 55.113 54.3627 50.3485 53.6144C49.0698 53.4135 47.9353 54.3808 47.8284 55.6701C47.7215 56.9593 48.6833 58.0808 49.9594 58.2977C53.903 58.9679 57.6614 60.4971 60.9631 62.788C64.9082 65.5252 68.0619 69.2532 70.1066 73.5964C72.1514 77.9395 73.0149 82.7445 72.6103 87.5274C72.2716 91.5303 71.0547 95.3994 69.0575 98.8635C68.4112 99.9844 68.6627 101.44 69.7247 102.18Z" fill="black"/>
<path d="M23.7189 64.9545C22.7741 64.0703 21.2835 64.1139 20.4702 65.1203C16.3771 70.1854 13.915 76.3952 13.4442 82.9261C12.9733 89.4571 14.5192 95.9555 17.8434 101.555C18.5039 102.667 19.9729 102.924 21.0348 102.184C22.0966 101.445 22.3478 99.989 21.7013 98.8683C18.9834 94.1565 17.7256 88.723 18.1193 83.2628C18.513 77.8027 20.5371 72.6056 23.9029 68.3319C24.7034 67.3153 24.6637 65.8388 23.7189 64.9545Z" fill="black"/>
<path fill-rule="evenodd" clip-rule="evenodd" d="M59.0531 88.6197C60.0229 90.1432 60.9129 91.5414 62.0817 90.7583C66.3396 87.9117 64.3381 76.1284 57.745 76.905C55.0369 77.2034 52.6238 78.9152 50.5633 80.9057C50.3084 80.5672 50.0337 80.2689 49.7198 79.9902C49.8433 79.6144 49.9484 79.2246 50.0535 78.8349C50.3826 77.6148 50.7113 76.3958 51.6037 75.6112C52.43 74.8952 53.913 74.8188 55.3061 74.7471C57.0893 74.6552 58.7251 74.5709 58.648 73.1629C58.3341 68.0077 47.267 63.8874 44.6376 70.0577C43.5581 72.6051 43.8135 75.571 44.4805 78.3775C44.0684 78.4373 43.6757 78.5169 43.2834 78.6562C43.021 78.3507 42.7358 78.0549 42.4507 77.7592C41.5842 76.8607 40.7185 75.9629 40.4969 74.7948C40.2989 73.713 40.9757 72.3749 41.6117 71.1175C42.4266 69.5064 43.1744 68.0277 41.9291 67.3906C37.3771 65.082 28.3115 72.7254 32.2753 78.1393C33.884 80.3487 36.5529 81.6228 39.2606 82.4388C39.1034 82.8371 38.9661 83.2351 38.8877 83.6531C38.505 83.7307 38.1188 83.832 37.7326 83.9333C36.5343 84.2476 35.3352 84.5621 34.2372 84.1707C33.2135 83.8043 32.4086 82.5426 31.6521 81.3568C30.6831 79.8378 29.7935 78.4434 28.6255 79.2146C24.3481 82.0613 26.369 93.8442 32.9621 93.0679C35.6702 92.7696 38.0833 91.0578 40.1438 89.0672C40.3987 89.4057 40.6734 89.7041 40.9874 89.9828C40.8638 90.3586 40.7587 90.7484 40.6536 91.138C40.3245 92.3582 39.9958 93.5772 39.1034 94.3618C38.2772 95.0777 36.7941 95.1541 35.401 95.2259C33.6179 95.3177 31.982 95.402 32.0591 96.8101C32.373 101.965 43.4402 106.086 46.0695 99.9153C47.149 97.3678 46.8937 94.402 46.2266 91.5954C46.6388 91.5356 47.0314 91.4561 47.4237 91.3168C47.6861 91.6223 47.9713 91.918 48.2564 92.2137C49.1229 93.1123 49.9886 94.0101 50.2102 95.1781C50.4082 96.2599 49.7314 97.598 49.0954 98.8554C48.2806 100.467 47.5327 101.945 48.778 102.582C53.3301 104.891 62.3956 97.2475 58.4319 91.8337C56.8231 89.6243 54.1543 88.3502 51.4466 87.5342C51.6037 87.1358 51.7411 86.7379 51.8194 86.3199C52.2021 86.2422 52.5883 86.141 52.9745 86.0396C54.1728 85.7253 55.3719 85.4108 56.47 85.8023C57.4927 86.1683 58.2972 87.4321 59.0531 88.6197ZM45.3444 80.4877C47.7972 80.4877 49.7789 82.4979 49.7789 84.986C49.7789 87.4741 47.7971 89.4843 45.3444 89.4843C42.8916 89.4843 40.91 87.474 40.91 84.986C40.91 82.4978 42.8917 80.4877 45.3444 80.4877Z" fill="black"/>
<path d="M25.0172 106.8C24.129 107.741 24.1673 109.231 25.1712 110.048C30.8743 114.686 38.024 117.237 45.4241 117.226C52.8242 117.215 59.9665 114.644 65.6562 109.989C66.6578 109.17 66.6917 107.68 65.8009 106.742C64.91 105.803 63.4323 105.773 62.4205 106.58C57.6083 110.417 51.6188 112.532 45.4173 112.541C39.2158 112.55 33.2203 110.452 28.3971 106.629C27.3829 105.825 25.9053 105.859 25.0172 106.8Z" fill="#EC6B06"/>
<path d="M62.2624 106.755C61.3722 107.694 61.4071 109.184 62.4092 110.003C68.1018 114.653 75.2458 117.22 82.6459 117.226C90.046 117.232 97.1941 114.677 102.894 110.035C103.898 109.218 103.935 107.728 103.046 106.787C102.157 105.847 100.68 105.813 99.6661 106.618C94.8454 110.444 88.8512 112.546 82.6497 112.541C76.4482 112.536 70.4573 110.424 65.6427 106.591C64.6304 105.785 63.1527 105.816 62.2624 106.755Z" fill="#EC6B06"/>
<path d="M36.3735 56.3893C36.3735 59.0525 34.2128 61.2126 31.5491 61.2126C28.8836 61.2126 26.7232 59.0524 26.7232 56.3893C26.7232 53.7263 31.5491 41.5487 31.5491 41.5487C31.5491 41.5487 36.3735 53.7259 36.3735 56.3893Z" fill="#EC6B06"/>
<path d="M46.0238 41.5506C46.0238 44.2138 43.8631 46.3739 41.1994 46.3739C38.5339 46.3739 36.3735 44.2137 36.3735 41.5506C36.3735 38.8876 41.1994 26.71 41.1994 26.71C41.1994 26.71 46.0238 38.8872 46.0238 41.5506Z" fill="#EC6B06"/>
</svg>
