<svg width="121" height="161" viewBox="0 0 121 161" fill="none" xmlns="http://www.w3.org/2000/svg">
<path fill-rule="evenodd" clip-rule="evenodd" d="M34.8896 23.3711C34.8896 17.8393 39.3763 13.3549 44.911 13.3549C50.4457 13.3549 54.9325 17.8393 54.9325 23.3711C54.9325 28.9028 50.4457 33.3872 44.911 33.3872H7.05215C5.82221 33.3872 4.82515 34.3837 4.82515 35.613C4.82515 36.8423 5.82221 37.8388 7.05215 37.8388H44.911C52.9056 37.8388 59.3865 31.3614 59.3865 23.3711C59.3865 15.3807 52.9056 8.90332 44.911 8.90332C36.9165 8.90332 30.4356 15.3807 30.4356 23.3711C30.4356 24.6003 31.4326 25.5969 32.6626 25.5969C33.8925 25.5969 34.8896 24.6003 34.8896 23.3711ZM2.22581 42.2904C0.996528 42.2904 0 43.2869 0 44.5162C0 45.7455 0.996525 46.742 2.2258 46.742H34.1484C35.3777 46.742 36.3742 45.7455 36.3742 44.5162C36.3742 43.2869 35.3777 42.2904 34.1484 42.2904H2.22581Z" fill="#EC6B06"/>
<path fill-rule="evenodd" clip-rule="evenodd" d="M75.4993 11.8687C75.4493 11.0362 74.7596 10.3867 73.9257 10.3867C73.0917 10.3867 72.402 11.0362 72.352 11.8687L70.3383 45.4134L42.2781 63.9295C41.5823 64.3886 41.3648 65.3101 41.7817 66.0319C42.1987 66.7538 43.1059 67.0262 43.8516 66.6535L73.9256 51.6237L104 66.6535C104.745 67.0262 105.653 66.7538 106.07 66.0319C106.486 65.3101 106.269 64.3886 105.573 63.9295L77.5131 45.4135L75.4993 11.8687ZM76.4599 60.0976C76.4599 58.8676 75.4628 57.8706 74.2329 57.8706C73.003 57.8706 72.0059 58.8676 72.0059 60.0976L72.0059 132.064H76.4599L76.4599 60.0976Z" fill="black"/>
</svg>
