<svg width="121" height="161" viewBox="0 0 121 161" fill="none" xmlns="http://www.w3.org/2000/svg">
<path fill-rule="evenodd" clip-rule="evenodd" d="M11.877 63.8069C11.877 62.5776 12.8735 61.5811 14.1028 61.5811H32.6634C33.8927 61.5811 34.8892 62.5776 34.8892 63.8069C34.8892 65.0361 33.8927 66.0327 32.6634 66.0327H14.1028C12.8735 66.0327 11.877 65.0361 11.877 63.8069ZM14.1028 88.2907C12.8735 88.2907 11.877 89.2873 11.877 90.5165C11.877 91.7458 12.8735 92.7423 14.1028 92.7423H32.6634C33.8927 92.7423 34.8892 91.7458 34.8892 90.5165C34.8892 89.2873 33.8927 88.2907 32.6634 88.2907H14.1028ZM14.1028 115C12.8735 115 11.877 115.997 11.877 117.226C11.877 118.455 12.8735 119.452 14.1028 119.452H32.6634C33.8927 119.452 34.8892 118.455 34.8892 117.226C34.8892 115.997 33.8927 115 32.6634 115H14.1028ZM14.1028 128.355C12.8735 128.355 11.877 129.352 11.877 130.581C11.877 131.81 12.8735 132.807 14.1028 132.807H32.6634C33.8927 132.807 34.8892 131.81 34.8892 130.581C34.8892 129.352 33.8927 128.355 32.6634 128.355H14.1028ZM11.877 103.871C11.877 102.642 12.8735 101.646 14.1028 101.646H32.6634C33.8927 101.646 34.8892 102.642 34.8892 103.871C34.8892 105.101 33.8927 106.097 32.6634 106.097H14.1028C12.8735 106.097 11.877 105.101 11.877 103.871ZM14.1028 74.9359C12.8735 74.9359 11.877 75.9324 11.877 77.1617C11.877 78.391 12.8735 79.3875 14.1028 79.3875H32.6634C33.8927 79.3875 34.8892 78.391 34.8892 77.1617C34.8892 75.9324 33.8927 74.9359 32.6634 74.9359H14.1028Z" fill="#EC6B06"/>
<path fill-rule="evenodd" clip-rule="evenodd" d="M93.6815 79.2388H43.7969V74.9355H93.6815C99.6262 74.9355 104.445 79.7521 104.445 85.6936V145.419H100.14V85.6936C100.14 82.1287 97.2483 79.2388 93.6815 79.2388ZM72.2225 108.969C72.5844 108.969 72.9135 109.194 73.078 109.533C73.2755 109.871 73.2751 110.284 73.1105 110.622L62.9091 131.834C62.7447 132.21 62.4156 132.436 62.0536 132.436H62.0536C61.9879 132.436 61.8892 132.436 61.7904 132.398C61.3297 132.248 61.0337 131.759 61.0665 131.232L61.8233 117.994H55.8997C55.6034 117.994 55.3073 117.844 55.1098 117.543C54.9454 117.242 54.8795 116.866 54.9782 116.528L60.408 97.7237C60.5396 97.2347 60.9016 96.9339 61.3295 96.9339L69.2935 96.9342C69.5898 96.9342 69.9189 97.0846 70.0833 97.3854C70.248 97.6862 70.3137 98.0623 70.2149 98.4009L67.1875 108.969H72.2225Z" fill="black"/>
</svg>
