<svg width="86" height="78" viewBox="0 0 86 78" fill="none" xmlns="http://www.w3.org/2000/svg">
<path d="M10.123 68.2205C9.37314 69.0155 9.40543 70.2742 10.2531 70.9639C15.0682 74.882 21.1048 77.0367 27.3528 77.0277C33.6007 77.0187 39.6311 74.8466 44.4349 70.9146C45.2805 70.2224 45.3092 68.9637 44.557 68.1708V68.1708C43.8049 67.378 42.5572 67.3527 41.7029 68.0342C37.64 71.2754 32.583 73.0627 27.3471 73.0702C22.1111 73.0778 17.049 71.3051 12.9767 68.0757C12.1204 67.3966 10.8729 67.4256 10.123 68.2205V68.2205Z" fill="#EC6B06"/>
<path d="M41.5685 68.182C40.8169 68.9752 40.8463 70.234 41.6925 70.9256C46.4988 74.8545 52.5305 77.0228 58.7785 77.0277C65.0265 77.0327 71.0617 74.8741 75.8743 70.9529C76.7215 70.2626 76.753 69.0039 76.0026 68.2095V68.2095C75.2522 67.415 74.0046 67.3868 73.1488 68.0664C69.0786 71.2985 64.0176 73.0744 58.7817 73.0703C53.5457 73.0661 48.4876 71.2821 44.4225 68.0435C43.5678 67.3625 42.3202 67.3887 41.5685 68.182V68.182Z" fill="#EC6B06"/>
<path d="M9.02678 32.8713C8.2291 32.1243 6.97051 32.1612 6.28386 33.0114C2.82806 37.2902 0.749273 42.5359 0.351722 48.053C-0.0458282 53.5701 1.25939 59.0596 4.06603 63.7897C4.6237 64.7295 5.86399 64.9465 6.76053 64.3216V64.3216C7.65707 63.6967 7.86912 62.467 7.32329 61.5203C5.02854 57.5399 3.96661 52.9499 4.29898 48.3374C4.63135 43.7249 6.34038 39.3346 9.1821 35.7244C9.85802 34.8656 9.82447 33.6183 9.02678 32.8713V32.8713Z" fill="black"/>
<path d="M47.8699 64.3175C48.7665 64.9422 50.0067 64.725 50.5642 63.7851C52.6414 60.2826 53.905 56.348 54.2496 52.2734C54.6498 47.5401 53.7957 42.7848 51.7732 38.4866C49.7507 34.1884 46.6313 30.4991 42.7292 27.7902C39.3701 25.4583 35.5331 23.9238 31.5103 23.2916C30.4307 23.1219 29.4729 23.9391 29.3826 25.0282V25.0282C29.2924 26.1173 30.1045 27.0647 31.1818 27.2479C34.5115 27.814 37.6847 29.1059 40.4724 31.0411C43.8032 33.3534 46.4659 36.5027 48.1923 40.1716C49.9187 43.8405 50.6478 47.8996 50.3062 51.94C50.0202 55.3214 48.9928 58.5899 47.3065 61.5162C46.7609 62.4631 46.9732 63.6928 47.8699 64.3175V64.3175Z" fill="black"/>
<path d="M41.4149 54.6689C39.6589 55.846 38.6482 51.1882 36.6769 50.4822C35.451 50.045 34.0759 50.6505 32.7505 50.9195C32.6843 51.2726 32.5683 51.6088 32.4356 51.9453C34.7218 52.6346 36.9751 53.7109 38.3334 55.5773C41.68 60.1508 34.0259 66.6076 30.1825 64.6574C28.3105 63.6991 31.7731 60.4874 31.3918 58.4026C31.1431 57.0912 29.9338 56.1831 29.0391 55.1407C28.7079 55.2584 28.3764 55.3255 28.0284 55.3761C28.5916 57.7469 28.8072 60.2524 27.8957 62.4044C25.6758 67.6168 16.3317 64.1361 16.0667 59.7812C15.9507 57.6624 20.4236 59.0919 22.0142 57.713C23.0083 56.8385 23.174 55.3252 23.6048 54.0138C23.3398 53.7784 23.1078 53.5263 22.8926 53.2404C21.1529 54.9219 19.1155 56.3679 16.829 56.62C11.2625 57.2757 9.5562 47.322 13.1676 44.9173C14.9237 43.7571 15.9343 48.398 17.9056 49.104C19.1315 49.5412 20.5066 48.9357 21.832 48.6667C21.8982 48.3136 22.0142 47.9774 22.1469 47.6409C19.8608 46.9516 17.6074 45.8753 16.2491 44.0089C12.9025 39.4355 20.5566 32.9786 24.4 34.9288C26.272 35.8871 22.8094 39.0988 23.1907 41.1836C23.4394 42.495 24.6487 43.4031 25.5434 44.4456C25.8746 44.3278 26.2062 44.2607 26.5541 44.2101C25.9909 41.8393 25.7754 39.3339 26.6868 37.1819C28.9067 31.9694 38.2508 35.4501 38.5159 39.805C38.6318 41.9238 34.1589 40.4943 32.5683 41.8732C31.5742 42.7477 31.4085 44.261 30.9777 45.5724C31.2427 45.8079 31.4747 46.0599 31.6899 46.3459C33.4296 44.6643 35.467 43.2183 37.7535 42.9662C43.32 42.3102 45.0099 52.2642 41.4149 54.6689V54.6689ZM31.0276 49.7927C31.0276 47.6909 29.3545 45.9927 27.2835 45.9927C25.2127 45.9927 23.5395 47.6908 23.5395 49.7927C23.5395 51.8944 25.2126 53.5926 27.2835 53.5926C29.3544 53.5926 31.0276 51.8945 31.0276 49.7927Z" fill="black"/>
<path d="M19.7123 25.6354C19.7123 27.8852 17.888 29.7099 15.639 29.7099C13.3885 29.7099 11.5645 27.8851 11.5645 25.6354C11.5645 23.3858 15.639 13.0986 15.639 13.0986C15.639 13.0986 19.7123 23.3855 19.7123 25.6354Z" fill="#EC6B06"/>
<path d="M27.8588 13.1003C27.8588 15.35 26.0345 17.1748 23.7854 17.1748C21.535 17.1748 19.7109 15.3499 19.7109 13.1003C19.7109 10.8506 23.7854 0.563477 23.7854 0.563477C23.7854 0.563477 27.8588 10.8503 27.8588 13.1003Z" fill="#EC6B06"/>
</svg>
