<svg width="240" height="138" viewBox="0 0 240 138" fill="none" xmlns="http://www.w3.org/2000/svg">
<path fill-rule="evenodd" clip-rule="evenodd" d="M119.598 5.32177L119.574 5.4959L117.717 43.4824L86.6867 64.0139L86.5455 64.1269L86.5254 64.1462C85.8441 64.8011 85.8226 65.8843 86.4774 66.5656C86.9258 67.0321 87.599 67.2058 88.2171 67.0145L88.3861 66.9447L121.454 49.5902L154.522 66.9447L154.691 67.0145C155.309 67.2058 155.982 67.0321 156.431 66.5656C157.085 65.8843 157.064 64.8011 156.383 64.1462L156.363 64.1269L156.221 64.0139L124.782 43.2115L122.938 5.4959L122.914 5.32177C122.768 4.68553 122.271 4.1887 121.635 4.04318C120.72 3.83378 119.808 4.40622 119.598 5.32177ZM121.301 54.1875C119.92 54.1875 118.801 55.3068 118.801 56.6875V136.212H123.801V56.6875C123.801 55.3068 122.681 54.1875 121.301 54.1875Z" fill="black"/>
<path fill-rule="evenodd" clip-rule="evenodd" d="M202.598 5.32177L202.574 5.4959L200.717 43.4824L169.687 64.0139L169.546 64.1269L169.525 64.1462C168.844 64.8011 168.823 65.8843 169.477 66.5656C169.926 67.0321 170.599 67.2058 171.217 67.0145L171.386 66.9447L204.454 49.5902L237.522 66.9447L237.691 67.0145C238.309 67.2058 238.982 67.0321 239.431 66.5656C240.085 65.8843 240.064 64.8011 239.383 64.1462L239.363 64.1269L239.221 64.0139L207.782 43.2115L205.938 5.4959L205.914 5.32177C205.768 4.68553 205.271 4.1887 204.635 4.04318C203.72 3.83378 202.808 4.40622 202.598 5.32177ZM204.301 54.1875C202.92 54.1875 201.801 55.3068 201.801 56.6875V136.212H206.801V56.6875C206.801 55.3068 205.681 54.1875 204.301 54.1875Z" fill="black"/>
<path fill-rule="evenodd" clip-rule="evenodd" d="M13 46.3135C13 47.418 13.8954 48.3135 15 48.3135H51.5312C58.971 48.3135 65 42.2681 65 34.8135C65 27.3588 58.971 21.3135 51.5312 21.3135C44.0914 21.3135 38.0624 27.3588 38.0624 34.8135C38.0624 35.918 38.9579 36.8135 40.0624 36.8135C41.167 36.8135 42.0624 35.918 42.0624 34.8135C42.0624 29.5656 46.303 25.3135 51.5312 25.3135C56.7595 25.3135 61 29.5656 61 34.8135C61 40.0614 56.7595 44.3135 51.5312 44.3135H15C13.8954 44.3135 13 45.2089 13 46.3135ZM0 54.3135C0 55.418 0.89543 56.3135 2 56.3135H37C38.1046 56.3135 39 55.418 39 54.3135C39 53.2089 38.1046 52.3135 37 52.3135H2C0.89543 52.3135 0 53.2089 0 54.3135Z" fill="#EC6B06"/>
</svg>
